<svg xmlns="http://www.w3.org/2000/svg" width="140.16" height="36.123" viewBox="0 0 140.16 36.123"><path data-name="6195f4d68797475828378d3d_Vogue Magazine" d="M71.781.055a10.411 10.411 0 0 0-3.633 1.163 16.257 16.257 0 0 0-4.788 3.951 19.3 19.3 0 0 0-4.6 14.016c.436 5.55 2.353 10.12 5.542 13.21a11.571 11.571 0 0 0 8.4 3.51 6.546 6.546 0 0 0 2.161-.206 31.22 31.22 0 0 0 3.771-1.425 7.425 7.425 0 0 1 3.4-.858 2.5 2.5 0 0 1 1.488.255 2.669 2.669 0 0 1 1.289 1.335c.1.219.215.4.263.4s.088-2.64.088-7.044v-7.045h2.849v-.463h-11.5v.463h2.95v4.851c0 4.573-.01 4.882-.18 5.378a5.37 5.37 0 0 1-2.8 3.259 7.161 7.161 0 0 1-2.782.788 5.669 5.669 0 0 1-5.788-2.468c-1.357-1.9-2.2-4.861-2.633-9.259-.165-1.671-.164-10.018 0-11.724.7-7.206 2.56-11.025 5.7-11.684a9.092 9.092 0 0 1 3.193.183c3.984 1.039 7.156 5.282 8.545 11.431.032.14.1.255.148.255s.09-2.2.09-6.163c0-3.939-.032-6.163-.09-6.163s-.149.115-.222.255A2.938 2.938 0 0 1 81.256 1.4a3.036 3.036 0 0 1-1.425.339 2.9 2.9 0 0 1-1.7-.332 21.445 21.445 0 0 0-3.6-1.123 11.378 11.378 0 0 0-2.75-.229zM38.997.336c-5.817.982-11.18 6.9-12.661 13.984a11.651 11.651 0 0 0-.253 3.151 19.756 19.756 0 0 0 .166 3.059c1.078 7.185 4.862 12.68 10.082 14.628a11.073 11.073 0 0 0 4.457.743 10.232 10.232 0 0 0 2.6-.2c4.192-.911 7.672-3.818 10.06-8.4a21.677 21.677 0 0 0 2.479-11.354C55.164 8.32 49.428 1.465 42.864.335a13.816 13.816 0 0 0-3.867.001zm3.268.27c2.9.51 4.868 2.565 6.048 6.321 1.035 3.292 1.446 8.235 1.163 13.973-.246 4.991-.828 8.009-2.021 10.486a6.839 6.839 0 0 1-7.122 4.175c-4.4-.243-6.608-2.947-7.493-9.192a47.381 47.381 0 0 1-.462-6.3c-.157-5.9.239-10.021 1.267-13.176 1.566-4.806 4.573-6.998 8.62-6.287zM0 1.157v.23l1.811.024 1.812.025 6.139 17.1c3.376 9.406 6.149 17.121 6.149 17.147.024.1.678-1.934 5.749-17.865L26.89 1.39h3V.927h-6.622v.463h1.573c1.221 0 1.564.026 1.53.116-.024.064-.466 1.45-.981 3.082-1.731 5.474-6.851 21.248-6.92 21.317-.024.024-2.043-5.43-4.487-12.12L9.497 1.506c-.034-.09.309-.116 1.53-.116H12.6V.927H0zm86.359-.044c0 .179.061.185 1.7.185h1.7l.037 13.555c.04 14.938 0 13.995.618 15.485 1.326 3.21 5.053 5.313 10.158 5.731a11.3 11.3 0 0 0 7.328-1.6 9.445 9.445 0 0 0 2.981-3.359c.812-1.537.727.162.779-15.682l.046-14.088 3.058-.024 3.047-.016v33.642h-1.426c-1.364 0-1.425.008-1.425.185s.061.185 12.6.185h12.6v-6.627c0-6.565 0-6.627-.184-6.627-.166 0-.184.062-.184.644a18.3 18.3 0 0 1-.511 3.679 11.106 11.106 0 0 1-5.724 7.347c-2.143 1.083-3.6 1.3-8.181 1.236l-1.586-.023V17.9l.421-.064a9.942 9.942 0 0 1 1.4-.017 5.851 5.851 0 0 1 3.18 1c1.532 1.033 2.265 2.381 2.679 4.93.113.7.2 1 .287 1 .1 0 .124-1.168.124-6.951 0-5.8-.021-6.951-.125-6.951-.086 0-.144.182-.185.579a12.562 12.562 0 0 1-.664 2.751 4.468 4.468 0 0 1-3.333 2.895 9.651 9.651 0 0 1-2.246.238l-1.54.048V1.417l.7-.06a36.967 36.967 0 0 1 5.412.081c4.3.653 6.873 2.7 8.208 6.532a22.369 22.369 0 0 1 .988 4.935c.042.373.1.533.192.533.113 0 .129-.869.108-6.233l-.017-6.232L123.353.95c-15.979-.023-16.026-.023-16.026.162s.061.186 1.932.186h1.931v27.943l-.3.75a9.05 9.05 0 0 1-4.267 4.706 9.618 9.618 0 0 1-7.562.323c-1.539-.7-2.566-2.045-3.241-4.25l-.213-.7-.025-14.389-.03-14.381h1.7c1.642 0 1.7-.007 1.7-.185s-.061-.185-6.3-.185-6.294-.001-6.294.182z" fill="#f7e8f3" fill-rule="evenodd"/></svg>