<svg xmlns="http://www.w3.org/2000/svg" width="111.08" height="37.996" viewBox="0 0 111.08 37.996"><g fill="#f7e8f3"><path data-name="Path 89" d="M25.839 20.19a8.581 8.581 0 0 1 4.107-7.228 8.877 8.877 0 0 0-6.949-3.768c-2.956-.3-5.771 1.742-7.274 1.742s-3.818-1.7-6.27-1.65a9.3 9.3 0 0 0-7.865 4.762c-3.346 5.8-.853 14.42 2.416 19.136 1.6 2.306 3.5 4.9 6 4.808 2.411-.1 3.319-1.558 6.224-1.558s3.726 1.558 6.27 1.513c2.59-.05 4.231-2.356 5.817-4.671a21.181 21.181 0 0 0 2.626-5.409 8.381 8.381 0 0 1-5.1-7.677"/><path data-name="Path 90" d="M21.059 6.069A8.369 8.369 0 0 0 23.039 0a8.509 8.509 0 0 0-5.6 2.883 7.937 7.937 0 0 0-2.012 5.876 7.05 7.05 0 0 0 5.629-2.691m21.543 18.848l-2.2 6.669h-2.828l7.2-21.194h3.3l7.228 21.194h-2.924l-2.264-6.669zm6.949-2.141l-2.072-6.1c-.472-1.384-.784-2.64-1.1-3.869h-.06a66.93 66.93 0 0 1-1.068 3.836l-2.072 6.128zm7.9-1.444c0-1.948-.06-3.525-.128-4.969h2.484l.128 2.613h.06a5.982 5.982 0 0 1 5.409-2.956c3.681 0 6.445 3.112 6.445 7.737 0 5.473-3.332 8.173-6.917 8.173a5.338 5.338 0 0 1-4.684-2.388h-.06v8.269h-2.741zm2.732 4.056a5.732 5.732 0 0 0 .128 1.132 4.274 4.274 0 0 0 4.153 3.241c2.924 0 4.625-2.388 4.625-5.881 0-3.053-1.6-5.656-4.529-5.656a4.426 4.426 0 0 0-4.185 3.429 4.4 4.4 0 0 0-.188 1.132v2.6zm14.525-4.056c0-1.948-.06-3.525-.128-4.969h2.484l.128 2.613h.06a5.982 5.982 0 0 1 5.409-2.956c3.681 0 6.445 3.112 6.445 7.737 0 5.473-3.332 8.173-6.917 8.173a5.338 5.338 0 0 1-4.684-2.388h-.06v8.269h-2.736zm2.736 4.056a5.737 5.737 0 0 0 .128 1.132 4.274 4.274 0 0 0 4.153 3.241c2.924 0 4.625-2.388 4.625-5.881 0-3.053-1.6-5.656-4.529-5.656a4.426 4.426 0 0 0-4.185 3.429 4.4 4.4 0 0 0-.188 1.132v2.6zm14.525-16.13h2.768v22.324h-2.768zm8.333 15.217c.06 3.74 2.452 5.285 5.216 5.285a10 10 0 0 0 4.212-.784l.472 1.98a12.307 12.307 0 0 1-5.06.944c-4.684 0-7.485-3.08-7.485-7.673s2.7-8.209 7.137-8.209c4.969 0 6.289 4.368 6.289 7.169a9.383 9.383 0 0 1-.1 1.288H100.3zm8.113-1.98c.032-1.76-.724-4.5-3.836-4.5-2.8 0-4.024 2.581-4.244 4.5z"/></g></svg>