<?xml version="1.0" standalone="no"?>
<!DOCTYPE svg PUBLIC "-//W3C//DTD SVG 1.1//EN" "http://www.w3.org/Graphics/SVG/1.1/DTD/svg11.dtd" >
<svg xmlns="http://www.w3.org/2000/svg" xmlns:xlink="http://www.w3.org/1999/xlink" version="1.1">
<metadata>
Created by FontForge 20170731 at Wed Jul  6 13:48:23 2022
 By Aleksey,,,
Copyright (c) 2014 by Luzi Gantenbein. All rights reserved.
</metadata>
<defs>
<font id="BuenosAires-Light" horiz-adv-x="1122" >
  <font-face 
    font-family="Buenos Aires Light"
    font-weight="300"
    font-stretch="normal"
    units-per-em="2048"
    panose-1="0 0 6 0 0 0 0 0 0 0"
    ascent="1638"
    descent="-410"
    x-height="971"
    cap-height="1348"
    bbox="-143 -512 2658 1942"
    underline-thickness="102"
    underline-position="-511"
    unicode-range="U+000D-FB03"
  />
<missing-glyph horiz-adv-x="593" 
 />
    <glyph glyph-name="ff" unicode="ff" horiz-adv-x="1382" 
d="M1198 1253q-63 0 -101 -41t-38 -120v-121h250v-135h-250v-836h-146v836h-538v-836h-146v836h-168v135h168v125q0 135 77.5 210.5t197.5 75.5q131 0 219 -82l-78 -104q-57 57 -131 57q-63 0 -101 -41t-38 -120v-121h538v125q0 135 77.5 210.5t197.5 75.5q131 0 219 -82
l-78 -104q-57 57 -131 57z" />
    <glyph glyph-name="fi" unicode="fi" horiz-adv-x="1222" 
d="M1079 971v-971h-145v836h-559v-836h-146v836h-168v135h168v125q0 135 77.5 210.5t197.5 75.5q131 0 219 -82l-78 -104q-57 57 -131 57q-63 0 -101 -41t-38 -120v-121h704z" />
    <glyph glyph-name="fl" unicode="fl" horiz-adv-x="1370" 
d="M1309 127l51 -107q-76 -40 -166 -40q-116 0 -189 75.5t-73 218.5v562h-557v-836h-146v836h-168v135h168v125q0 135 77.5 210.5t197.5 75.5q131 0 219 -82l-78 -104q-57 57 -131 57q-63 0 -101 -41t-38 -120v-121h557v377h145v-1076q0 -83 38 -124.5t102 -41.5q39 0 92 21
z" />
    <glyph glyph-name="ffi" unicode="ffi" horiz-adv-x="1923" 
d="M1780 971v-971h-146v836h-557v-836h-145v836h-557v-836h-146v836h-168v135h168v125q0 135 77.5 210.5t197.5 75.5q131 0 219 -82l-78 -104q-57 57 -131 57q-63 0 -101 -41t-38 -120v-121h557v125q0 135 77 210.5t197 75.5q131 0 219 -82l-77 -104q-57 57 -131 57
q-63 0 -101.5 -41t-38.5 -120v-121h703z" />
    <glyph glyph-name="f_t" unicode="ft" horiz-adv-x="1484" 
d="M1356 160l67 -97q-89 -83 -215 -83q-122 0 -198 75.5t-76 218.5v562h-559v-836h-146v836h-168v135h168v125q0 135 77.5 210.5t197.5 75.5q131 0 219 -82l-78 -104q-57 57 -131 57q-63 0 -101 -41t-38 -120v-121h559v248h145v-248h242v-135h-242v-564q0 -80 38 -123
t102 -43q77 0 137 54z" />
    <glyph glyph-name="t_t" unicode="tt" horiz-adv-x="1499" 
d="M1370 160l68 -97q-89 -83 -215 -83q-122 0 -198.5 76t-76.5 218v562h-557v-564q0 -80 37.5 -123t101.5 -43q78 0 138 54l67 -97q-89 -83 -215 -83q-122 0 -198 75.5t-76 218.5v562h-185v135h185v248h145v-248h557v248h146v-248h241v-135h-241v-564q0 -80 37.5 -123
t101.5 -43q77 0 137 54z" />
    <glyph glyph-name="tz" unicode="tz" horiz-adv-x="1613" 
d="M1491 971v-140l-434 -477q208 -19 320 -116t112 -263q0 -196 -139 -311q-142 -115 -338 -115q-135 0 -247 59.5t-179 168.5l121 88q117 -182 321 -182q130 0 221 73q90 75 90 201q0 131 -107.5 205t-313.5 74h-31v129l413 471h-864v-836h-145v836h-230v135h230v248h145
v-248h1055z" />
    <glyph glyph-name=".notdef" horiz-adv-x="593" 
 />
    <glyph glyph-name=".null" horiz-adv-x="0" 
 />
    <glyph glyph-name="nonmarkingreturn" horiz-adv-x="681" 
 />
    <glyph glyph-name="CR" unicode="&#xd;" horiz-adv-x="552" 
 />
    <glyph glyph-name="space" unicode=" " horiz-adv-x="450" 
 />
    <glyph glyph-name="exclam" unicode="!" horiz-adv-x="598" 
d="M434 94q0 -47 -34 -80.5t-81 -33.5t-80.5 33.5t-33.5 80.5q0 49 33 82t81 33t81.5 -33t33.5 -82zM383 387h-127l-23 1030h173z" />
    <glyph glyph-name="quotedbl" unicode="&#x22;" horiz-adv-x="573" 
d="M492 1382v-370h-142v370h142zM225 1382v-370h-143v370h143z" />
    <glyph glyph-name="numbersign" unicode="#" horiz-adv-x="1404" 
d="M846 492l61 399h-354l-64 -399h357zM1323 891h-276l-62 -399h268v-140h-290l-45 -289h-140l45 289h-356l-45 -289h-137l45 289h-248v140h270l62 399h-277v139h299l45 291h140l-46 -291h355l45 291h139l-45 -291h254v-139z" />
    <glyph glyph-name="dollar" unicode="$" horiz-adv-x="1120" 
d="M1018 354q0 -156 -105.5 -258t-273.5 -123v-174h-121v172q-120 8 -231.5 59.5t-184.5 135.5l107 117q60 -83 156.5 -128.5t201.5 -45.5q125 0 210 65t85 168q0 88 -63.5 141.5t-208.5 106.5q-211 78 -285 131q-147 105 -147 287q0 158 99.5 254t260.5 116v176h121v-174
q190 -21 315 -137l-88 -113q-108 117 -284 117q-121 0 -198 -59t-77 -168q8 -84 42 -133.5t112 -87.5q75 -36 88 -41q9 -4 23 -9t37.5 -14t41.5 -16q60 -20 137 -53q41 -20 111 -66q119 -83 119 -246z" />
    <glyph glyph-name="percent" unicode="%" horiz-adv-x="1927" 
d="M1305 309q0 -84 56 -140t136 -56q85 0 138 55t53 141q0 88 -53 143.5t-138 55.5q-82 0 -137 -56.5t-55 -142.5zM1155 309q0 148 100 248q99 102 242 102q146 0 248 -102q100 -100 100 -248q0 -142 -100 -239q-101 -101 -248 -101q-144 0 -242 101q-100 97 -100 239z
M328 1171q-56 -59 -56 -143q0 -86 58 -141q56 -56 135 -56q84 0 137 55t53 142q0 88 -52.5 143.5t-137.5 55.5q-81 0 -137 -56zM592 100l-103 84l920 1116l104 -81zM123 1028q0 148 100 248q99 102 242 102q146 0 248 -102q100 -100 100 -248q0 -143 -100 -240
q-100 -100 -248 -100q-145 0 -242 100q-100 97 -100 240z" />
    <glyph glyph-name="ampersand" unicode="&#x26;" horiz-adv-x="1376" 
d="M627 104q198 0 303 144l-371 401q-119 -25 -183.5 -99.5t-64.5 -170.5q0 -110 86 -193q82 -82 230 -82zM647 1262q-85 0 -144 -55t-59 -146q0 -69 36.5 -128t125.5 -145q113 25 174.5 103.5t61.5 175.5q0 88 -56.5 141.5t-138.5 53.5zM1294 66l-108 -97l-176 189
q-177 -189 -404 -189q-205 0 -323 121q-119 119 -119 279q0 128 81.5 229.5t225.5 138.5q-108 120 -133 172q-35 72 -35 152q0 151 103 237q104 84 237 84q135 0 236 -82q98 -82 98 -227q0 -119 -71.5 -218.5t-200.5 -152.5l303 -323q64 109 84 209l122 -25
q-18 -89 -67 -184q-6 -11 -29 -55t-24 -48z" />
    <glyph glyph-name="quotesingle" unicode="'" horiz-adv-x="305" 
d="M223 1382v-370h-141v370h141z" />
    <glyph glyph-name="parenleft" unicode="(" horiz-adv-x="593" 
d="M463 1593l110 -98q-181 -193 -270 -391q-90 -200 -90 -455q0 -254 90 -454t270 -392l-110 -98q-202 216 -302 443t-100 501t100 501t302 443z" />
    <glyph glyph-name="parenright" unicode=")" horiz-adv-x="593" 
d="M0 1495l111 98q202 -215 301.5 -442.5t99.5 -501.5t-99.5 -501.5t-301.5 -442.5l-111 98q184 196 272 392q88 195 88 454q0 260 -88 455q-88 194 -272 391z" />
    <glyph glyph-name="asterisk" unicode="*" horiz-adv-x="937" 
d="M578 979l165 -211l-120 -86l-154 225l-156 -225l-116 86l163 211l-258 84l43 133l258 -88l-4 274h148l-12 -274l258 88l43 -133z" />
    <glyph glyph-name="plus" unicode="+" horiz-adv-x="907" 
d="M805 492h-281v-285h-141v285h-281v135h281v284h141v-284h281v-135z" />
    <glyph glyph-name="comma" unicode="," horiz-adv-x="468" 
d="M61 -283l177 529l170 -64l-230 -512z" />
    <glyph glyph-name="hyphen" unicode="-" horiz-adv-x="788" 
d="M123 629h543v-135h-543v135z" />
    <glyph glyph-name="period" unicode="." horiz-adv-x="434" 
d="M102 94q0 49 33.5 82t81.5 33t81.5 -33t33.5 -82q0 -47 -34 -80.5t-81 -33.5t-81 33.5t-34 80.5z" />
    <glyph glyph-name="slash" unicode="/" horiz-adv-x="690" 
d="M137 -29l-117 45l533 1360l117 -45z" />
    <glyph glyph-name="zero" unicode="0" horiz-adv-x="1191" 
d="M340 272q82 -159 256 -159t256 159q84 162 84 404q0 241 -84 403q-83 160 -256 160t-256 -160q-84 -162 -84 -403q0 -242 84 -404zM874 70q-113 -101 -278 -101q-166 0 -279 101q-114 102 -163 256q-52 152 -52 350q0 197 52 352q49 152 163 254q112 100 279 100
q166 0 278 -100q114 -102 166 -254q50 -158 50 -352q0 -195 -50 -350q-52 -154 -166 -256z" />
    <glyph glyph-name="one" unicode="1" horiz-adv-x="663" 
d="M307 0v1208h-184v140h336v-1348h-152z" />
    <glyph glyph-name="two" unicode="2" horiz-adv-x="1017" 
d="M915 139v-139h-839v137l450 486q119 131 168 213.5t49 169.5q0 112 -74.5 177.5t-183.5 65.5q-102 0 -182.5 -59.5t-114.5 -171.5l-127 47q42 149 162 233t273 84q161 0 280 -96q115 -100 115 -276q0 -116 -60.5 -225.5t-207.5 -264.5l-359 -381h651z" />
    <glyph glyph-name="three" unicode="3" horiz-adv-x="1038" 
d="M637 707q143 -30 221 -124t78 -225q0 -178 -137 -282q-137 -107 -322 -107q-140 0 -258 63.5t-178 178.5l125 88q43 -89 134.5 -139.5t195.5 -50.5q118 0 204 65t86 176q0 120 -105.5 193t-307.5 73v152q163 0 258 86q92 83 92 190q0 88 -64.5 145.5t-171.5 57.5
q-89 0 -167.5 -40t-120.5 -113l-105 84q66 98 169.5 151t221.5 53q158 0 273 -92q114 -91 114 -246q0 -112 -62 -202.5t-173 -134.5z" />
    <glyph glyph-name="four" unicode="4" horiz-adv-x="1116" 
d="M666 1116l-457 -653h457v653zM817 1348v-885h217v-139h-217v-324h-151v324h-625v139l608 885h168z" />
    <glyph glyph-name="five" unicode="5" horiz-adv-x="1142" 
d="M621 893q196 0 309 -125q110 -125 110 -307q0 -196 -125 -342q-126 -150 -354 -150q-155 0 -274.5 75.5t-184.5 219.5l138 72q95 -232 329 -232q154 0 242 101q86 103 86 235q0 129 -80 224q-79 94 -225 94q-175 0 -287 -121h-119v711h742v-140h-602v-417
q117 102 295 102z" />
    <glyph glyph-name="six" unicode="6" horiz-adv-x="1171" 
d="M610 104q135 0 224.5 86t89.5 240q0 152 -86 240t-222 88q-127 0 -231 -84q-100 -81 -100 -242q0 -152 96 -239q95 -89 229 -89zM643 893q177 0 303 -123q123 -123 123 -326q0 -217 -141 -346t-332 -129q-203 0 -348 160q-146 158 -146 467q0 348 193 565
q190 217 547 217l8 -137q-227 0 -389 -115q-88 -62 -141.5 -176t-65.5 -270q53 100 160 156.5t229 56.5z" />
    <glyph glyph-name="seven" unicode="7" horiz-adv-x="1024" 
d="M983 1348v-160l-584 -1188h-163l595 1188h-790v160h942z" />
    <glyph glyph-name="eight" unicode="8" horiz-adv-x="1161" 
d="M584 104q138 0 227.5 66.5t89.5 173.5q0 101 -89.5 175t-276.5 132q-132 -41 -203.5 -116.5t-71.5 -169.5q0 -109 89.5 -185t234.5 -76zM317 1026q0 -94 73.5 -154.5t227.5 -103.5q103 31 163.5 106t60.5 160q0 97 -75 158t-181 61q-114 0 -191.5 -61t-77.5 -166z
M748 711q141 -49 221 -146t80 -215q0 -153 -125 -266q-127 -115 -346 -115q-218 0 -340 113q-125 110 -125 264q0 120 78 219t215 146q-110 49 -172 133t-62 184q0 168 125 262q127 92 293 92q159 0 280 -92q119 -91 119 -256q0 -107 -62 -191.5t-179 -131.5z" />
    <glyph glyph-name="nine" unicode="9" horiz-adv-x="1150" 
d="M520 1243q-135 0 -224 -85.5t-89 -239.5q0 -152 85.5 -240t221.5 -88q127 0 231 84q101 82 101 241q0 154 -94 242q-95 86 -232 86zM487 455q-178 0 -301 123q-125 122 -125 325q0 216 142 346q141 129 332 129q205 0 350 -157q143 -158 143 -469q0 -349 -190 -566
q-193 -217 -549 -217l-8 137q227 0 391 117q86 61 139.5 175t65.5 270q-53 -100 -160.5 -156.5t-229.5 -56.5z" />
    <glyph glyph-name="colon" unicode=":" horiz-adv-x="475" 
d="M164 195q0 49 33.5 81.5t81.5 32.5t81 -32.5t33 -81.5q0 -47 -33.5 -81t-80.5 -34t-81 34t-34 81zM164 881q0 49 33.5 81.5t81.5 32.5t81 -32.5t33 -81.5q0 -47 -33.5 -81t-80.5 -34t-81 34t-34 81z" />
    <glyph glyph-name="semicolon" unicode=";" horiz-adv-x="548" 
d="M82 -283l176 529l170 -64l-229 -512zM238 825q0 49 33 82t81 33t81.5 -33t33.5 -82q0 -47 -34 -80.5t-81 -33.5t-80.5 33.5t-33.5 80.5z" />
    <glyph glyph-name="less" unicode="&#x3c;" horiz-adv-x="739" 
d="M569 -31l-467 518l467 519l109 -103l-379 -416l379 -415z" />
    <glyph glyph-name="equal" unicode="=" horiz-adv-x="909" 
d="M102 360v136h705v-136h-705zM102 623v135h705v-135h-705z" />
    <glyph glyph-name="greater" unicode="&#x3e;" horiz-adv-x="739" 
d="M190 -31l-108 103l379 415l-379 416l108 103l467 -519z" />
    <glyph glyph-name="question" unicode="?" horiz-adv-x="1019" 
d="M346 176q25 25 59.5 30t64 -6.5t50.5 -39.5t21 -64q0 -49 -33.5 -82.5t-81.5 -33.5t-81.5 33.5t-33.5 82.5q0 45 35 80zM520 1382q182 0 289 -110q109 -115 109 -262q0 -145 -107 -258t-307 -131v-256h-152v368h90q155 0 242 84q86 83 86 193q0 102 -71.5 170.5
t-190.5 68.5q-198 0 -293 -188l-113 74q59 117 171 182t247 65z" />
    <glyph glyph-name="at" unicode="@" horiz-adv-x="1501" 
d="M705 309q81 0 129.5 57.5t48.5 149.5q0 88 -48.5 141.5t-127.5 53.5q-84 0 -135.5 -57.5t-51.5 -139.5q0 -83 51 -144t134 -61zM764 1159q256 0 446 -158q189 -160 189 -436q0 -168 -71 -270t-193 -102q-75 0 -128.5 40t-66.5 111q-33 -75 -100 -117.5t-156 -42.5
q-142 0 -225 99q-84 101 -84 229t84 229q85 97 225 97q155 0 225 -125v102h148v-362q0 -134 90 -134q60 0 93.5 59.5t33.5 164.5q0 227 -150 356t-362 129q-216 0 -381 -139q-162 -137 -162 -383q0 -205 121 -350q122 -146 332 -146q161 0 274 84l74 -100
q-129 -117 -356 -117q-268 0 -424 184q-158 184 -158 445q0 203 102 356q104 153 254 225q153 72 326 72z" />
    <glyph glyph-name="A" unicode="A" horiz-adv-x="1316" 
d="M901 510l-244 655l-243 -655h487zM954 371h-592l-137 -371h-164l527 1348h143l524 -1348h-163z" />
    <glyph glyph-name="B" unicode="B" horiz-adv-x="1185" 
d="M336 627v-488h307q123 0 194.5 69.5t71.5 172.5q0 104 -76 175t-202 71h-295zM336 1208v-442h254q115 0 186.5 67.5t71.5 163.5q0 90 -66 150.5t-180 60.5h-266zM827 719q113 -40 174.5 -128.5t61.5 -199.5q0 -155 -117 -272q-119 -119 -325 -119h-437v1348h441
q176 0 278 -97q98 -94 98 -233q0 -93 -45.5 -174.5t-128.5 -124.5z" />
    <glyph glyph-name="C" unicode="C" horiz-adv-x="1445" 
d="M1251 399l113 -73q-93 -167 -245 -262t-331 -95q-252 0 -452 178q-99 86 -156 225.5t-57 303.5q0 168 59.5 306.5t161.5 227.5q199 172 469 172q307 0 494 -211l-105 -108q-156 178 -389 178q-235 0 -385 -147q-154 -151 -154 -410q0 -265 160 -416q159 -153 369 -153
q142 0 261.5 74.5t186.5 209.5z" />
    <glyph glyph-name="D" unicode="D" horiz-adv-x="1435" 
d="M621 1210h-285v-1071h285q128 0 233.5 46t172 122t101.5 172t31 197q0 218 -141 377q-145 157 -397 157zM184 0v1348h432q214 0 378.5 -95.5t242.5 -248.5q76 -149 76 -322q0 -130 -45 -250.5t-129.5 -217.5t-221 -155.5t-305.5 -58.5h-428z" />
    <glyph glyph-name="E" unicode="E" 
d="M963 1208h-627v-460h512v-140h-512v-469h643v-139h-795v1348h779v-140z" />
    <glyph glyph-name="F" unicode="F" horiz-adv-x="1105" 
d="M963 1208h-627v-460h512v-140h-512v-608h-152v1348h779v-140z" />
    <glyph glyph-name="G" unicode="G" horiz-adv-x="1456" 
d="M819 700h475v-542q-213 -189 -495 -189q-182 0 -332 80t-246 240q-98 162 -98 383q0 167 58 305.5t159 226.5q202 174 465 174q143 0 275 -55t223 -156l-105 -106q-156 178 -401 178q-222 0 -371 -149q-152 -152 -152 -406q0 -267 160 -418q159 -153 381 -153
q190 0 330 104v346h-326v137z" />
    <glyph glyph-name="H" unicode="H" horiz-adv-x="1400" 
d="M184 0v1348h152v-600h729v600h152v-1348h-152v606h-729v-606h-152z" />
    <glyph glyph-name="I" unicode="I" horiz-adv-x="520" 
d="M184 0v1348h152v-1348h-152z" />
    <glyph glyph-name="J" unicode="J" horiz-adv-x="1013" 
d="M698 1348h152v-969q0 -193 -117 -301q-121 -109 -280 -109q-141 0 -256 86q-115 83 -136 256l146 31q18 -123 82.5 -180.5t161.5 -57.5q114 0 180.5 75.5t66.5 213.5v955z" />
    <glyph glyph-name="K" unicode="K" horiz-adv-x="1245" 
d="M963 0l-627 639v-639h-152v1348h152v-629l627 629h192l-647 -660l676 -688h-221z" />
    <glyph glyph-name="L" unicode="L" horiz-adv-x="1030" 
d="M184 1348h152v-1209h612v-139h-764v1348z" />
    <glyph glyph-name="M" unicode="M" horiz-adv-x="1695" 
d="M184 0v1348h168l496 -856l495 856h168v-1348h-151v1059l-447 -756h-131l-446 756v-1059h-152z" />
    <glyph glyph-name="N" unicode="N" horiz-adv-x="1445" 
d="M184 0v1348h152l774 -1072v1072h152v-1348h-152l-774 1083v-1083h-152z" />
    <glyph glyph-name="O" unicode="O" horiz-adv-x="1638" 
d="M1204 1075q-157 160 -385 160t-385 -160q-158 -166 -158 -401q0 -239 158 -400q154 -161 385 -161t385 161q158 161 158 400q0 235 -158 401zM324 1176q199 202 495 202q299 0 498 -202t199 -502t-199 -502q-200 -203 -498 -203q-295 0 -495 203q-201 204 -201 502
t201 502z" />
    <glyph glyph-name="P" unicode="P" horiz-adv-x="1095" 
d="M336 1208v-471h244q135 0 208.5 69.5t73.5 174.5q0 101 -69 164t-199 63h-258zM184 0v1348h420q198 0 305 -107q105 -108 105 -258q0 -157 -113 -270q-115 -115 -313 -115h-252v-598h-152z" />
    <glyph glyph-name="Q" unicode="Q" horiz-adv-x="1638" 
d="M434 1075q-158 -166 -158 -401q0 -239 158 -400q154 -161 385 -161t385 161q158 161 158 400q0 235 -158 401q-157 160 -385 160t-385 -160zM1151 49q101 -140 297 -190l-64 -160q-257 79 -378 293q-104 -23 -187 -23q-295 0 -495 203q-201 204 -201 502t201 502
q199 202 495 202q299 0 498 -202t199 -502q0 -203 -98.5 -370t-266.5 -255z" />
    <glyph glyph-name="R" unicode="R" horiz-adv-x="1200" 
d="M336 1208v-448h268q118 0 189 71q69 69 69 160q0 94 -70 155.5t-190 61.5h-266zM944 0l-379 625h-229v-625h-152v1348h424q192 0 300 -95.5t108 -253.5q0 -121 -77.5 -218t-209.5 -132l399 -649h-184z" />
    <glyph glyph-name="S" unicode="S" horiz-adv-x="1120" 
d="M1018 354q0 -177 -133 -280q-132 -105 -322 -105q-130 0 -255 53t-206 144l107 117q60 -83 156.5 -128.5t201.5 -45.5q125 0 210 65t85 168q0 88 -63.5 141.5t-208.5 106.5q-211 78 -285 131q-147 105 -147 287q0 183 127 278q128 96 301 96q217 0 368 -139l-88 -113
q-108 117 -284 117q-121 0 -198 -59t-77 -168q8 -84 42 -133.5t112 -87.5q75 -36 88 -41q9 -4 23 -9t37.5 -14t41.5 -16q60 -20 137 -53q41 -20 111 -66q119 -83 119 -246z" />
    <glyph glyph-name="T" unicode="T" horiz-adv-x="1228" 
d="M690 1208v-1208h-151v1208h-478v140h1106v-140h-477z" />
    <glyph glyph-name="U" unicode="U" horiz-adv-x="1335" 
d="M1020 1348h151v-879q0 -239 -145 -369q-146 -131 -358 -131q-214 0 -357 131q-147 129 -147 369v879h151v-863q0 -181 103 -276q104 -96 250 -96t250 96q102 95 102 276v863z" />
    <glyph glyph-name="V" unicode="V" horiz-adv-x="1290" 
d="M1229 1348l-506 -1348h-156l-506 1348h166l418 -1127l418 1127h166z" />
    <glyph glyph-name="W" unicode="W" horiz-adv-x="1955" 
d="M1915 1348l-451 -1348h-157l-330 1065l-328 -1065h-157l-451 1348h166l362 -1121l336 1121h146l335 -1121l363 1121h166z" />
    <glyph glyph-name="X" unicode="X" horiz-adv-x="1327" 
d="M61 0l512 690l-467 658h183l387 -539l387 539h192l-489 -662l500 -686h-205l-399 565l-408 -565h-193z" />
    <glyph glyph-name="Y" unicode="Y" horiz-adv-x="1245" 
d="M698 573v-573h-151v573l-506 775h178l404 -637l403 637h178z" />
    <glyph glyph-name="Z" unicode="Z" horiz-adv-x="1171" 
d="M102 0v127l756 1081h-719v140h901v-125l-753 -1084h782v-139h-967z" />
    <glyph glyph-name="bracketleft" unicode="[" horiz-adv-x="555" 
d="M514 -301h-350v1819h350v-136h-199v-1548h199v-135z" />
    <glyph glyph-name="backslash" unicode="\" horiz-adv-x="696" 
d="M20 1331l117 45l539 -1360l-117 -45z" />
    <glyph glyph-name="bracketright" unicode="]" horiz-adv-x="575" 
d="M41 -301v135h199v1548h-199v136h350v-1819h-350z" />
    <glyph glyph-name="asciicircum" unicode="^" horiz-adv-x="1024" 
d="M963 903l-103 -102l-348 362l-348 -362l-103 102l451 479z" />
    <glyph glyph-name="underscore" unicode="_" horiz-adv-x="931" 
d="M102 135h727v-135h-727v135z" />
    <glyph glyph-name="grave" unicode="`" horiz-adv-x="464" 
d="M420 1155l-420 129l43 146l422 -132z" />
    <glyph glyph-name="a" unicode="a" horiz-adv-x="1318" 
d="M352 217q104 -98 235.5 -98t235.5 98q103 95 103 266q0 174 -107 275q-107 98 -244 98q-133 0 -229 -96q-98 -98 -98 -268q0 -177 104 -275zM1229 133l49 -100q-55 -49 -133 -49q-84 0 -144 49.5t-67 138.5q-50 -85 -147 -137.5t-209 -52.5q-187 0 -330 137
q-146 137 -146 373q0 233 146 370q145 133 330 133q102 0 195.5 -45t152.5 -125v146h145v-740q0 -54 26 -85t66 -31q29 0 66 18z" />
    <glyph glyph-name="b" unicode="b" horiz-adv-x="1234" 
d="M408 213q98 -94 237 -94q141 0 242 98q100 93 100 272q0 173 -94 271t-234 98t-245 -102t-105 -279q0 -169 99 -264zM678 995q190 0 321 -131q134 -134 134 -370q0 -244 -142 -377q-141 -135 -340 -135q-100 0 -192.5 43t-149.5 116v-141h-145v1348h145v-545
q131 192 369 192z" />
    <glyph glyph-name="c" unicode="c" horiz-adv-x="1067" 
d="M901 313l105 -73q-66 -123 -179 -191.5t-247 -68.5q-196 0 -336 137q-142 136 -142 368q0 239 148 375q147 135 344 135q240 0 377 -186l-109 -92q-94 143 -268 143q-142 0 -242 -100q-104 -101 -104 -264q0 -154 94 -267q91 -114 248 -114q210 0 311 198z" />
    <glyph glyph-name="d" unicode="d" horiz-adv-x="1234" 
d="M598 119q130 0 231 96q97 97 97 264q0 176 -103 279q-103 100 -243 100q-136 0 -234 -94t-98 -268q0 -180 106 -277q103 -100 244 -100zM1071 1348v-1348h-145v143q-55 -75 -144.5 -118t-189.5 -43q-199 0 -342 137q-148 136 -148 375t148 372q144 129 340 129
q100 0 188.5 -43.5t147.5 -124.5v521h145z" />
    <glyph glyph-name="e" unicode="e" horiz-adv-x="1116" 
d="M256 553h604q-1 146 -84.5 226.5t-208.5 80.5q-126 0 -212.5 -82t-98.5 -225zM901 272l96 -90q-166 -205 -415 -205q-202 0 -340 138q-140 140 -140 372q0 240 144 375q142 133 342 133q201 0 315 -135q111 -135 111 -332q0 -63 -8 -110h-744q18 -148 107.5 -225.5
t226.5 -77.5q196 0 305 157z" />
    <glyph glyph-name="f" unicode="f" horiz-adv-x="698" 
d="M61 971h168v125q0 135 77.5 210.5t197.5 75.5q131 0 219 -82l-78 -104q-57 57 -131 57q-63 0 -101 -41t-38 -120v-121h250v-135h-250v-836h-146v836h-168v135z" />
    <glyph glyph-name="g" unicode="g" horiz-adv-x="1214" 
d="M590 168q134 0 235 88t101 246q0 166 -107 260t-246 94q-133 0 -229 -90q-96 -93 -96 -250q0 -168 102 -256q103 -92 240 -92zM926 971h145v-955q0 -222 -137 -344q-138 -123 -338 -123q-168 0 -297.5 87t-175.5 239l139 55q35 -116 124.5 -180.5t211.5 -64.5
q144 0 237 85t93 236v189q-117 -164 -348 -164q-193 0 -334 129q-144 129 -144 356q0 225 142 352t334 127q222 0 348 -166v142z" />
    <glyph glyph-name="h" unicode="h" horiz-adv-x="1157" 
d="M647 995q145 0 246 -94q100 -93 100 -268v-633h-145v598q0 121 -65 189.5t-165 68.5q-119 0 -215 -96q-94 -98 -94 -266v-494h-145v1348h145v-553q50 96 140.5 148t197.5 52z" />
    <glyph glyph-name="i" unicode="i" horiz-adv-x="507" 
d="M182 0v971h146v-971h-146zM176 1188q-32 32 -32 77.5t32 77.5t78 32t78 -32t32 -77.5t-32 -77.5t-78 -32t-78 32z" />
    <glyph glyph-name="j" unicode="j" horiz-adv-x="501" 
d="M176 973h146v-1129q0 -135 -77 -215t-190 -80q-114 0 -198 84l71 105q51 -57 125 -57q56 0 89.5 40t33.5 113v1139zM170 1188q-32 32 -32 77.5t32 77.5q31 32 78.5 32t79.5 -32q31 -32 31 -77.5t-31 -77.5q-32 -32 -79.5 -32t-78.5 32z" />
    <glyph glyph-name="k" unicode="k" horiz-adv-x="1056" 
d="M799 0l-490 467v-467h-145v1348h145v-811l447 434h198l-483 -463l545 -508h-217z" />
    <glyph glyph-name="l" unicode="l" horiz-adv-x="602" 
d="M541 127l51 -107q-76 -40 -166 -40q-116 0 -189 75.5t-73 218.5v1074h145v-1076q0 -83 38 -124.5t102 -41.5q39 0 92 21z" />
    <glyph glyph-name="m" unicode="m" horiz-adv-x="1669" 
d="M1174 995q137 0 235 -88q96 -90 96 -250v-657h-145v608q0 115 -57 181.5t-146 66.5q-103 0 -176.5 -86.5t-73.5 -230.5v-539h-145v608q0 115 -57 181.5t-146 66.5q-104 0 -177 -87t-73 -230v-539h-145v971h145v-125q94 149 285 149q93 0 166.5 -47.5t105.5 -132.5
q42 84 125.5 132t182.5 48z" />
    <glyph glyph-name="n" unicode="n" horiz-adv-x="1157" 
d="M993 633v-633h-145v598q0 121 -65 189.5t-165 68.5q-119 0 -215 -96q-94 -98 -94 -266v-494h-145v971h145v-168q50 91 141.5 141.5t196.5 50.5q145 0 246 -94q100 -93 100 -268z" />
    <glyph glyph-name="o" unicode="o" horiz-adv-x="1196" 
d="M850 758q-98 104 -252 104t-252 -104q-98 -107 -98 -269q0 -164 98 -268q97 -106 252 -106t252 106q98 104 98 268q0 162 -98 269zM244 852q137 143 354 143q216 0 356 -143q140 -146 140 -365q0 -216 -140 -362q-142 -145 -356 -145q-215 0 -354 145q-142 145 -142 362
q0 220 142 365z" />
    <glyph glyph-name="p" unicode="p" horiz-adv-x="1234" 
d="M639 119q138 0 244 100q104 98 104 275q0 168 -98 262t-234 94q-140 0 -241 -98q-105 -102 -105 -275q0 -167 99 -262q96 -96 231 -96zM674 987q184 0 323 -127q136 -130 136 -362q0 -242 -146 -379t-344 -137q-220 0 -334 153v-561h-145v1397h145v-172q135 188 365 188z
" />
    <glyph glyph-name="q" unicode="q" horiz-adv-x="1234" 
d="M598 119q130 0 231 96q97 97 97 264q0 173 -103 273q-104 98 -243 98q-134 0 -234 -92q-98 -91 -98 -262q0 -180 106 -277q103 -100 244 -100zM1071 971v-1397h-145v576q-54 -80 -142 -124t-192 -44q-199 0 -342 137q-148 136 -148 375q0 235 146 366q145 127 342 127
q204 0 336 -156v140h145z" />
    <glyph glyph-name="r" unicode="r" horiz-adv-x="727" 
d="M549 983q81 0 137 -27l-33 -143q-58 27 -116 27q-104 0 -166 -73.5t-62 -201.5v-565h-145v971h145v-131q73 143 240 143z" />
    <glyph glyph-name="s" unicode="s" horiz-adv-x="940" 
d="M868 272q0 -139 -110 -215q-115 -77 -275 -77q-117 0 -225.5 42.5t-185.5 120.5l102 113q54 -66 143.5 -103.5t184.5 -37.5q97 0 157 38t60 101q0 35 -18.5 57t-53.5 45q-19 11 -110 35q-5 1 -27 7t-39 10q-81 19 -129.5 37t-103.5 49q-115 65 -115 211q0 143 108 217
q107 73 254 73q185 0 332 -108l-74 -109q-110 88 -266 88q-94 0 -151.5 -40.5t-57.5 -112.5q0 -70 53 -106t177 -64q179 -42 245 -72q125 -64 125 -199z" />
    <glyph glyph-name="t" unicode="t" horiz-adv-x="796" 
d="M668 160l67 -97q-89 -83 -215 -83q-122 0 -198 75.5t-76 218.5v562h-185v135h185v248h145v-248h242v-135h-242v-564q0 -80 37.5 -123t101.5 -43q78 0 138 54z" />
    <glyph glyph-name="u" unicode="u" 
d="M958 971v-971h-145v174q-102 -194 -321 -194q-142 0 -246 96q-103 95 -103 266v629h146v-594q0 -123 63.5 -191.5t161.5 -68.5q116 0 209 96q90 96 90 264v494h145z" />
    <glyph glyph-name="v" unicode="v" horiz-adv-x="1048" 
d="M987 971l-389 -971h-147l-390 971h164l299 -768l299 768h164z" />
    <glyph glyph-name="w" unicode="w" horiz-adv-x="1697" 
d="M1636 971l-356 -971h-156l-274 780l-277 -780h-155l-357 971h166l269 -770l270 770h166l270 -770l268 770h166z" />
    <glyph glyph-name="x" unicode="x" horiz-adv-x="1052" 
d="M621 487l391 -487h-191l-295 371l-295 -371h-190l391 487l-391 484h199l286 -365l287 365h199z" />
    <glyph glyph-name="y" unicode="y" horiz-adv-x="1171" 
d="M862 971h146v-946q0 -225 -122.5 -350.5t-324.5 -125.5q-163 0 -287 83t-172 239l140 53q37 -118 123 -178.5t200 -60.5q139 0 219.5 87t79.5 244l-2 181q-49 -90 -134 -138.5t-189 -48.5q-149 0 -260 99q-113 98 -113 268v594h145v-563q0 -126 64 -193.5t172 -67.5
q137 0 226 98.5t89 266.5v459z" />
    <glyph glyph-name="z" unicode="z" horiz-adv-x="1019" 
d="M928 139v-139h-836v139l613 695h-590v137h782v-137l-612 -695h643z" />
    <glyph glyph-name="braceleft" unicode="{" horiz-adv-x="688" 
d="M387 434v-465q0 -116 158 -116l-17 -125q-280 0 -280 237v428q0 74 -43.5 117t-122.5 43v127q79 0 122.5 43t43.5 117v430q0 235 280 235l17 -125q-158 0 -158 -116v-465q0 -68 -38 -116.5t-99 -66.5q62 -18 99.5 -66.5t37.5 -115.5z" />
    <glyph glyph-name="bar" unicode="|" horiz-adv-x="561" 
d="M356 1434v-1694h-151v1694h151z" />
    <glyph glyph-name="braceright" unicode="}" horiz-adv-x="688" 
d="M301 -31v465q0 67 37.5 115.5t99.5 66.5q-61 18 -99 66.5t-38 116.5v465q0 116 -158 116l17 125q280 0 280 -235v-430q0 -74 43.5 -117t122.5 -43v-127q-79 0 -122.5 -43t-43.5 -117v-428q0 -237 -280 -237l-17 125q158 0 158 116z" />
    <glyph glyph-name="asciitilde" unicode="~" horiz-adv-x="1245" 
d="M1038 772l125 -67q-114 -271 -307 -271q-45 -2 -95.5 18.5t-94 50.5t-85.5 60.5t-84 51t-75 18.5q-117 0 -215 -180l-125 77q126 258 334 258q67 0 136 -27.5t118 -66.5q114 -94 184 -94q108 0 184 172z" />
    <glyph glyph-name="exclamdown" unicode="&#xa1;" horiz-adv-x="536" 
d="M342 791l23 -1031h-172l22 1031h127zM393 1083q0 -49 -33 -81.5t-81 -32.5t-81.5 32.5t-33.5 81.5q0 47 34 81t81 34t80.5 -34t33.5 -81z" />
    <glyph glyph-name="cent" unicode="&#xa2;" horiz-adv-x="1067" 
d="M901 313l105 -73q-56 -107 -151 -172.5t-210 -83.5v-185h-121v185q-176 21 -299 153t-123 348q0 219 123 351q122 131 299 155v172h121v-170q206 -21 326 -184l-109 -92q-94 143 -268 143q-142 0 -242 -100q-104 -101 -104 -264q0 -154 94 -267q91 -114 248 -114
q210 0 311 198z" />
    <glyph glyph-name="sterling" unicode="&#xa3;" horiz-adv-x="1163" 
d="M248 92q102 0 137 135q-71 68 -133 68q-48 0 -76.5 -28t-28.5 -77q0 -42 27.5 -70t73.5 -28zM1034 264l109 -67q-108 -230 -316 -230q-153 0 -340 166q-83 -164 -245 -164q-101 0 -161.5 64t-60.5 155q0 95 63 161.5t165 66.5q86 0 160 -68q16 131 16 187v239h-211v115
h209v198q0 138 77 216.5t197 78.5q125 0 215 -84l-73 -102q-60 57 -138 57q-62 0 -97.5 -42t-35.5 -121v-201h312v-115h-312v-239q0 -191 -28 -283q107 -83 170.5 -118.5t119.5 -35.5q62 0 117.5 44.5t87.5 121.5z" />
    <glyph glyph-name="currency" unicode="&#xa4;" horiz-adv-x="1300" 
d="M446 346q81 -84 203 -84t203 84q80 83 80 209q0 128 -80 211q-79 82 -203 82t-203 -82t-79 -211q0 -127 79 -209zM1073 555q0 -146 -76 -256l222 -219l-93 -92l-215 217q-116 -90 -262 -90q-149 0 -262 88l-213 -215l-92 92l219 217q-76 113 -76 258q0 142 78 258
l-221 219l92 92l215 -217q113 88 260 88q149 0 262 -88l215 217l93 -92l-222 -219q76 -113 76 -258z" />
    <glyph glyph-name="yen" unicode="&#xa5;" horiz-adv-x="1245" 
d="M1204 1348l-495 -758h321v-113h-332v-194h332v-113h-332v-170h-151v170h-330v113h330v194h-330v113h320l-496 758h178l404 -637l403 637h178z" />
    <glyph glyph-name="brokenbar" unicode="&#xa6;" horiz-adv-x="561" 
d="M356 492v-752h-151v752h151zM356 1434v-752h-151v752h151z" />
    <glyph glyph-name="section" unicode="&#xa7;" horiz-adv-x="1120" 
d="M606 535q62 0 105 43t43 106q0 61 -43 104t-105 43q-63 0 -106 -42.5t-43 -104.5q0 -63 43 -106t106 -43zM883 588q135 -108 135 -254q0 -177 -131 -271t-316 -94q-138 0 -263 52t-206 145l107 121q62 -85 159 -131.5t205 -46.5q123 0 206 56.5t83 153.5q0 80 -65 142
q-82 -70 -191 -70q-124 0 -207 86q-86 83 -86 207l2 37q-161 124 -161 291q0 179 127 274q128 96 301 96q217 0 368 -139l-88 -113q-108 117 -284 117q-121 0 -198 -58.5t-77 -164.5q0 -93 74 -158q89 109 229 109q120 0 207 -84q84 -87 84 -207q0 -53 -14 -96z" />
    <glyph glyph-name="dieresis" unicode="&#xa8;" horiz-adv-x="669" 
d="M670 1270q0 -47 -33 -80t-80 -33t-79 33t-32 80q0 44 33.5 77t77.5 33q47 0 80 -32.5t33 -77.5zM223 1270q0 -47 -32 -80t-76 -33q-47 0 -81 33t-34 80q0 44 34 77t81 33q44 0 76 -33t32 -77z" />
    <glyph glyph-name="copyright" unicode="&#xa9;" horiz-adv-x="1667" 
d="M1047 590l116 -80q-49 -93 -137.5 -146t-189.5 -53q-145 0 -254 103t-109 274q0 176 109 279q107 98 260 98q183 0 293 -143l-107 -101q-60 97 -180 97q-91 0 -155 -63t-64 -165q0 -103 63 -166t152 -63q138 0 203 129zM418 248q169 -172 416 -172q246 0 415 172
q168 168 168 434q0 265 -168 436q-170 170 -415 170q-246 0 -416 -170q-168 -171 -168 -436q0 -266 168 -434zM326 1196q202 205 508 205q305 0 507 -205q203 -206 203 -514t-203 -514q-202 -205 -507 -205q-306 0 -508 205q-203 206 -203 514t203 514z" />
    <glyph glyph-name="ordfeminine" unicode="&#xaa;" horiz-adv-x="1085" 
d="M279 774q72 -75 168 -75t174 75q77 77 77 201q0 127 -75 199q-75 74 -172 74t-170 -74q-76 -73 -76 -199q0 -124 74 -201zM1006 727l38 -106q-51 -54 -133 -54q-70 0 -123.5 40.5t-70.5 111.5q-46 -72 -125 -112t-166 -40q-148 0 -256 111q-109 109 -109 293
q0 190 113 297q112 106 258 106q158 0 270 -112v100h142v-528q0 -125 88 -125q34 0 74 18z" />
    <glyph glyph-name="guillemotleft" unicode="&#xab;" horiz-adv-x="1073" 
d="M705 535l286 -340l-108 -95l-371 435l371 434l108 -95zM274 535l287 -340l-108 -95l-371 435l371 434l108 -95z" />
    <glyph glyph-name="logicalnot" unicode="&#xac;" horiz-adv-x="942" 
d="M102 629h738v-340h-146v205h-592v135z" />
    <glyph glyph-name="registered" unicode="&#xae;" horiz-adv-x="1667" 
d="M737 897v-180h127q48 0 73.5 26t25.5 66q0 39 -25 63.5t-72 24.5h-129zM1102 817q0 -71 -37 -124.5t-107 -76.5l168 -254h-170l-135 216h-84v-216h-141v670h268q107 0 172.5 -63t65.5 -152zM418 248q169 -172 416 -172q246 0 415 172q168 168 168 434q0 265 -168 436
q-170 170 -415 170q-246 0 -416 -170q-168 -171 -168 -436q0 -266 168 -434zM326 1196q202 205 508 205q305 0 507 -205q203 -206 203 -514t-203 -514q-202 -205 -507 -205q-306 0 -508 205q-203 206 -203 514t203 514z" />
    <glyph glyph-name="overscore" unicode="&#xaf;" horiz-adv-x="571" 
d="M0 1300h571v-145h-571v145z" />
    <glyph glyph-name="degree" unicode="&#xb0;" horiz-adv-x="894" 
d="M307 1171q-55 -58 -55 -143q0 -87 57 -141q56 -56 135 -56q84 0 137.5 55t53.5 142q0 88 -53 143.5t-138 55.5q-81 0 -137 -56zM102 1028q0 147 101 248q99 102 241 102q146 0 248 -102q101 -101 101 -248q0 -142 -101 -240q-100 -100 -248 -100q-144 0 -241 100
q-101 98 -101 240z" />
    <glyph glyph-name="plusminus" unicode="&#xb1;" horiz-adv-x="909" 
d="M102 205v135h705v-135h-705zM805 778h-281v-284h-141v284h-281v135h281v285h141v-285h281v-135z" />
    <glyph glyph-name="twosuperior" unicode="&#xb2;" horiz-adv-x="729" 
d="M627 791v-142h-482v113l142 147q29 29 45 49q7 7 22 25q3 3 41 51q43 53 43 101q0 38 -25 65t-63 27q-42 0 -77.5 -30.5t-47.5 -80.5l-123 47q23 96 96.5 151.5t168.5 55.5q96 0 160.5 -58.5t64.5 -154.5q0 -83 -55 -160q-20 -28 -76 -90q-10 -12 -24 -26.5t-17 -18.5
l-64 -71h271z" />
    <glyph glyph-name="threesuperior" unicode="&#xb3;" horiz-adv-x="733" 
d="M508 1026q123 -58 123 -168q0 -84 -76 -151q-77 -68 -188 -68q-163 0 -265 135l113 103q71 -95 152 -95q46 0 75 23.5t29 56.5q0 39 -39.5 67.5t-99.5 28.5h-35v113h31q49 0 80.5 26.5t31.5 63.5q0 24 -17 40.5t-43 21.5t-55 0.5t-56 -23t-42 -47.5l-98 82
q37 60 105 96.5t143 36.5q94 0 158.5 -50t64.5 -134q0 -108 -92 -158z" />
    <glyph glyph-name="acute" unicode="&#xb4;" horiz-adv-x="464" 
d="M0 1298l422 132l43 -146l-420 -129z" />
    <glyph glyph-name="paragraph" unicode="&#xb6;" horiz-adv-x="1116" 
d="M596 737v471h-94q-130 0 -199.5 -63t-69.5 -164q0 -105 74 -174.5t209 -69.5h80zM952 1348v-1348h-121v1208h-114v-1208h-121v598h-88q-196 0 -311 115t-115 270q0 152 106 258q104 107 304 107h460z" />
    <glyph glyph-name="middot" unicode="&#xb7;" horiz-adv-x="462" 
d="M141 766q37 37 91 37t92 -37q37 -38 37 -92t-37 -92q-38 -38 -92 -38t-91 38q-38 38 -38 92t38 92z" />
    <glyph glyph-name="cedilla" unicode="&#xb8;" horiz-adv-x="468" 
d="M199 49h110l-53 -147q213 -41 213 -187q0 -99 -66 -153t-170 -54q-138 0 -233 89l70 92q73 -70 151 -70q57 0 94 25.5t37 70.5q0 53 -49 81.5t-168 49.5z" />
    <glyph glyph-name="onesuperior" unicode="&#xb9;" horiz-adv-x="493" 
d="M244 651v568h-142v141h289v-709h-147z" />
    <glyph glyph-name="ordmasculine" unicode="&#xba;" horiz-adv-x="946" 
d="M666 1174q-76 79 -193 79q-116 0 -192 -79t-76 -201q0 -123 75.5 -203t192.5 -80t192.5 80t75.5 203t-75 201zM180 1264q115 118 293 118q177 0 295 -118q117 -120 117 -293t-117 -293q-119 -119 -295 -119q-177 0 -293 119q-119 119 -119 293t119 293z" />
    <glyph glyph-name="guillemotright" unicode="&#xbb;" horiz-adv-x="1114" 
d="M819 535l-287 339l109 95l371 -434l-371 -435l-109 95zM389 535l-287 339l109 95l371 -434l-371 -435l-109 95z" />
    <glyph glyph-name="onequarter" unicode="&#xbc;" horiz-adv-x="1501" 
d="M1141 276v254l-189 -254h189zM1419 276v-141h-139v-135h-139v135h-357v115l349 455h147v-429h139zM344 100l-102 84l919 1116l105 -81zM264 639v567h-141v142h289v-709h-148z" />
    <glyph glyph-name="onehalf" unicode="&#xbd;" horiz-adv-x="1460" 
d="M1378 143v-141h-481v113l141 147q29 29 45 49q13 13 23 25q3 3 41 51q43 53 43 100q0 38 -25.5 65.5t-62.5 27.5q-42 0 -77.5 -30.5t-47.5 -80.5l-123 47q23 96 96 151.5t168 55.5q96 0 160.5 -58.5t64.5 -154.5q0 -83 -55 -160q-20 -28 -76 -90q-10 -12 -24 -26.5
t-17 -18.5l-63 -72h270zM303 100l-102 84l919 1116l105 -81zM223 639v567h-141v142h289v-709h-148z" />
    <glyph glyph-name="threequarters" unicode="&#xbe;" horiz-adv-x="1607" 
d="M1247 276v254l-188 -254h188zM1526 276v-141h-140v-135h-139v135h-356v115l348 455h147v-429h140zM451 100l-103 84l920 1116l104 -81zM528 1026q123 -58 123 -168q0 -84 -76 -151q-77 -68 -188 -68q-162 0 -264 135l113 103q71 -95 151 -95q46 0 75.5 23.5t29.5 56.5
q0 39 -40 67.5t-100 28.5h-35v113h31q49 0 81 26.5t32 63.5q0 24 -17 40.5t-43 21.5t-55 0.5t-56 -23t-42 -47.5l-98 82q37 60 104.5 96.5t142.5 36.5q94 0 159 -50t65 -134q0 -108 -93 -158z" />
    <glyph glyph-name="questiondown" unicode="&#xbf;" horiz-adv-x="972" 
d="M473 -240q-181 0 -289 111q-108 114 -108 262q0 146 106 258q107 113 307 131v256h152v-368h-90q-157 0 -242 -82q-86 -83 -86 -195q0 -102 71.5 -170.5t190.5 -68.5q198 0 293 188l113 -74q-59 -117 -171 -182.5t-247 -65.5zM649 967q-26 -25 -61 -30t-64.5 6.5
t-50 39.5t-20.5 64q0 49 33 82.5t81 33.5t81.5 -33.5t33.5 -82.5q0 -47 -33 -80z" />
    <glyph glyph-name="Agrave" unicode="&#xc0;" horiz-adv-x="1316" 
d="M901 510l-244 655l-243 -655h487zM954 371h-592l-137 -371h-164l527 1348h143l524 -1348h-163zM786 1462l-419 129l43 146l421 -131z" />
    <glyph glyph-name="Aacute" unicode="&#xc1;" horiz-adv-x="1316" 
d="M901 510l-244 655l-243 -655h487zM954 371h-592l-137 -371h-164l527 1348h143l524 -1348h-163zM471 1606l422 131l43 -146l-420 -129z" />
    <glyph glyph-name="Acircumflex" unicode="&#xc2;" horiz-adv-x="1316" 
d="M901 510l-244 655l-243 -655h487zM954 371h-592l-137 -371h-164l527 1348h143l524 -1348h-163zM1006 1563l-91 -109l-249 195l-254 -195l-90 109l342 254z" />
    <glyph glyph-name="Atilde" unicode="&#xc3;" horiz-adv-x="1316" 
d="M901 510l-244 655l-243 -655h487zM954 371h-592l-137 -371h-164l527 1348h143l524 -1348h-163zM786 1464q-53 0 -129 58q-76 55 -108 55q-28 7 -76 -47q-6 -6 -26.5 -33t-22.5 -29l-100 78q113 180 219 180q53 0 139 -59q82 -61 109 -61q9 0 17.5 3t17.5 10.5t16 14
t16 19t14.5 20.5t15.5 23t15 22l90 -69q-7 -10 -21 -32t-18.5 -28.5t-15 -21.5t-15.5 -21t-14.5 -16.5t-18.5 -18t-20 -16.5q-42 -31 -84 -31z" />
    <glyph glyph-name="Adieresis" unicode="&#xc4;" horiz-adv-x="1316" 
d="M901 510l-244 655l-243 -655h487zM954 371h-592l-137 -371h-164l527 1348h143l524 -1348h-163zM993 1577q0 -47 -32.5 -80t-79.5 -33t-79 33t-32 80q0 44 33.5 77.5t77.5 33.5q47 0 79.5 -33t32.5 -78zM547 1577q0 -47 -32 -80t-77 -33q-47 0 -80.5 33t-33.5 80
q0 45 33.5 78t80.5 33q44 0 76.5 -33.5t32.5 -77.5z" />
    <glyph glyph-name="Aring" unicode="&#xc5;" horiz-adv-x="1316" 
d="M901 510l-244 655l-243 -655h487zM954 371h-592l-137 -371h-164l527 1348h143l524 -1348h-163zM567 1792q-27 -27 -32.5 -67t7 -74.5t44 -58.5t71.5 -21q54 0 89.5 36.5t35.5 92.5q0 54 -35.5 91.5t-89.5 37.5q-56 0 -90 -37zM418 1700q0 101 68.5 171.5t170.5 70.5
t172 -70q72 -72 72 -172q0 -99 -72 -168.5t-172 -69.5q-103 0 -171 67.5t-68 170.5z" />
    <glyph glyph-name="AE" unicode="&#xc6;" horiz-adv-x="1867" 
d="M946 1214h-110l-353 -704h463v704zM1724 139v-139h-778v371h-532l-189 -371h-164l689 1348h958v-140h-610v-460h495v-140h-495v-469h626z" />
    <glyph glyph-name="Ccedilla" unicode="&#xc7;" horiz-adv-x="1445" 
d="M1251 399l113 -73q-92 -166 -240 -261t-325 -96l-25 -67q213 -41 213 -187q0 -99 -65.5 -153t-169.5 -54q-139 0 -234 89l70 92q73 -70 151 -70q57 0 94 25.5t37 70.5q0 53 -49 81.5t-168 49.5l41 129q-235 34 -403 220q-168 180 -168 481q0 168 59.5 306.5t161.5 227.5
q199 172 469 172q307 0 494 -211l-105 -108q-156 178 -389 178q-235 0 -385 -147q-154 -151 -154 -410q0 -265 160 -416q159 -153 369 -153q142 0 261.5 74.5t186.5 209.5z" />
    <glyph glyph-name="Egrave" unicode="&#xc8;" 
d="M963 1208h-627v-460h512v-140h-512v-469h643v-139h-795v1348h779v-140zM743 1462l-419 129l43 146l421 -131z" />
    <glyph glyph-name="Eacute" unicode="&#xc9;" 
d="M963 1208h-627v-460h512v-140h-512v-469h643v-139h-795v1348h779v-140zM371 1606l422 131l43 -146l-420 -129z" />
    <glyph glyph-name="Ecircumflex" unicode="&#xca;" 
d="M963 1208h-627v-460h512v-140h-512v-469h643v-139h-795v1348h779v-140zM928 1563l-90 -109l-250 195l-254 -195l-90 109l342 254z" />
    <glyph glyph-name="Edieresis" unicode="&#xcb;" 
d="M963 1208h-627v-460h512v-140h-512v-469h643v-139h-795v1348h779v-140zM907 1577q0 -47 -32.5 -80t-79.5 -33t-79 33t-32 80q0 44 33.5 77.5t77.5 33.5q47 0 79.5 -33t32.5 -78zM461 1577q0 -47 -32 -80t-77 -33q-47 0 -80.5 33t-33.5 80q0 45 33.5 78t80.5 33
q44 0 76.5 -33.5t32.5 -77.5z" />
    <glyph glyph-name="Igrave" unicode="&#xcc;" horiz-adv-x="520" 
d="M184 0v1348h152v-1348h-152zM397 1462l-420 129l43 146l422 -131z" />
    <glyph glyph-name="Iacute" unicode="&#xcd;" horiz-adv-x="520" 
d="M184 0v1348h152v-1348h-152zM82 1606l422 131l43 -146l-420 -129z" />
    <glyph glyph-name="Icircumflex" unicode="&#xce;" horiz-adv-x="479" 
d="M164 0v1348h151v-1348h-151zM586 1563l-90 -109l-250 195l-254 -195l-90 109l342 254z" />
    <glyph glyph-name="Idieresis" unicode="&#xcf;" horiz-adv-x="479" 
d="M162 0v1348h151v-1348h-151zM573 1577q0 -47 -32.5 -80t-79.5 -33t-79 33t-32 80q0 45 32 78t79 33t79.5 -33t32.5 -78zM127 1577q0 -47 -32 -80t-77 -33q-47 0 -80.5 33t-33.5 80q0 45 33.5 78t80.5 33q44 0 76.5 -33.5t32.5 -77.5z" />
    <glyph glyph-name="Eth" unicode="&#xd0;" horiz-adv-x="1435" 
d="M336 618v-479h285q128 0 233.5 46t172 122t101.5 172t31 197q0 218 -141 377q-145 157 -397 157h-285v-479h340v-113h-340zM184 731v617h432q214 0 378.5 -95.5t242.5 -248.5q76 -149 76 -322q0 -130 -45 -250.5t-129.5 -217.5t-221 -155.5t-305.5 -58.5h-428v618h-256
v113h256z" />
    <glyph glyph-name="Ntilde" unicode="&#xd1;" horiz-adv-x="1445" 
d="M184 0v1348h152l774 -1072v1072h152v-1348h-152l-774 1083v-1083h-152zM854 1464q-53 0 -129 58q-76 55 -109 55q-27 7 -75 -47q-5 -6 -25.5 -33t-23.5 -29l-101 78q113 180 219 180q54 0 140 -59q82 -61 108 -61q9 0 17.5 3t17.5 10.5t16 14t17 19.5t14.5 20t15.5 23
t15 22l90 -69q-7 -10 -21 -32t-18.5 -28.5t-15 -21.5t-15.5 -21t-14.5 -16.5t-18.5 -18t-20 -16.5q-42 -31 -84 -31z" />
    <glyph glyph-name="Ograve" unicode="&#xd2;" horiz-adv-x="1638" 
d="M1204 1075q-157 160 -385 160t-385 -160q-158 -166 -158 -401q0 -239 158 -400q154 -161 385 -161t385 161q158 161 158 400q0 235 -158 401zM324 1176q199 202 495 202q299 0 498 -202t199 -502t-199 -502q-200 -203 -498 -203q-295 0 -495 203q-201 204 -201 502
t201 502zM940 1462l-420 129l43 146l422 -131z" />
    <glyph glyph-name="Oacute" unicode="&#xd3;" horiz-adv-x="1638" 
d="M1204 1075q-157 160 -385 160t-385 -160q-158 -166 -158 -401q0 -239 158 -400q154 -161 385 -161t385 161q158 161 158 400q0 235 -158 401zM324 1176q199 202 495 202q299 0 498 -202t199 -502t-199 -502q-200 -203 -498 -203q-295 0 -495 203q-201 204 -201 502
t201 502zM655 1606l422 131l43 -146l-420 -129z" />
    <glyph glyph-name="Ocircumflex" unicode="&#xd4;" horiz-adv-x="1638" 
d="M1204 1075q-157 160 -385 160t-385 -160q-158 -166 -158 -401q0 -239 158 -400q154 -161 385 -161t385 161q158 161 158 400q0 235 -158 401zM324 1176q199 202 495 202q299 0 498 -202t199 -502t-199 -502q-200 -203 -498 -203q-295 0 -495 203q-201 204 -201 502
t201 502zM1165 1563l-90 -109l-250 195l-254 -195l-90 109l342 254z" />
    <glyph glyph-name="Otilde" unicode="&#xd5;" horiz-adv-x="1638" 
d="M1204 1075q-157 160 -385 160t-385 -160q-158 -166 -158 -401q0 -239 158 -400q154 -161 385 -161t385 161q158 161 158 400q0 235 -158 401zM324 1176q199 202 495 202q299 0 498 -202t199 -502t-199 -502q-200 -203 -498 -203q-295 0 -495 203q-201 204 -201 502
t201 502zM948 1464q-53 0 -129 58q-76 55 -108 55q-28 7 -76 -47q-5 -6 -26 -33t-23 -29l-101 78q113 180 220 180q53 0 139 -59q82 -61 108 -61q9 0 17.5 3t17.5 10.5t16 14t17 19.5t14.5 20t15.5 23t15 22l90 -69q-7 -10 -21 -32t-18.5 -28.5t-15 -21.5t-15.5 -21
t-14.5 -16.5t-18.5 -18t-20 -16.5q-42 -31 -84 -31z" />
    <glyph glyph-name="Odieresis" unicode="&#xd6;" horiz-adv-x="1638" 
d="M1204 1075q-157 160 -385 160t-385 -160q-158 -166 -158 -401q0 -239 158 -400q154 -161 385 -161t385 161q158 161 158 400q0 235 -158 401zM324 1176q199 202 495 202q299 0 498 -202t199 -502t-199 -502q-200 -203 -498 -203q-295 0 -495 203q-201 204 -201 502
t201 502zM1155 1577q0 -47 -33 -80t-80 -33t-78.5 32.5t-31.5 80.5q0 45 32 78t78 33q47 0 80 -33t33 -78zM709 1577q0 -47 -32 -80t-77 -33q-47 0 -81 33t-34 80q0 45 34 78t81 33q44 0 76.5 -33.5t32.5 -77.5z" />
    <glyph glyph-name="multiply" unicode="&#xd7;" horiz-adv-x="747" 
d="M666 721l-197 -197l195 -196l-95 -95l-194 197l-197 -197l-96 97l197 196l-197 195l94 94l197 -194l196 196z" />
    <glyph glyph-name="Oslash" unicode="&#xd8;" horiz-adv-x="1638" 
d="M819 113q231 0 385 161q158 161 158 400q0 160 -77 293t-208 202l-401 -1038q68 -18 143 -18zM276 674q0 -162 77 -293.5t210 -204.5l404 1038q-67 21 -148 21q-228 0 -385 -160q-158 -166 -158 -401zM1100 1561l112 -45l-79 -209q175 -86 279 -255t104 -378
q0 -300 -199 -502q-200 -203 -498 -203q-105 0 -196 27l-84 -219l-113 45l84 217q-180 85 -283.5 254t-103.5 381q0 298 201 502q199 202 495 202q101 0 199 -26z" />
    <glyph glyph-name="Ugrave" unicode="&#xd9;" horiz-adv-x="1335" 
d="M1020 1348h151v-879q0 -239 -145 -369q-146 -131 -358 -131q-214 0 -357 131q-147 129 -147 369v879h151v-863q0 -181 103 -276q104 -96 250 -96t250 96q102 95 102 276v863zM809 1462l-420 129l43 146l422 -131z" />
    <glyph glyph-name="Uacute" unicode="&#xda;" horiz-adv-x="1335" 
d="M1020 1348h151v-879q0 -239 -145 -369q-146 -131 -358 -131q-214 0 -357 131q-147 129 -147 369v879h151v-863q0 -181 103 -276q104 -96 250 -96t250 96q102 95 102 276v863zM485 1606l422 131l43 -146l-420 -129z" />
    <glyph glyph-name="Ucircumflex" unicode="&#xdb;" horiz-adv-x="1335" 
d="M1020 1348h151v-879q0 -239 -145 -369q-146 -131 -358 -131q-214 0 -357 131q-147 129 -147 369v879h151v-863q0 -181 103 -276q104 -96 250 -96t250 96q102 95 102 276v863zM1014 1563l-90 -109l-250 195l-254 -195l-90 109l342 254z" />
    <glyph glyph-name="Udieresis" unicode="&#xdc;" horiz-adv-x="1335" 
d="M1020 1348h151v-879q0 -239 -145 -369q-146 -131 -358 -131q-214 0 -357 131q-147 129 -147 369v879h151v-863q0 -181 103 -276q104 -96 250 -96t250 96q102 95 102 276v863zM1004 1577q0 -47 -33 -80t-80 -33t-79 33t-32 80q0 45 32 78t79 33t80 -33t33 -78zM557 1577
q0 -47 -32 -80t-76 -33q-47 0 -81 33t-34 80q0 45 34 78t81 33q44 0 76 -33t32 -78z" />
    <glyph glyph-name="Yacute" unicode="&#xdd;" horiz-adv-x="1245" 
d="M698 573v-573h-151v573l-506 775h178l404 -637l403 637h178zM492 1606l421 131l43 -146l-419 -129z" />
    <glyph glyph-name="Thorn" unicode="&#xde;" horiz-adv-x="1095" 
d="M336 1004v-472h244q135 0 208.5 69.5t73.5 174.5q0 101 -69 164.5t-199 63.5h-258zM336 1348v-205h268q198 0 305 -107q105 -108 105 -258q0 -157 -113 -270q-115 -115 -313 -115h-252v-393h-152v1348h152z" />
    <glyph glyph-name="germandbls" unicode="&#xdf;" horiz-adv-x="1116" 
d="M676 717q139 -15 229 -111q88 -94 88 -227q0 -152 -112 -264q-115 -115 -320 -115h-127v131h135q126 0 202.5 70.5t76.5 175.5q0 111 -90 185.5t-258 74.5h-45v137h45q125 0 202.5 74t77.5 186q0 96 -64.5 158.5t-172.5 62.5q-123 0 -188.5 -81.5t-65.5 -231.5v-942h-146
v950q0 203 115 318q114 114 287 114q154 0 270 -90q111 -88 111 -237q0 -121 -68 -215t-182 -123z" />
    <glyph glyph-name="agrave" unicode="&#xe0;" horiz-adv-x="1318" 
d="M352 217q104 -98 235.5 -98t235.5 98q103 95 103 266q0 174 -107 275q-107 98 -244 98q-133 0 -229 -96q-98 -98 -98 -268q0 -177 104 -275zM1229 133l49 -100q-55 -49 -133 -49q-84 0 -144 49.5t-67 138.5q-50 -85 -147 -137.5t-209 -52.5q-187 0 -330 137
q-146 137 -146 373q0 233 146 370q145 133 330 133q102 0 195.5 -45t152.5 -125v146h145v-740q0 -54 26 -85t66 -31q29 0 66 18zM717 1155l-420 129l43 146l422 -132z" />
    <glyph glyph-name="aacute" unicode="&#xe1;" horiz-adv-x="1318" 
d="M352 217q104 -98 235.5 -98t235.5 98q103 95 103 266q0 174 -107 275q-107 98 -244 98q-133 0 -229 -96q-98 -98 -98 -268q0 -177 104 -275zM1229 133l49 -100q-55 -49 -133 -49q-84 0 -144 49.5t-67 138.5q-50 -85 -147 -137.5t-209 -52.5q-187 0 -330 137
q-146 137 -146 373q0 233 146 370q145 133 330 133q102 0 195.5 -45t152.5 -125v146h145v-740q0 -54 26 -85t66 -31q29 0 66 18zM430 1298l422 132l43 -146l-420 -129z" />
    <glyph glyph-name="acircumflex" unicode="&#xe2;" horiz-adv-x="1318" 
d="M352 217q104 -98 235.5 -98t235.5 98q103 95 103 266q0 174 -107 275q-107 98 -244 98q-133 0 -229 -96q-98 -98 -98 -268q0 -177 104 -275zM1229 133l49 -100q-55 -49 -133 -49q-84 0 -144 49.5t-67 138.5q-50 -85 -147 -137.5t-209 -52.5q-187 0 -330 137
q-146 137 -146 373q0 233 146 370q145 133 330 133q102 0 195.5 -45t152.5 -125v146h145v-740q0 -54 26 -85t66 -31q29 0 66 18zM938 1243l-90 -108l-250 194l-254 -194l-90 108l342 254z" />
    <glyph glyph-name="atilde" unicode="&#xe3;" horiz-adv-x="1318" 
d="M352 217q104 -98 235.5 -98t235.5 98q103 95 103 266q0 174 -107 275q-107 98 -244 98q-133 0 -229 -96q-98 -98 -98 -268q0 -177 104 -275zM1229 133l49 -100q-55 -49 -133 -49q-84 0 -144 49.5t-67 138.5q-50 -85 -147 -137.5t-209 -52.5q-187 0 -330 137
q-146 137 -146 373q0 233 146 370q145 133 330 133q102 0 195.5 -45t152.5 -125v146h145v-740q0 -54 26 -85t66 -31q29 0 66 18zM698 1157q-54 0 -129 57q-77 56 -108 56q-28 7 -76 -47q-5 -5 -25.5 -32t-23.5 -30l-100 78q113 180 219 180q53 0 139 -59q83 -62 108 -62
q9 0 17.5 3t17.5 10.5t16 14.5t16.5 19.5t15 20.5t16 23.5t14.5 21.5l90 -70l-19 -28.5t-16.5 -25.5t-13 -20t-14 -19t-12.5 -15t-14.5 -16t-15 -13.5t-18.5 -15.5q-42 -31 -84 -31z" />
    <glyph glyph-name="adieresis" unicode="&#xe4;" horiz-adv-x="1318" 
d="M352 217q104 -98 235.5 -98t235.5 98q103 95 103 266q0 174 -107 275q-107 98 -244 98q-133 0 -229 -96q-98 -98 -98 -268q0 -177 104 -275zM1229 133l49 -100q-55 -49 -133 -49q-84 0 -144 49.5t-67 138.5q-50 -85 -147 -137.5t-209 -52.5q-187 0 -330 137
q-146 137 -146 373q0 233 146 370q145 133 330 133q102 0 195.5 -45t152.5 -125v146h145v-740q0 -54 26 -85t66 -31q29 0 66 18zM963 1270q0 -47 -33 -80t-80 -33t-79 33t-32 80q0 45 32 77.5t79 32.5t80 -32.5t33 -77.5zM516 1270q0 -47 -32 -80t-76 -33q-47 0 -81 33
t-34 80q0 44 34 77t81 33q44 0 76 -33t32 -77z" />
    <glyph glyph-name="aring" unicode="&#xe5;" horiz-adv-x="1318" 
d="M352 217q104 -98 235.5 -98t235.5 98q103 95 103 266q0 174 -107 275q-107 98 -244 98q-133 0 -229 -96q-98 -98 -98 -268q0 -177 104 -275zM1229 133l49 -100q-55 -49 -133 -49q-84 0 -144 49.5t-67 138.5q-50 -85 -147 -137.5t-209 -52.5q-187 0 -330 137
q-146 137 -146 373q0 233 146 370q145 133 330 133q102 0 195.5 -45t152.5 -125v146h145v-740q0 -54 26 -85t66 -31q29 0 66 18zM516 1485q-27 -27 -32.5 -67t7 -74.5t44 -58.5t71.5 -21q54 0 89.5 36.5t35.5 92.5q0 54 -35.5 91.5t-89.5 37.5q-56 0 -90 -37zM367 1393
q0 101 68.5 171t170.5 70q103 0 172 -69q72 -72 72 -172q0 -99 -72 -168.5t-172 -69.5q-103 0 -171 67.5t-68 170.5z" />
    <glyph glyph-name="ae" unicode="&#xe6;" horiz-adv-x="1787" 
d="M422 113q129 0 227 98t101 276h-301q-106 0 -165 -56t-59 -140q0 -80 52.5 -129t144.5 -49zM928 553h604q-1 144 -85 224.5t-208 80.5q-125 0 -212 -82.5t-99 -222.5zM1686 528q0 -58 -9 -110h-743q18 -149 106.5 -226t225.5 -77q204 0 307 157l96 -90
q-166 -205 -418 -205q-147 0 -262.5 75.5t-171.5 205.5q-54 -128 -162 -203t-241 -75q-148 0 -240 92q-92 89 -92 223q0 141 106 228t297 87h271q0 123 -68 187.5t-178 64.5q-168 0 -277 -139l-98 104q68 79 171 123.5t210 44.5q118 0 209 -54t133 -153q63 98 170 152.5
t232 54.5q201 0 315 -135q111 -135 111 -332z" />
    <glyph glyph-name="ccedilla" unicode="&#xe7;" horiz-adv-x="1067" 
d="M901 313l105 -73q-61 -118 -169.5 -186.5t-238.5 -73.5l-20 -58q213 -41 213 -186q0 -99 -66 -153t-170 -54q-139 0 -233 88l69 92q72 -69 152 -69q57 0 94 25.5t37 70.5q0 53 -49 81.5t-168 49.5l37 121q-168 27 -279 159q-113 131 -113 338q0 239 148 375
q147 135 344 135q240 0 377 -186l-109 -92q-94 143 -268 143q-142 0 -242 -100q-104 -101 -104 -264q0 -154 94 -267q91 -114 248 -114q210 0 311 198z" />
    <glyph glyph-name="egrave" unicode="&#xe8;" horiz-adv-x="1116" 
d="M256 553h604q-1 146 -84.5 226.5t-208.5 80.5q-126 0 -212.5 -82t-98.5 -225zM901 272l96 -90q-166 -205 -415 -205q-202 0 -340 138q-140 140 -140 372q0 240 144 375q142 133 342 133q201 0 315 -135q111 -135 111 -332q0 -63 -8 -110h-744q18 -148 107.5 -225.5
t226.5 -77.5q196 0 305 157zM723 1155l-420 129l43 146l422 -132z" />
    <glyph glyph-name="eacute" unicode="&#xe9;" horiz-adv-x="1116" 
d="M256 553h604q-1 146 -84.5 226.5t-208.5 80.5q-126 0 -212.5 -82t-98.5 -225zM901 272l96 -90q-166 -205 -415 -205q-202 0 -340 138q-140 140 -140 372q0 240 144 375q142 133 342 133q201 0 315 -135q111 -135 111 -332q0 -63 -8 -110h-744q18 -148 107.5 -225.5
t226.5 -77.5q196 0 305 157zM393 1298l422 132l43 -146l-420 -129z" />
    <glyph glyph-name="ecircumflex" unicode="&#xea;" horiz-adv-x="1116" 
d="M256 553h604q-1 146 -84.5 226.5t-208.5 80.5q-126 0 -212.5 -82t-98.5 -225zM901 272l96 -90q-166 -205 -415 -205q-202 0 -340 138q-140 140 -140 372q0 240 144 375q142 133 342 133q201 0 315 -135q111 -135 111 -332q0 -63 -8 -110h-744q18 -148 107.5 -225.5
t226.5 -77.5q196 0 305 157zM920 1243l-91 -108l-249 194l-254 -194l-90 108l342 254z" />
    <glyph glyph-name="edieresis" unicode="&#xeb;" horiz-adv-x="1116" 
d="M256 553h604q-1 146 -84.5 226.5t-208.5 80.5q-126 0 -212.5 -82t-98.5 -225zM901 272l96 -90q-166 -205 -415 -205q-202 0 -340 138q-140 140 -140 372q0 240 144 375q142 133 342 133q201 0 315 -135q111 -135 111 -332q0 -63 -8 -110h-744q18 -148 107.5 -225.5
t226.5 -77.5q196 0 305 157zM934 1270q0 -47 -33 -80t-80 -33t-78.5 32.5t-31.5 80.5q0 45 31.5 77.5t78.5 32.5t80 -32.5t33 -77.5zM487 1270q0 -47 -32 -80t-76 -33q-47 0 -81 33t-34 80q0 44 34 77t81 33q44 0 76 -33t32 -77z" />
    <glyph glyph-name="igrave" unicode="&#xec;" horiz-adv-x="507" 
d="M143 0v971h146v-971h-146zM399 1155l-419 129l43 146l421 -132z" />
    <glyph glyph-name="iacute" unicode="&#xed;" horiz-adv-x="432" 
d="M143 0v971h146v-971h-146zM68 1298l421 132l43 -146l-419 -129z" />
    <glyph glyph-name="icircumflex" unicode="&#xee;" horiz-adv-x="643" 
d="M205 0v971h145v-971h-145zM664 1243l-91 -108l-249 194l-254 -194l-90 108l342 254z" />
    <glyph glyph-name="idieresis" unicode="&#xef;" horiz-adv-x="546" 
d="M150 0v971h145v-971h-145zM608 1270q0 -47 -32.5 -80t-79.5 -33t-79 33t-32 80q0 44 33.5 77t77.5 33q47 0 79.5 -32.5t32.5 -77.5zM162 1270q0 -47 -32 -80t-77 -33q-47 0 -80.5 33t-33.5 80q0 45 33.5 77.5t80.5 32.5q44 0 76.5 -33t32.5 -77z" />
    <glyph glyph-name="eth" unicode="&#xf0;" horiz-adv-x="1130" 
d="M541 104q136 0 231 89q94 85 94 239q0 161 -100 242q-104 84 -231 84q-136 0 -222 -88t-86 -240q0 -154 89.5 -240t224.5 -86zM590 1483l119 -39l-52 -135q189 -90 290.5 -276.5t101.5 -436.5q0 -311 -144 -467q-145 -160 -350 -160q-191 0 -332 129t-141 346
q0 204 125 326q123 123 301 123q122 0 229 -56.5t160 -156.5q-30 368 -289 498l-65 -170l-113 39l64 172q-86 22 -193 22l8 137q120 0 232 -28z" />
    <glyph glyph-name="ntilde" unicode="&#xf1;" horiz-adv-x="1157" 
d="M993 633v-633h-145v598q0 121 -65 189.5t-165 68.5q-119 0 -215 -96q-94 -98 -94 -266v-494h-145v971h145v-168q50 91 141.5 141.5t196.5 50.5q145 0 246 -94q100 -93 100 -268zM735 1157q-54 0 -129 57q-77 56 -108 56q-28 7 -76 -47q-5 -5 -25.5 -32t-23.5 -30l-101 78
q113 180 220 180q53 0 139 -59q83 -62 108 -62q9 0 17.5 3t17.5 10.5t16 14.5t16.5 19.5t15 20.5t16 23.5t14.5 21.5l90 -70l-19 -28.5t-16.5 -25.5t-13 -20t-14 -19t-12.5 -15t-14.5 -16t-15 -13.5t-18.5 -15.5q-42 -31 -84 -31z" />
    <glyph glyph-name="ograve" unicode="&#xf2;" horiz-adv-x="1196" 
d="M850 758q-98 104 -252 104t-252 -104q-98 -107 -98 -269q0 -164 98 -268q97 -106 252 -106t252 106q98 104 98 268q0 162 -98 269zM244 852q137 143 354 143q216 0 356 -143q140 -146 140 -365q0 -216 -140 -362q-142 -145 -356 -145q-215 0 -354 145q-142 145 -142 362
q0 220 142 365zM727 1155l-420 129l43 146l422 -132z" />
    <glyph glyph-name="oacute" unicode="&#xf3;" horiz-adv-x="1196" 
d="M850 758q-98 104 -252 104t-252 -104q-98 -107 -98 -269q0 -164 98 -268q97 -106 252 -106t252 106q98 104 98 268q0 162 -98 269zM244 852q137 143 354 143q216 0 356 -143q140 -146 140 -365q0 -216 -140 -362q-142 -145 -356 -145q-215 0 -354 145q-142 145 -142 362
q0 220 142 365zM410 1298l421 132l43 -146l-419 -129z" />
    <glyph glyph-name="ocircumflex" unicode="&#xf4;" horiz-adv-x="1196" 
d="M850 758q-98 104 -252 104t-252 -104q-98 -107 -98 -269q0 -164 98 -268q97 -106 252 -106t252 106q98 104 98 268q0 162 -98 269zM244 852q137 143 354 143q216 0 356 -143q140 -146 140 -365q0 -216 -140 -362q-142 -145 -356 -145q-215 0 -354 145q-142 145 -142 362
q0 220 142 365zM944 1243l-90 -108l-250 194l-254 -194l-90 108l342 254z" />
    <glyph glyph-name="otilde" unicode="&#xf5;" horiz-adv-x="1196" 
d="M850 758q-98 104 -252 104t-252 -104q-98 -107 -98 -269q0 -164 98 -268q97 -106 252 -106t252 106q98 104 98 268q0 162 -98 269zM244 852q137 143 354 143q216 0 356 -143q140 -146 140 -365q0 -216 -140 -362q-142 -145 -356 -145q-215 0 -354 145q-142 145 -142 362
q0 220 142 365zM743 1161q-53 0 -129 58q-76 55 -108 55q-28 7 -76 -47q-6 -5 -26 -32t-23 -30l-100 78q113 180 219 180q53 0 139 -59q82 -61 109 -61q9 0 17.5 3t17.5 10.5t16 14t16 19t14.5 20.5t15.5 23t15 22l90 -69q-51 -82 -90 -125q-54 -60 -117 -60z" />
    <glyph glyph-name="odieresis" unicode="&#xf6;" horiz-adv-x="1196" 
d="M850 758q-98 104 -252 104t-252 -104q-98 -107 -98 -269q0 -164 98 -268q97 -106 252 -106t252 106q98 104 98 268q0 162 -98 269zM244 852q137 143 354 143q216 0 356 -143q140 -146 140 -365q0 -216 -140 -362q-142 -145 -356 -145q-215 0 -354 145q-142 145 -142 362
q0 220 142 365zM934 1270q0 -47 -33 -80t-80 -33t-78.5 32.5t-31.5 80.5q0 45 31.5 77.5t78.5 32.5t80 -32.5t33 -77.5zM487 1270q0 -47 -32 -80t-76 -33q-47 0 -81 33t-34 80q0 44 34 77t81 33q44 0 76 -33t32 -77z" />
    <glyph glyph-name="divide" unicode="&#xf7;" horiz-adv-x="909" 
d="M360 254q0 49 33.5 82t81.5 33t81.5 -33t33.5 -82q0 -47 -34 -81t-81 -34t-81 34t-34 81zM123 506v135h704v-135h-704zM360 864q0 49 33.5 82t81.5 33t81.5 -33t33.5 -82q0 -47 -34 -80.5t-81 -33.5t-81 33.5t-34 80.5z" />
    <glyph glyph-name="oslash" unicode="&#xf8;" horiz-adv-x="1196" 
d="M598 115q155 0 252 106q98 104 98 268q0 216 -162 320l-266 -686q31 -8 78 -8zM248 489q0 -103 42.5 -187t117.5 -134l266 686q-31 8 -76 8q-154 0 -252 -104q-98 -107 -98 -269zM809 1204l113 -45l-86 -221q119 -62 188.5 -182.5t69.5 -268.5q0 -216 -140 -362
q-142 -145 -356 -145q-61 0 -127 14l-84 -217l-113 45l84 215q-119 63 -187.5 182.5t-68.5 267.5q0 220 142 365q137 143 354 143q73 0 125 -14z" />
    <glyph glyph-name="ugrave" unicode="&#xf9;" 
d="M958 971v-971h-145v174q-102 -194 -321 -194q-142 0 -246 96q-103 95 -103 266v629h146v-594q0 -123 63.5 -191.5t161.5 -68.5q116 0 209 96q90 96 90 264v494h145zM666 1155l-420 129l43 146l422 -132z" />
    <glyph glyph-name="uacute" unicode="&#xfa;" 
d="M958 971v-971h-145v174q-102 -194 -321 -194q-142 0 -246 96q-103 95 -103 266v629h146v-594q0 -123 63.5 -191.5t161.5 -68.5q116 0 209 96q90 96 90 264v494h145zM369 1298l422 132l43 -146l-420 -129z" />
    <glyph glyph-name="ucircumflex" unicode="&#xfb;" 
d="M958 971v-971h-145v174q-102 -194 -321 -194q-142 0 -246 96q-103 95 -103 266v629h146v-594q0 -123 63.5 -191.5t161.5 -68.5q116 0 209 96q90 96 90 264v494h145zM889 1243l-90 -108l-250 194l-254 -194l-90 108l342 254z" />
    <glyph glyph-name="udieresis" unicode="&#xfc;" 
d="M958 971v-971h-145v174q-102 -194 -321 -194q-142 0 -246 96q-103 95 -103 266v629h146v-594q0 -123 63.5 -191.5t161.5 -68.5q116 0 209 96q90 96 90 264v494h145zM885 1270q0 -47 -33 -80t-80 -33t-78.5 32.5t-31.5 80.5q0 45 31.5 77.5t78.5 32.5t80 -32.5t33 -77.5z
M438 1270q0 -47 -32 -80t-76 -33q-47 0 -81 33t-34 80q0 44 34 77t81 33q44 0 76 -33t32 -77z" />
    <glyph glyph-name="yacute" unicode="&#xfd;" horiz-adv-x="1171" 
d="M862 971h146v-946q0 -225 -122.5 -350.5t-324.5 -125.5q-163 0 -287 83t-172 239l140 53q37 -118 123 -178.5t200 -60.5q139 0 219.5 87t79.5 244l-2 181q-49 -90 -134 -138.5t-189 -48.5q-149 0 -260 99q-113 98 -113 268v594h145v-563q0 -126 64 -193.5t172 -67.5
q137 0 226 98.5t89 266.5v459zM387 1298l422 132l43 -146l-420 -129z" />
    <glyph glyph-name="thorn" unicode="&#xfe;" horiz-adv-x="1234" 
d="M639 119q138 0 244 100q104 98 104 275q0 168 -98 262t-234 94q-140 0 -241 -98q-105 -102 -105 -275q0 -167 99 -262q96 -96 231 -96zM674 987q184 0 323 -127q136 -130 136 -362q0 -242 -146 -379t-344 -137q-220 0 -334 153v-561h-145v1774h145v-549q135 188 365 188z
" />
    <glyph glyph-name="ydieresis" unicode="&#xff;" horiz-adv-x="1171" 
d="M862 971h146v-946q0 -225 -122.5 -350.5t-324.5 -125.5q-163 0 -287 83t-172 239l140 53q37 -118 123 -178.5t200 -60.5q139 0 219.5 87t79.5 244l-2 181q-49 -90 -134 -138.5t-189 -48.5q-149 0 -260 99q-113 98 -113 268v594h145v-563q0 -126 64 -193.5t172 -67.5
q137 0 226 98.5t89 266.5v459zM913 1270q0 -47 -32.5 -80t-79.5 -33t-79 33t-32 80q0 45 32 77.5t79 32.5t79.5 -32.5t32.5 -77.5zM467 1270q0 -47 -32 -80t-77 -33q-47 0 -80.5 33t-33.5 80q0 45 33.5 77.5t80.5 32.5q44 0 76.5 -33t32.5 -77z" />
    <glyph glyph-name="dotlessi" unicode="&#x131;" horiz-adv-x="432" 
d="M143 0v971h146v-971h-146z" />
    <glyph glyph-name="Lslash" unicode="&#x141;" horiz-adv-x="1030" 
d="M336 139h612v-139h-764v635l-202 -115l-58 103l260 147v578h152v-492l252 141l55 -100l-307 -174v-584z" />
    <glyph glyph-name="lslash" unicode="&#x142;" horiz-adv-x="653" 
d="M449 106q39 0 92 21l51 -107q-76 -40 -166 -40q-116 0 -189 75.5t-73 218.5v371l-182 -104l-58 102l240 135v570h145v-488l279 158l55 -100l-334 -191v-455q0 -83 38 -124.5t102 -41.5z" />
    <glyph glyph-name="OE" unicode="&#x152;" horiz-adv-x="1802" 
d="M881 139v1069h-62q-232 0 -387 -143q-156 -144 -156 -391q0 -241 158 -387q157 -148 385 -148h62zM1659 139v-139h-840q-299 0 -497 186q-199 187 -199 488q0 300 199 487t497 187h823v-140h-610v-460h496v-140h-496v-469h627z" />
    <glyph glyph-name="oe" unicode="&#x153;" horiz-adv-x="1949" 
d="M1090 555v-2h604q-1 144 -85 224.5t-208 80.5q-125 0 -211.5 -82t-99.5 -221zM346 221q97 -106 252 -106t252 106q98 104 98 268q0 162 -98 269q-98 104 -252 104t-252 -104q-98 -107 -98 -269q0 -164 98 -268zM1847 528q0 -63 -8 -110h-743q18 -149 106 -226t225 -77
q199 0 308 157l96 -90q-166 -205 -418 -205q-128 0 -234 58t-167 162q-66 -103 -175 -160t-239 -57q-215 0 -354 145q-142 145 -142 362q0 220 142 365q137 143 354 143q130 0 239 -58t175 -161q65 104 174 161.5t235 57.5q202 0 316 -135q110 -134 110 -332z" />
    <glyph glyph-name="Scaron" unicode="&#x160;" horiz-adv-x="1120" 
d="M1018 354q0 -177 -133 -280q-132 -105 -322 -105q-130 0 -255 53t-206 144l107 117q60 -83 156.5 -128.5t201.5 -45.5q125 0 210 65t85 168q0 88 -63.5 141.5t-208.5 106.5q-211 78 -285 131q-147 105 -147 287q0 183 127 278q128 96 301 96q217 0 368 -139l-88 -113
q-108 117 -284 117q-121 0 -198 -59t-77 -168q8 -84 42 -133.5t112 -87.5q75 -36 88 -41q9 -4 23 -9t37.5 -14t41.5 -16q60 -20 137 -53q41 -20 111 -66q119 -83 119 -246zM938 1708l-342 -254l-342 254l90 109l254 -195l250 195z" />
    <glyph glyph-name="scaron" unicode="&#x161;" horiz-adv-x="940" 
d="M868 272q0 -139 -110 -215q-115 -77 -275 -77q-117 0 -225.5 42.5t-185.5 120.5l102 113q54 -66 143.5 -103.5t184.5 -37.5q97 0 157 38t60 101q0 35 -18.5 57t-53.5 45q-19 11 -110 35q-5 1 -27 7t-39 10q-81 19 -129.5 37t-103.5 49q-115 65 -115 211q0 143 108 217
q107 73 254 73q185 0 332 -108l-74 -109q-110 88 -266 88q-94 0 -151.5 -40.5t-57.5 -112.5q0 -70 53 -106t177 -64q179 -42 245 -72q125 -64 125 -199zM817 1386l-342 -253l-342 253l90 109l254 -195l250 195z" />
    <glyph glyph-name="Ydieresis" unicode="&#x178;" horiz-adv-x="1245" 
d="M698 573v-573h-151v573l-506 775h178l404 -637l403 637h178zM958 1577q0 -47 -32.5 -80t-79.5 -33t-79 33t-32 80q0 45 32 78t79 33t79.5 -33t32.5 -78zM512 1577q0 -47 -32 -80t-77 -33q-47 0 -80.5 33t-33.5 80q0 45 33.5 78t80.5 33q44 0 76.5 -33.5t32.5 -77.5z" />
    <glyph glyph-name="Zcaron" unicode="&#x17d;" horiz-adv-x="1171" 
d="M102 0v127l756 1081h-719v140h901v-125l-753 -1084h782v-139h-967zM936 1708l-342 -254l-342 254l90 109l254 -195l250 195z" />
    <glyph glyph-name="zcaron" unicode="&#x17e;" horiz-adv-x="1019" 
d="M928 139v-139h-836v139l613 695h-590v137h782v-137l-612 -695h643zM856 1386l-342 -253l-342 253l90 109l254 -195l250 195z" />
    <glyph glyph-name="florin" unicode="&#x192;" horiz-adv-x="645" 
d="M322 971h249v-135h-249v-992q0 -135 -77 -215t-190 -80q-114 0 -198 84l71 105q51 -57 125 -57q56 0 89.5 40t33.5 113v1002h-168v135h168v125q0 135 77.5 210.5t197.5 75.5q131 0 219 -82l-78 -104q-57 57 -131 57q-63 0 -101 -41t-38 -120v-121z" />
    <glyph glyph-name="circumflex" unicode="&#x2c6;" horiz-adv-x="684" 
d="M684 1243l-90 -108l-250 194l-254 -194l-90 108l342 254z" />
    <glyph glyph-name="caron" unicode="&#x2c7;" horiz-adv-x="684" 
d="M684 1386l-342 -253l-342 253l90 109l254 -195l250 195z" />
    <glyph glyph-name="breve" unicode="&#x2d8;" horiz-adv-x="512" 
d="M354 1417h158q0 -116 -66 -189t-190 -73t-190 73t-66 189h158q0 -48 25 -82.5t73 -34.5t73 34.5t25 82.5z" />
    <glyph glyph-name="dotaccent" unicode="&#x2d9;" horiz-adv-x="225" 
d="M0 1268q0 45 33 77.5t80 32.5t79.5 -32.5t32.5 -77.5q0 -47 -32.5 -80t-79.5 -33t-80 33t-33 80z" />
    <glyph glyph-name="ring" unicode="&#x2da;" horiz-adv-x="483" 
d="M150 1485q-27 -27 -32.5 -67t7 -74.5t44 -58.5t71.5 -21q54 0 89.5 36.5t35.5 92.5q0 54 -35.5 91.5t-89.5 37.5q-56 0 -90 -37zM0 1393q0 101 69 171t171 70q103 0 172 -69q71 -71 71 -172q0 -99 -71.5 -168.5t-171.5 -69.5q-103 0 -171.5 67.5t-68.5 170.5z" />
    <glyph glyph-name="ogonek" unicode="&#x2db;" horiz-adv-x="305" 
d="M305 -252v-127q-131 12 -218 83.5t-87 170.5q0 90 82 139h117q-78 -57 -78 -135q0 -57 50.5 -94t133.5 -37z" />
    <glyph glyph-name="tilde" unicode="&#x2dc;" horiz-adv-x="669" 
d="M463 1157q-54 0 -129 57q-77 56 -109 56q-27 7 -75 -47q-5 -5 -26 -32t-24 -30l-100 78q113 180 219 180q53 0 139 -59q83 -62 109 -62q9 0 17.5 3t17.5 10.5t16 14.5t16.5 19.5t15 20.5t16 23.5t14.5 21.5l90 -70l-19 -28.5t-16.5 -25.5t-13 -20t-14 -19t-12.5 -15
t-14.5 -16t-15 -13.5t-18.5 -15.5q-42 -31 -84 -31z" />
    <glyph glyph-name="hungarumlaut" unicode="&#x2dd;" horiz-adv-x="626" 
d="M627 1407l-195 -252h-162l150 252h207zM313 1407l-153 -252h-160l106 252h207z" />
    <glyph glyph-name="mu" unicode="&#x3bc;" 
d="M958 971v-971h-145v156q-43 -84 -127 -132.5t-178 -48.5q-137 0 -219 88v-489h-146v1397h146v-592q0 -125 67 -195.5t168 -70.5q113 0 203 90q86 89 86 246v522h145z" />
    <glyph glyph-name="endash" unicode="&#x2013;" horiz-adv-x="972" 
d="M123 629h727v-135h-727v135z" />
    <glyph glyph-name="emdash" unicode="&#x2014;" horiz-adv-x="1341" 
d="M123 629h1096v-135h-1096v135z" />
    <glyph glyph-name="quoteleft" unicode="&#x2018;" horiz-adv-x="468" 
d="M408 1305l-177 -529l-170 64l230 512z" />
    <glyph glyph-name="quoteright" unicode="&#x2019;" horiz-adv-x="468" 
d="M61 883l177 528l170 -63l-230 -512z" />
    <glyph glyph-name="quotesinglbase" unicode="&#x201a;" horiz-adv-x="468" 
d="M61 -283l177 529l170 -64l-230 -512z" />
    <glyph glyph-name="quotedblleft" unicode="&#x201c;" horiz-adv-x="788" 
d="M727 1305l-176 -529l-170 64l229 512zM408 1305l-177 -529l-170 64l230 512z" />
    <glyph glyph-name="quotedblright" unicode="&#x201d;" horiz-adv-x="794" 
d="M387 883l176 528l170 -63l-229 -512zM61 883l177 528l170 -63l-230 -512z" />
    <glyph glyph-name="quotedblbase" unicode="&#x201e;" horiz-adv-x="794" 
d="M387 -283l176 529l170 -64l-229 -512zM61 -283l177 529l170 -64l-230 -512z" />
    <glyph glyph-name="dagger" unicode="&#x2020;" horiz-adv-x="897" 
d="M524 1348v-369h291v-135h-291v-844h-151v844h-291v135h291v369h151z" />
    <glyph glyph-name="daggerdbl" unicode="&#x2021;" horiz-adv-x="897" 
d="M815 504v-135h-291v-369h-151v369h-291v135h291v340h-291v135h291v369h151v-369h291v-135h-291v-340h291z" />
    <glyph glyph-name="bullet" unicode="&#x2022;" horiz-adv-x="464" 
d="M340 627q34 -29 41 -75t-10 -86t-54 -68.5t-81 -26.5q-63 0 -108.5 44.5t-45.5 106.5q0 61 45.5 104.5t108.5 43.5q58 0 104 -43z" />
    <glyph glyph-name="ellipsis" unicode="&#x2026;" horiz-adv-x="1425" 
d="M1073 94q0 49 33.5 82t81.5 33t81.5 -33t33.5 -82q0 -47 -34 -80.5t-81 -33.5t-81 33.5t-34 80.5zM598 94q0 49 33.5 82t81.5 33t81 -33t33 -82q0 -47 -33.5 -80.5t-80.5 -33.5t-81 33.5t-34 80.5zM123 94q0 49 33.5 82t81.5 33t81 -33t33 -82q0 -47 -33.5 -80.5
t-80.5 -33.5t-81 33.5t-34 80.5z" />
    <glyph glyph-name="perthousand" unicode="&#x2030;" horiz-adv-x="2725" 
d="M2118 309q0 -84 55 -140t137 -56q85 0 138 55t53 141q0 88 -53 143.5t-138 55.5q-82 0 -137 -56.5t-55 -142.5zM1298 309q0 -84 55.5 -140t137.5 -56q84 0 137 54.5t53 141.5q0 88 -52.5 143.5t-137.5 55.5q-82 0 -137.5 -56.5t-55.5 -142.5zM1968 309q0 148 100 248
q99 102 242 102q146 0 248 -102q100 -100 100 -248q0 -142 -100 -239q-101 -101 -248 -101q-144 0 -242 101q-100 97 -100 239zM1149 309q0 148 100 248q99 102 242 102q146 0 248 -102q100 -100 100 -248q0 -142 -100 -239q-101 -101 -248 -101q-144 0 -242 101
q-100 97 -100 239zM322 1171q-56 -59 -56 -143q0 -85 56 -141t137 -56q84 0 137 55t53 142q0 88 -52.5 143.5t-137.5 55.5q-81 0 -137 -56zM586 100l-103 84l920 1116l104 -81zM117 1028q0 148 100 248q99 102 242 102q146 0 248 -102q100 -100 100 -248q0 -143 -100 -240
q-100 -100 -248 -100q-145 0 -242 100q-100 97 -100 240z" />
    <glyph glyph-name="guilsinglleft" unicode="&#x2039;" horiz-adv-x="643" 
d="M254 535l287 -340l-109 -95l-371 435l371 434l109 -95z" />
    <glyph glyph-name="guilsinglright" unicode="&#x203a;" horiz-adv-x="643" 
d="M389 535l-287 339l109 95l371 -434l-371 -435l-109 95z" />
    <glyph glyph-name="fraction" unicode="&#x2044;" horiz-adv-x="1064" 
d="M123 100l-103 84l920 1116l104 -81z" />
    <glyph glyph-name="foursuperior" unicode="&#x2074;" horiz-adv-x="839" 
d="M459 920v254l-189 -254h189zM737 920v-142h-139v-135h-139v135h-357v115l349 455h147v-428h139z" />
    <glyph glyph-name="Euro" unicode="&#x20ac;" horiz-adv-x="1589" 
d="M1395 399l112 -73q-93 -167 -244.5 -262t-330.5 -95q-214 0 -397 133t-244 367h-230v113h209q-4 82 -4 94q0 50 6 100h-211v113h232q65 237 252 366q189 127 411 127q307 0 494 -211l-104 -108q-156 178 -390 178q-181 0 -316.5 -93t-190.5 -259h710v-113h-735
q-6 -43 -6 -92q0 -63 8 -102h733v-113h-706q58 -169 196 -260q137 -94 297 -94q142 0 262 74.5t187 209.5z" />
    <glyph glyph-name="numero" unicode="&#x2116;" horiz-adv-x="2246" 
d="M1659 1171q-55 -58 -55 -143q0 -87 57 -141q56 -56 135 -56q84 0 137.5 55t53.5 142q0 88 -53 143.5t-138 55.5q-81 0 -137 -56zM184 0v1348h152l774 -1072v1072h152v-1348h-152l-774 1083v-1083h-152zM1454 1028q0 148 100 248q99 102 242 102q146 0 248 -102
q100 -100 100 -248q0 -143 -100 -240q-100 -100 -248 -100q-145 0 -242 100q-100 97 -100 240z" />
    <glyph glyph-name="trademark" unicode="&#x2122;" horiz-adv-x="1505" 
d="M737 666v682h150l192 -363l191 363h153v-682h-131v417l-159 -270h-105l-160 270v-417h-131zM289 666v557h-207v125h549v-125h-207v-557h-135z" />
    <glyph glyph-name="minus" unicode="&#x2212;" horiz-adv-x="909" 
d="M102 492v135h705v-135h-705z" />
    <glyph glyph-name="infinity" unicode="&#x221e;" horiz-adv-x="1730" 
d="M1241 295q107 0 179.5 76t72.5 200q0 126 -74.5 202.5t-181.5 76.5q-101 0 -186.5 -78.5t-120.5 -210.5q31 -124 119 -195t192 -71zM494 295q101 0 186.5 78.5t120.5 210.5q-31 124 -119 195t-193 71q-107 0 -179 -76t-72 -201q0 -126 74.5 -202t181.5 -76zM1245 995
q181 0 293 -127q111 -126 111 -297q0 -169 -111 -295t-301 -126q-246 0 -383 245q-137 -245 -369 -245q-181 0 -292 126t-111 297q0 169 111 295q112 127 301 127q246 0 383 -245q137 245 368 245z" />
    <glyph glyph-name="null" horiz-adv-x="0" 
 />
    <glyph glyph-name="acute.cap" horiz-adv-x="464" 
d="M0 1606l422 131l43 -146l-420 -129z" />
    <glyph glyph-name="breve.cap" horiz-adv-x="512" 
d="M354 1724h158q0 -116 -66 -189t-190 -73t-190 73t-66 189h158q0 -48 25 -82t73 -34t73 34t25 82z" />
    <glyph glyph-name="caron.cap" horiz-adv-x="684" 
d="M684 1708l-342 -254l-342 254l90 109l254 -195l250 195z" />
    <glyph glyph-name="cedilla.cap" horiz-adv-x="468" 
d="M199 29h110l-53 -148q213 -41 213 -186q0 -99 -66 -153t-170 -54q-139 0 -233 88l70 92q72 -69 151 -69q57 0 94 25.5t37 70.5q0 53 -49 81.5t-168 49.5z" />
    <glyph glyph-name="circumflex.cap" horiz-adv-x="684" 
d="M684 1563l-90 -109l-250 195l-254 -195l-90 109l342 254z" />
    <glyph glyph-name="dieresis.cap" horiz-adv-x="669" 
d="M670 1577q0 -47 -33 -80t-80 -33t-79 33t-32 80q0 44 33.5 77.5t77.5 33.5q47 0 80 -33t33 -78zM223 1577q0 -47 -32 -80t-76 -33q-47 0 -81 33t-34 80q0 45 34 78t81 33q44 0 76 -33t32 -78z" />
    <glyph glyph-name="dotaccent.cap" horiz-adv-x="225" 
d="M0 1593q0 45 33 78t80 33t79.5 -33t32.5 -78q0 -47 -32.5 -79.5t-79.5 -32.5t-80 32.5t-33 79.5z" />
    <glyph glyph-name="grave.cap" horiz-adv-x="464" 
d="M420 1462l-420 129l43 146l422 -131z" />
    <glyph glyph-name="hungarumlaut.cap" horiz-adv-x="626" 
d="M627 1733l-195 -252h-162l150 252h207zM313 1733l-153 -252h-160l106 252h207z" />
    <glyph glyph-name="macron.cap" horiz-adv-x="571" 
d="M0 1608h571v-146h-571v146z" />
    <glyph glyph-name="null001" horiz-adv-x="81" 
 />
    <glyph glyph-name="ogonek.cap" horiz-adv-x="305" 
d="M305 -252v-127q-131 12 -218 83.5t-87 170.5q0 90 82 139h117q-78 -57 -78 -135q0 -57 50.5 -94t133.5 -37z" />
    <glyph glyph-name="ring.cap" horiz-adv-x="483" 
d="M150 1792q-27 -27 -32.5 -67t7 -74.5t44 -58.5t71.5 -21q54 0 89.5 36.5t35.5 92.5q0 54 -35.5 91.5t-89.5 37.5q-56 0 -90 -37zM0 1700q0 101 69 171.5t171 70.5t172 -70q71 -71 71 -172q0 -99 -71.5 -168.5t-171.5 -69.5q-103 0 -171.5 67.5t-68.5 170.5z" />
    <glyph glyph-name="tilde.cap" horiz-adv-x="669" 
d="M463 1464q-53 0 -129 58q-76 55 -109 55q-27 7 -75 -47q-5 -5 -26 -32t-24 -30l-100 78q113 180 219 180q53 0 139 -59q82 -61 109 -61q9 0 17.5 3t17.5 10.5t16 14t17 19.5t14.5 20t15.5 23t15 22l90 -69q-7 -10 -21 -32t-18.5 -28.5t-15 -21.5t-15.5 -21t-14.5 -16.5
t-18.5 -18t-20 -16.5q-42 -31 -84 -31z" />
    </font>
</defs>
</svg>
