<svg xmlns="http://www.w3.org/2000/svg" width="25.722" height="15.896" viewBox="0 0 25.722 15.896"><defs><clipPath id="a"><path data-name="Rectangle 66" fill="none" d="M0 0h25.722v15.896H0z"/></clipPath></defs><g data-name="Group 126" clip-path="url(#a)"><path data-name="Path 150" d="M24.2 6.02a5.21 5.21 0 0 0-3.964-1.53A6.526 6.526 0 0 0 8.982 2.4a3.228 3.228 0 0 0-4.548 3.838q-.2-.02-.4-.02a4.032 4.032 0 0 0-2.9 6.83s.033.038.1.105a4.039 4.039 0 0 0 1.078.744c1.518.839 4.713 2 10.791 2 8.158 0 10.444-1.788 10.988-2.4l.095-.09A5.221 5.221 0 0 0 24.2 6.02" fill="#fff"/></g></svg>