<svg xmlns="http://www.w3.org/2000/svg" width="75.891" height="47.569" viewBox="0 0 75.891 47.569"><g data-name="Group 156"><g data-name="Group 50"><path data-name="Path 56" d="M5.811 18.379a14.851 14.851 0 0 1 11.233-4.289 18.579 18.579 0 0 1 31.894-5.864 9.157 9.157 0 0 1 13.308 8.05 8.993 8.993 0 0 1-.418 2.714q.561-.055 1.136-.055a11.366 11.366 0 0 1 11.427 11.306 11.213 11.213 0 0 1-3.2 7.844s-.094.107-.3.295a11.45 11.45 0 0 1-3.051 2.089c-4.301 2.351-13.356 5.6-30.58 5.6-23.118 0-29.594-5.012-31.138-6.738-.092-.082-.178-.169-.268-.254a14.528 14.528 0 0 1-.043-20.7" fill="none" stroke="#672567" stroke-width="3"/></g></g></svg>