<svg xmlns="http://www.w3.org/2000/svg" width="143.358" height="93.674" viewBox="0 0 143.358 93.674">
  <g id="Group_90" data-name="Group 90" transform="matrix(0.998, 0.07, -0.07, 0.998, 5.878, 0)">
    <g id="Group_50" data-name="Group 50" transform="translate(0 0)">
      <path id="Path_56" data-name="Path 56" d="M129.666,31.912A28.08,28.08,0,0,0,108.428,23.8a35.128,35.128,0,0,0-60.3-11.087,17.313,17.313,0,0,0-25.162,15.22,17,17,0,0,0,.79,5.132q-1.06-.1-2.147-.1A21.49,21.49,0,0,0,0,54.339,21.2,21.2,0,0,0,6.047,69.172s.177.2.561.557a21.649,21.649,0,0,0,5.778,3.946c8.132,4.45,25.252,10.592,57.818,10.592,43.71,0,55.954-9.477,58.873-12.739.174-.155.337-.32.507-.48a27.469,27.469,0,0,0,.082-39.135" fill="#fff"/>
    </g>
  </g>
</svg>
