<svg xmlns="http://www.w3.org/2000/svg" width="143.358" height="93.675" viewBox="0 0 143.358 93.675"><g data-name="Group 90"><g data-name="Group 50"><path data-name="Path 56" d="M10.356 40.88a28.08 28.08 0 0 1 20.62-9.571 35.128 35.128 0 0 1 59.38-15.266 17.313 17.313 0 0 1 26.165 13.427 17 17 0 0 1-.43 5.175q1.05-.174 2.134-.25a21.49 21.49 0 0 1 23.045 19.812 21.2 21.2 0 0 1-4.997 15.218s-.163.211-.521.594a21.649 21.649 0 0 1-5.489 4.34c-7.801 5.006-24.451 12.327-56.934 14.599-43.604 3.049-56.479-5.55-59.618-8.601-.185-.143-.359-.296-.54-.444A27.469 27.469 0 0 1 10.36 40.88" fill="#fff"/></g></g></svg>