<svg xmlns="http://www.w3.org/2000/svg" width="15.887" height="15.887" viewBox="0 0 15.887 15.887"><path d="M14.894 10.922h-4.143l-1.4 1.4a1.985 1.985 0 0 1-2.808 0l-1.4-1.4H.993a.993.993 0 0 0-.993.993v2.979a.993.993 0 0 0 .993.993h13.9a.993.993 0 0 0 .993-.993v-2.979a.992.992 0 0 0-.992-.993zM13.4 14.149a.745.745 0 1 1 .745-.745.747.747 0 0 1-.745.745zm-6.158-2.526a.991.991 0 0 0 1.4 0l3.972-3.972a.993.993 0 1 0-1.4-1.4L8.936 8.527V.993a.993.993 0 0 0-1.986 0v7.534L4.673 6.249a.993.993 0 0 0-1.4 1.4z" fill="#fff"/></svg>