<svg xmlns="http://www.w3.org/2000/svg" width="139.948" height="39.032" viewBox="0 0 139.948 39.032"><path d="M28.922 17.041a4.2 4.2 0 0 1 .387-1.851 2.869 2.869 0 0 1 1.13-1.323 4.031 4.031 0 0 1 3.982 0 3 3 0 0 1 1.151 1.323 4.185 4.185 0 0 1 .387 1.851zm9.262-8.152a10.774 10.774 0 0 0-5.754-1.488 9.915 9.915 0 0 0-7.671 3.207q-2.939 3.212-2.937 8.912 0 12.114 11.275 12.114a12.994 12.994 0 0 0 5.228-.9 13.335 13.335 0 0 0 3.982-2.86l-4.325-4.289a7.326 7.326 0 0 1-2.055 1.488 6.949 6.949 0 0 1-2.829.468 4.26 4.26 0 0 1-3.045-1.063 3.429 3.429 0 0 1-1.13-2.595H43.1V18.65a12.853 12.853 0 0 0-1.246-5.73 9.6 9.6 0 0 0-3.67-4.029zm19.693 13.714a3.375 3.375 0 0 1-.84 1.861 2.615 2.615 0 0 1-1.946.645 2.616 2.616 0 0 1-1.947-.645 3.375 3.375 0 0 1-.84-1.861 19.3 19.3 0 0 1-.2-3.087 11.663 11.663 0 0 1 .57-4.261 2.35 2.35 0 0 1 2.421-1.333 2.618 2.618 0 0 1 1.946.645 3.38 3.38 0 0 1 .84 1.862 19.3 19.3 0 0 1 .2 3.087 19.3 19.3 0 0 1-.2 3.087m5.235-13.049a7.882 7.882 0 0 0-5.762-2.153 7.414 7.414 0 0 0-5.465 2.2V7.66h-7.02v31.372h7.23v-9.381a7.11 7.11 0 0 0 5.293 1.98 7.827 7.827 0 0 0 5.724-2.153 6.542 6.542 0 0 0 1.808-3.561 30.554 30.554 0 0 0 .386-5.3v-2.2a30.557 30.557 0 0 0-.386-5.3 6.542 6.542 0 0 0-1.808-3.56m20.79-1.043A7.482 7.482 0 0 0 79.732 7.4a7.231 7.231 0 0 0-2.764.561 7.359 7.359 0 0 0-2.443 1.636V-.001h-7.23v31.373h7.23V16.998a2.848 2.848 0 0 1 .894-2.367 2.979 2.979 0 0 1 1.882-.71 3.032 3.032 0 0 1 1.881.693 2.84 2.84 0 0 1 .894 2.388v14.37h7.23V15.986a11.013 11.013 0 0 0-.85-4.389 6.778 6.778 0 0 0-2.55-3.083m12.052 8.527a4.2 4.2 0 0 1 .387-1.851 2.869 2.869 0 0 1 1.13-1.323 4.031 4.031 0 0 1 3.982 0 3 3 0 0 1 1.151 1.323 4.185 4.185 0 0 1 .387 1.851zm9.262-8.152a10.774 10.774 0 0 0-5.755-1.488 9.915 9.915 0 0 0-7.671 3.207q-2.938 3.212-2.937 8.912 0 12.114 11.275 12.114a12.994 12.994 0 0 0 5.228-.9 13.324 13.324 0 0 0 3.981-2.86l-4.324-4.289a7.326 7.326 0 0 1-2.055 1.488 6.949 6.949 0 0 1-2.829.468 4.26 4.26 0 0 1-3.045-1.063 3.429 3.429 0 0 1-1.13-2.595h14.179V18.65a12.844 12.844 0 0 0-1.248-5.731 9.6 9.6 0 0 0-3.669-4.029zm-87.339.531a7.189 7.189 0 0 0-5.315-2.02 8.257 8.257 0 0 0-2.958.582 7.169 7.169 0 0 0-2.55 1.615V7.659H0v9.617l7.23 6.486v-6.57a3.043 3.043 0 0 1 .935-2.538 3.036 3.036 0 0 1 3.938-.012 3.041 3.041 0 0 1 .937 2.55v11.781l2.674 2.4h4.556v-15.17a13.155 13.155 0 0 0-.494-3.789 6.986 6.986 0 0 0-1.894-2.99m115.089 10.543l-3.156-9.452-3.184-2.855h-2.784l-4.087 12.307-2.971-12.307h-7.616l7.144 23.712h5.767l4.282-13 4.26 13h5.789l3.535-11.767-5.673-5.088z" fill="#f7e8f3" fill-rule="evenodd"/></svg>