<svg data-name="Group 8" xmlns="http://www.w3.org/2000/svg" width="32.061" height="32.063" viewBox="0 0 32.061 32.063"><defs><clipPath id="a"><path data-name="Rectangle 4" fill="#672567" d="M0 0h32.061v32.063H0z"/></clipPath></defs><g data-name="Group 7" clip-path="url(#a)" fill="#672567"><path data-name="Path 13" d="M0 16.085a16.03 16.03 0 1 1 15.961 15.977A16.044 16.044 0 0 1 0 16.085m30.774-.028a14.749 14.749 0 1 0-14.78 14.727 14.777 14.777 0 0 0 14.78-14.727"/><path data-name="Path 14" d="M23.064 21.508a3 3 0 0 1-1.921 2.551.621.621 0 0 0-.434.561c-.052.864-.117 1.727-.142 2.592a1.687 1.687 0 0 1-1.911 1.7 1.73 1.73 0 0 1-1.4-2.043c.06-.588 0-1.189.006-1.783.006-.429-.252-.571-.616-.655-.711-.163-1.431-.306-2.122-.532a13.262 13.262 0 0 1-4.19-2.207 3.072 3.072 0 0 1-1.345-2.178 2.025 2.025 0 0 1 2.237-2.273 17.237 17.237 0 0 1 2.631.374 20 20 0 0 0 4.135.314 7.916 7.916 0 0 1 2.865.339 3.4 3.4 0 0 1 2.212 3.245m-2.285 1.313a1.78 1.78 0 0 0 .994-1.451 1.751 1.751 0 0 0-.883-1.641 4.109 4.109 0 0 0-2.5-.521 22.7 22.7 0 0 1-5.568-.493 7.558 7.558 0 0 0-1.7-.19.83.83 0 0 0-.71 1.334 2.551 2.551 0 0 0 .276.379 7.367 7.367 0 0 0 2.037 1.482.352.352 0 0 0 .447 0 5.749 5.749 0 0 1 4.134-1 4.4 4.4 0 0 1 3.478 2.1m-6.351-.366l-.013.107c.789.193 1.576.4 2.368.577.757.174 1.448.446 1.655 1.288a6.777 6.777 0 0 1 .164 1.406c.014.471-.067.944-.055 1.415a.529.529 0 0 0 .3.363c.215.086.364-.077.416-.282a1.425 1.425 0 0 0 .013-.4 10.436 10.436 0 0 1 .3-3.083.766.766 0 0 0-.2-.794 3.392 3.392 0 0 0-.346-.322 4.034 4.034 0 0 0-2.8-.747 4.157 4.157 0 0 0-1.793.476"/><path data-name="Path 15" d="M20.758 7.466a6.828 6.828 0 0 1 3.81 1.536c.225.187.444.381.652.586a.723.723 0 0 1 .128 1.046.792.792 0 0 1-1.141-.086 10.245 10.245 0 0 0-1.088-.894 4.817 4.817 0 0 0-2.266-.8c-.1-.011-.2-.017-.3-.032a.678.678 0 0 1-.668-.766c.041-.383.353-.616.876-.593"/><path data-name="Path 16" d="M6.456 10.18a3.307 3.307 0 0 1 .351-.567 7.017 7.017 0 0 1 4.56-2.157.7.7 0 0 1 .8.566.674.674 0 0 1-.6.789c-.672.162-1.359.284-2.011.509a3.961 3.961 0 0 0-1.618 1.124c-.391.429-.791.535-1.109.26a2.682 2.682 0 0 1-.368-.524"/><path data-name="Path 17" d="M19.868 12.119a6.167 6.167 0 0 1 2.714.581.669.669 0 0 1 .379.805.645.645 0 0 1-.768.494 3.269 3.269 0 0 1-.572-.2 4.456 4.456 0 0 0-1.948-.308c-.595.039-.961-.211-.981-.669a.686.686 0 0 1 .669-.7 4.668 4.668 0 0 1 .506 0"/><path data-name="Path 18" d="M12.28 12.025a5.416 5.416 0 0 1 .919.32c.258.143.245.445.167.7a.573.573 0 0 1-.548.427 7.884 7.884 0 0 0-1.039.043 14.687 14.687 0 0 0-1.619.415c-.469.146-.827.06-.981-.295a.681.681 0 0 1 .433-.968 7.546 7.546 0 0 1 2.669-.644"/></g></svg>