<svg data-name="Group 6" xmlns="http://www.w3.org/2000/svg" width="33.5" height="31.394" viewBox="0 0 33.5 31.394"><defs><clipPath id="a"><path data-name="Rectangle 3" fill="#672567" d="M0 0h33.5v31.394H0z"/></clipPath></defs><g data-name="Group 5" clip-path="url(#a)" fill="#672567"><path data-name="Path 1" d="M0 18.011a15.174 15.174 0 0 1 .9-5.088 22.353 22.353 0 0 1 4.056-7.658 14.821 14.821 0 0 1 9.8-5.208 7.913 7.913 0 0 1 5.749 1.595A1.991 1.991 0 0 1 21.4 3.4a1.335 1.335 0 0 0 .792 1.308A31.606 31.606 0 0 1 24.8 6.493a2.672 2.672 0 0 0 1.625.6c.522 0 1.045-.019 1.565-.056A2.878 2.878 0 0 1 30.429 8a9.277 9.277 0 0 1 2.5 5.531c.134 1.183.344 2.358.5 3.539a7.722 7.722 0 0 1-1.656 6.056 19.667 19.667 0 0 1-5.695 5.074 22.568 22.568 0 0 1-6.8 2.47c-1.3.254-2.606.483-3.911.712a.978.978 0 0 1-.471-.037c-1.036-.362-2.064-.745-3.1-1.107a16.958 16.958 0 0 0-2.172-.707 9.5 9.5 0 0 1-5.786-3.5c-.769-.978-1.565-1.94-2.27-2.964A8.792 8.792 0 0 1 0 18.011M12.533 5.3a1.436 1.436 0 0 1-2.319-.874q-.151-.686-.344-1.361a.356.356 0 0 0-.588-.194c-.219.154-.42.333-.639.488a16.77 16.77 0 0 0-4.617 4.92A20.107 20.107 0 0 0 1.1 17a8.685 8.685 0 0 0 .63 4.291 13.958 13.958 0 0 0 2.839 3.918 9.65 9.65 0 0 0 6.362 3.406 1.655 1.655 0 0 0 1.187-.362 3.95 3.95 0 0 1 1.2-.7 11.314 11.314 0 0 1 1.9-.253 1.224 1.224 0 0 1 1.269.665 9.278 9.278 0 0 0 .8 1.247.972.972 0 0 0 .688.382 23.614 23.614 0 0 0 3.437-.577 18.285 18.285 0 0 0 9.524-6.513 5.826 5.826 0 0 0 1.339-2.878 17.751 17.751 0 0 0-.185-5.362 9.728 9.728 0 0 0-2.445-5.526c-.605-.6-.849-.569-1.3.148a8.048 8.048 0 0 1-1.307 1.6c-.512.475-.9.359-1.27-.232a81.97 81.97 0 0 1-1.038-1.712.748.748 0 0 0-.81-.375 1.287 1.287 0 0 1-.752-.121 9.9 9.9 0 0 1-1.048-.877c-.343.23-.726.527-1.146.758a1.237 1.237 0 0 1-1.264.111c-.4-.245-.338-.724-.344-1.135a2.043 2.043 0 0 1 .078-.475q.161-.7.332-1.406a5.819 5.819 0 0 0-.033-2.316c-.155.19-.23.3-.324.394a4.874 4.874 0 0 1-2.21 1.332 1.012 1.012 0 0 1-1.234-.407 4.776 4.776 0 0 1-.663-1.308 10.824 10.824 0 0 1-.141-1.8l-3.923 1.071c.094.514.2.984.262 1.46A2.188 2.188 0 0 0 12.533 5.3"/><path data-name="Path 2" d="M4.34 19.726a4.778 4.778 0 0 1 .474-.758c.46-.5.94-.99 1.441-1.45 1.142-1.05 2.063-1.025 3.183.056a2.339 2.339 0 0 1 .116 3.484.5.5 0 0 1-.119.107 5.065 5.065 0 0 1-3.831.472 1.679 1.679 0 0 1-1.167-1.846l-.1-.065"/><path data-name="Path 3" d="M26.009 16.267c.15-1.351.5-2.268 1.581-2.666a2.813 2.813 0 0 1 2.314.323 3.281 3.281 0 0 1 .842.662 1.634 1.634 0 0 1 .115 2.227 3.088 3.088 0 0 1-3.138 1.3c-.8-.238-1.834-1.194-1.714-1.847"/><path data-name="Path 4" d="M22.782 20.82c-.169-.12-.3-.2-.426-.307a3.5 3.5 0 0 1-.273-.284c.473-.561.8-.65 1.429-.31a2.7 2.7 0 0 1 1.533 2.2 1.49 1.49 0 0 1-1.321 1.783 10.968 10.968 0 0 1-1.948.179 1.723 1.723 0 0 1-1.537-1.747.853.853 0 0 1 .262-.471 4.616 4.616 0 0 1 2.281-1.044"/><path data-name="Path 5" d="M5.56 9.692c.141-.579.248-1.17.432-1.736a1.71 1.71 0 0 1 2.236-.918 3.594 3.594 0 0 1 1.5 1.233 1.321 1.321 0 0 1 .155 1.3 3.864 3.864 0 0 1-1.144 1.619 2.053 2.053 0 0 1-2.642-.088 1.984 1.984 0 0 1-.538-1.409m2.39.839a13.131 13.131 0 0 0 .78-1.262.783.783 0 0 0-.092-.611c-.039-.07-.379-.076-.483.009a1.372 1.372 0 0 0-.206 1.863"/><path data-name="Path 6" d="M14.471 14.905a2.134 2.134 0 0 1 1.906-2.2 2.251 2.251 0 0 1 2.064 1.893 2.411 2.411 0 0 1-2.152 2.3 1.89 1.89 0 0 1-1.818-2"/><path data-name="Path 7" d="M9.01 13.487c-.294.28-.518.521-.77.729-.368.3-.768.569-1.13.879a2.691 2.691 0 0 1-2.5.64 3.051 3.051 0 0 0-2.146.137 3.315 3.315 0 0 1-.689.175 1.122 1.122 0 0 1 .877-1.377 3.355 3.355 0 0 1 1.216-.1 6.87 6.87 0 0 0 2.231.032 2.091 2.091 0 0 0 1.267-.708c.428-.56.971-.487 1.64-.41"/><path data-name="Path 8" d="M17.37 22.978a1.131 1.131 0 0 1-1.29.09c-.379-.247-.811-.417-1.168-.69a2.492 2.492 0 0 1-1-2.046 3.069 3.069 0 0 1-.67.322.659.659 0 0 1-.546-.114c-.164-.193.028-.361.208-.47.148-.09.3-.174.452-.255.808-.427 1.239-.251 1.461.684a2.491 2.491 0 0 0 1.748 1.93 4.049 4.049 0 0 1 .808.549"/><path data-name="Path 9" d="M22.184 15.783c-.777-.3-1.524-.582-2.263-.881a.456.456 0 0 1-.26-.259c-.014-.067.13-.2.231-.256a1.535 1.535 0 0 1 2.292 1.4"/><path data-name="Path 10" d="M23.984 26.296l-1.843.889c.008-.4-.185-.725.157-.934a1.231 1.231 0 0 1 1.685.045"/><path data-name="Path 11" d="M13.877 8.778c-.12-.845.023-1.122.746-1.431.073-.031.2-.056.238-.019a.335.335 0 0 1 .1.27 1.613 1.613 0 0 1-1.08 1.18"/><path data-name="Path 12" d="M27.634 24.188l-.621-.246.506-1.107.53.207-.415 1.146"/></g></svg>