<svg xmlns="http://www.w3.org/2000/svg" width="106.846" height="110.66" viewBox="0 0 106.846 110.66"><defs><clipPath id="a"><path data-name="Rectangle 38" fill="#8a5fa1" d="M0 0h84.823v74.403H0z"/></clipPath></defs><g data-name="Group 83"><g data-name="Group 81" transform="rotate(120 42.684 49.444)" clip-path="url(#a)"><path data-name="Path 108" d="M52.977 61.615c0 2.718-.011 5.353 0 7.989a4.62 4.62 0 0 0 1.575 3.775c1.592 1.313 3.487 1.366 5.5.148q8.584-5.186 17.157-10.387c1.745-1.057 3.5-2.1 5.236-3.17 3.158-1.942 3.167-5.686-.015-7.619Q71.21 45.53 59.95 38.767c-3.455-2.076-6.936-.086-6.969 3.962-.019 2.229 0 4.459 0 6.688v.956a35.613 35.613 0 0 1-9.053-1.561c-17-5.324-27.676-16.642-31.812-33.968a55.151 55.151 0 0 1-.984-8.951C10.942 3.224 9.624 1.1 7.384.324A5.555 5.555 0 0 0 0 5.89a54.024 54.024 0 0 0 5.562 23.887C13.792 46.23 27 56.368 44.858 60.534c1.309.305 2.658.444 3.994.621s2.671.3 4.125.46" fill="#8a5fa1"/></g></g></svg>