<svg xmlns="http://www.w3.org/2000/svg" width="113.839" height="37.159" viewBox="0 0 113.839 37.159"><g fill="#f7e8f3"><path data-name="Path 91" d="M14.02 0h1.013a13.814 13.814 0 0 1 9.455 3.992c-.917.936-1.853 1.834-2.75 2.77a10.331 10.331 0 0 0-17.344 6.226A10.633 10.633 0 0 0 6.703 21.2a10.223 10.223 0 0 0 7.449 3.667 9.916 9.916 0 0 0 7.411-2.54 8.09 8.09 0 0 0 2.464-5.272c-3.171 0-6.341.019-9.512 0v-3.933h13.353c.688 4.221-.306 8.977-3.514 12a13.054 13.054 0 0 1-8.118 3.648 14.909 14.909 0 0 1-8.533-1.686A14.7 14.7 0 0 1 .879 19.31a14.083 14.083 0 0 1-.1-9.531 14.542 14.542 0 0 1 5.257-6.971A15 15 0 0 1 14.02 0z"/><path data-name="Path 92" d="M90.613.993H94.7v27.275c-1.356 0-2.731.019-4.087-.019.019-9.073 0-18.164 0-27.256z"/><path data-name="Path 93" d="M36.96 10.448a9.6 9.6 0 0 1 7.335 1.566 8.971 8.971 0 0 1 3.61 5.73 9.236 9.236 0 0 1-9.7 11.078 9.3 9.3 0 0 1-6.953-3.725 9.548 9.548 0 0 1-1.261-8.672 9.064 9.064 0 0 1 6.972-5.978m.573 3.629a5.135 5.135 0 0 0-2.674 1.7 6.058 6.058 0 0 0 .306 7.888 5.086 5.086 0 0 0 4.546 1.413 5.144 5.144 0 0 0 3.549-2.611 6.041 6.041 0 0 0-1.031-7.182 5.153 5.153 0 0 0-4.699-1.207z"/><path data-name="Path 94" d="M57.207 10.448a9.287 9.287 0 0 1 9.092 14.956 9.447 9.447 0 0 1-14.8-.306 9.64 9.64 0 0 1-1.2-8.863 9.072 9.072 0 0 1 6.914-5.787m.573 3.629a5.223 5.223 0 0 0-2.674 1.681 6.067 6.067 0 0 0 .21 7.812 5.111 5.111 0 0 0 4.66 1.509 5.24 5.24 0 0 0 3.553-2.617 6.073 6.073 0 0 0-1.07-7.2 5.12 5.12 0 0 0-4.686-1.185z"/><path data-name="Path 95" d="M74.377 11.556a7.809 7.809 0 0 1 7.487-.573 7.136 7.136 0 0 1 1.948 1.433c.019-.516 0-1.051.019-1.585 1.28.019 2.559 0 3.858.019v16.846a10.067 10.067 0 0 1-2.5 7.086 9.1 9.1 0 0 1-7.85 2.254 8.882 8.882 0 0 1-6.685-5.329c1.146-.554 2.349-.993 3.534-1.509a5.253 5.253 0 0 0 3.725 3.209 4.95 4.95 0 0 0 4.775-1.528c1.184-1.452 1.184-3.438 1.127-5.214a6.781 6.781 0 0 1-3.113 1.91 8.394 8.394 0 0 1-7.621-1.967 9.4 9.4 0 0 1 1.3-15.051m3.954 2.445a5.025 5.025 0 0 0-3 1.738 6.094 6.094 0 0 0 .019 7.659 5 5 0 0 0 4.3 1.757 4.853 4.853 0 0 0 3.648-2.426 6.447 6.447 0 0 0-.649-7.22 4.7 4.7 0 0 0-4.322-1.509z"/><path data-name="Path 96" d="M99.609 12.53a8.62 8.62 0 0 1 8.766-1.738c2.789 1.051 4.565 3.705 5.463 6.437-4.145 1.719-8.27 3.419-12.415 5.138a4.926 4.926 0 0 0 2.636 2.483 5.35 5.35 0 0 0 5.043-.726 8.131 8.131 0 0 0 1.413-1.509c1.05.707 2.1 1.394 3.152 2.1a9.352 9.352 0 0 1-14.765.936 9.791 9.791 0 0 1 .707-13.122m2.044 3.534a5.454 5.454 0 0 0-.9 3.209q4.154-1.719 8.309-3.457a3.436 3.436 0 0 0-2.687-1.89 4.881 4.881 0 0 0-4.722 2.139z"/></g></svg>