<svg xmlns="http://www.w3.org/2000/svg" width="175.51" height="36.123" viewBox="0 0 175.51 36.123"><path data-name="6195f4d6a007633f4719ed86_Men's Health Magazine" d="M139.726.3c-1.292.148-2.986.338-3.764.422l-1.415.153V2.9h1.928v30.584h-1.205v2.176h9.154v-2.176h-1.807V0l-.271.015c-.149.009-1.328.137-2.62.285zm21.805-.051c-1.027.121-2.667.312-3.643.425l-1.777.205V2.9h1.807v30.57l-.632.037-.632.037-.035 1.058-.034 1.058h8.691l-.034-1.058-.035-1.058-.639-.037-.639-.037.041-8.908c.038-8.1.06-8.966.253-9.545.422-1.27 1.369-1.915 2.369-1.614.961.289.9-.409.936 10.435l.033 9.646h-1.331v2.176h9.285l-.034-1.058-.035-1.058-.869-.035-.869-.035-.034-10.239c-.043-10.195-.043-10.243-.305-10.935a4.324 4.324 0 0 0-2.6-2.71 7.728 7.728 0 0 0-3.812.066 6.075 6.075 0 0 0-2.574 1.7l-.572.638V6c0-5.636-.012-6-.21-5.982a85.7 85.7 0 0 0-2.07.231zM0 1.39v1.028h1.931v31.066H0v2.176h7.237l-.035-1.06-.035-1.058-1.114-.032-1.114-.035.01-10.724c.005-5.9.032-10.669.059-10.6.048.116 5.593 23.393 5.593 23.477 0 .023.745.026 1.656.007l1.654-.035 2.736-11.725c1.5-6.449 2.759-11.807 2.787-11.907s.057 4.7.065 10.668l.014 10.849h-2.047v2.175h10.359v-2.176h-1.566V2.418h1.566V.36l-4.547.031-4.547.032-2.229 9.753c-1.226 5.364-2.256 9.779-2.289 9.81s-.7-2.59-1.49-5.825-1.864-7.661-2.392-9.84L9.361.363H0zm59.865 1.753v2.78h1.566V10.4h1.992l.874-3.536c.849-3.433.874-3.579.871-5.017V.366h-5.3zm17.587-1.758v1.022l.934.035.933.035.031 15.5.031 15.5-.934.035-.934.035-.036 1.053-.035 1.058h10.85v-2.174h-2.288V19.462h6.866v14.012l-1.054.035-1.054.035-.031 1.056-.035 1.058h10.725v-2.174h-1.806V2.418h1.807V.363H90.701v2.055h2.168v14.63l-3.4-.032-3.4-.032V2.478l1.114-.035 1.114-.035V.363H77.452zm70.279 4.961l-1.792 3.808h-2.13l.035 1 .034 1 .934.035.934.035v9.635c0 5.969.048 9.924.124 10.4.322 1.986 1.1 3.03 2.646 3.537a6.49 6.49 0 0 0 2.529.3 4.072 4.072 0 0 0 2.5-.412c2.094-.985 2.739-2.679 2.653-6.961l-.036-1.813h-2.289l-.06 2.72c-.065 2.921-.122 3.2-.683 3.34a.853.853 0 0 1-1.087-.562c-.106-.312-.145-2.977-.151-10.3l-.007-9.882h4.345l-.034-1.179-.034-1.179-2.078-.033-2.078-.033V2.538h-2.487zM35.278 9.317c-5.1.542-8.236 6.648-7.808 15.2.182 3.637.8 6 2.11 8.026a7.487 7.487 0 0 0 6.077 3.56 9.936 9.936 0 0 0 3.677-.455 5.8 5.8 0 0 0 3.297-3.593 15.642 15.642 0 0 0 .608-4.166v-1.062l-1.235.034-1.235.034-.075 1.571c-.1 2.084-.393 3.041-1.173 3.825a2.531 2.531 0 0 1-2.259.792c-2.234-.23-3-2.107-3.143-7.669l-.068-2.69h4.707c2.589 0 4.73-.041 4.757-.091a47.927 47.927 0 0 0-.336-5.749c-.406-2.739-1.208-4.74-2.366-5.9a6.521 6.521 0 0 0-5.535-1.667zm73.534-.006a6.907 6.907 0 0 0-4.252 2.047c-2.285 2.266-3.533 5.9-3.7 10.782-.191 5.422.92 9.425 3.267 11.775a7.191 7.191 0 0 0 5.069 2.19 8.147 8.147 0 0 0 4.116-.747c2.1-1.039 3.21-3.4 3.313-7.072l.039-1.39-1.216-.034-1.215-.034-.073 1.442c-.152 3.025-.883 4.411-2.511 4.753a2.521 2.521 0 0 1-3.031-1.373c-.587-1.243-.924-3.848-.926-7.14v-1.783h9.312l-.082-2.014c-.21-5.145-1.008-8-2.721-9.718a4.955 4.955 0 0 0-2.633-1.5 7.483 7.483 0 0 0-2.756-.184zm-61.835.464l-3.794.439-.035 1.058-.035 1.058h1.818v21.154h-1.809v2.176h9.284l-.034-1.06-.035-1.058-.572-.037-.572-.037v-8.84c0-7.917.021-8.916.2-9.565.376-1.347 1.454-2.037 2.5-1.6.825.346.794-.061.794 10.525v9.493h-1.326v2.179h8.67v-2.176h-1.2v-9.64c0-10.423-.03-10.9-.646-12.162a4.021 4.021 0 0 0-3.213-2.263 6.059 6.059 0 0 0-5.267 1.781l-.753.767v-1.328a4.807 4.807 0 0 0-.09-1.317c-.05.008-1.798.212-3.885.453zm22.108-.34a6.829 6.829 0 0 0-5.759 4.642 10.353 10.353 0 0 0 .053 4.975c.643 2.127 1.289 2.937 5.672 7.118 1.494 1.426 1.69 1.661 2.1 2.538a3.483 3.483 0 0 1 .453 2.115 2.8 2.8 0 0 1-.8 2.382 3.018 3.018 0 0 1-3.579.107c-1.173-.868-1.848-2.8-2.048-5.87l-.075-1.152-.994-.035-.994-.035v8.58l.994.386a12.685 12.685 0 0 0 5.029.889c2.715 0 4.2-.49 5.723-1.89 2.086-1.918 2.739-5.2 1.692-8.507-.615-1.943-1.705-3.3-4.606-5.747-2.043-1.72-2.809-2.55-3.327-3.605a3.208 3.208 0 0 1-.385-1.934 2.744 2.744 0 0 1 .3-1.691 2.076 2.076 0 0 1 2.029-1.09 2.317 2.317 0 0 1 2.016.872 7.464 7.464 0 0 1 1.422 4.082c.036.366.1.98.139 1.365l.073.7.984-.035.985-.035.032-3.905.032-3.905-.813-.37a13.164 13.164 0 0 0-6.349-.945zm55.525.043a7.556 7.556 0 0 0-5.047 3.184 6.969 6.969 0 0 0-1.25 4.11l-.06 1.481h5.453v-2.4c0-3.553.21-4.072 1.65-4.072.7 0 .81.034 1.062.328.445.519.55 1.369.513 4.185l-.033 2.577-1.523.584c-5.844 2.238-7.46 4.088-7.656 8.766-.175 4.161.926 6.756 3.241 7.638a5.573 5.573 0 0 0 1.783.206 3.486 3.486 0 0 0 1.955-.313 5.181 5.181 0 0 0 2.165-1.808l.518-.715.034 1.213.034 1.214h6.982l-.035-1.058-.034-1.058-.632-.037-.632-.037v-8.7c0-8.993-.06-10.423-.489-11.675a5.074 5.074 0 0 0-3.876-3.483 12.516 12.516 0 0 0-4.124-.129zm-87.865 2.735c.655.352.934 1.824 1.037 5.466l.078 2.75h-3.772v-1.42c0-3.694.544-6.378 1.371-6.78a1.786 1.786 0 0 1 1.286-.016zm73.584.214c.491.493.714 1.665.85 4.474.063 1.309.116 2.638.117 2.954v.574h-3.652l.08-2.327c.125-3.681.515-5.616 1.187-5.887a1.247 1.247 0 0 1 1.42.211zm16.602 13.593c-.034 4.658-.046 4.889-.291 5.418a1.428 1.428 0 0 1-2.182.665c-.539-.455-.656-1-.722-3.349-.094-3.387.216-4.97 1.19-6.081a7.71 7.71 0 0 1 1.945-1.512c.06-.004.083 2.183.06 4.859z" fill="#f7e8f3" fill-rule="evenodd"/></svg>