<svg data-name="Group 114" xmlns="http://www.w3.org/2000/svg" width="137.5" height="75.698" viewBox="0 0 137.5 75.698"><defs><clipPath id="a"><path data-name="Rectangle 62" fill="none" d="M0 0h137.5v75.698H0z"/></clipPath></defs><g data-name="Group 113" clip-path="url(#a)" fill="#8a5fa1"><path data-name="Path 137" d="M5.227 74.849a2.5 2.5 0 0 1-1.848.659 2.5 2.5 0 0 1-1.848-.659 2.468 2.468 0 0 1-.659-1.827v-9.73a3.652 3.652 0 0 1 .786-2.528 2.877 2.877 0 0 1 2.252-.871 3.444 3.444 0 0 1 2.167.627 5.462 5.462 0 0 1 1.466 2.029l2.4 5.12h.046l2.337-5.1a5.53 5.53 0 0 1 1.423-2.039 3.135 3.135 0 0 1 2.039-.637 3.231 3.231 0 0 1 2.422.871 3.477 3.477 0 0 1 .85 2.528v9.73a2.47 2.47 0 0 1-.659 1.827 2.5 2.5 0 0 1-1.848.659 2.5 2.5 0 0 1-1.848-.659 2.468 2.468 0 0 1-.659-1.827v-3.973h-.043l-1.614 3.866a8.053 8.053 0 0 1-1.1 2 1.632 1.632 0 0 1-1.3.595 1.707 1.707 0 0 1-1.317-.584 7.021 7.021 0 0 1-1.1-1.986l-1.636-3.888h-.047v3.973a2.47 2.47 0 0 1-.659 1.827"/><path data-name="Path 138" d="M27.257 75.507a2.924 2.924 0 0 1-2.146-.754 2.834 2.834 0 0 1-.765-2.114v-2.507l-3.25-6.012a4.142 4.142 0 0 1-.574-2 2.092 2.092 0 0 1 .669-1.614 2.706 2.706 0 0 1 1.9-.616 2.255 2.255 0 0 1 1.519.467 5.7 5.7 0 0 1 1.179 1.848l1.423 3.229h.042l1.381-3.229a5.7 5.7 0 0 1 1.179-1.848 2.255 2.255 0 0 1 1.519-.467 2.706 2.706 0 0 1 1.9.616 2.092 2.092 0 0 1 .669 1.614 4.141 4.141 0 0 1-.574 2l-3.208 6.012v2.507a2.62 2.62 0 0 1-2.868 2.868"/><path data-name="Path 139" d="M47.333 75.698a8.692 8.692 0 0 1-6.129-2.1 8.568 8.568 0 0 1 .064-11.716 8.665 8.665 0 0 1 6.065-2.135 6.5 6.5 0 0 1 3.463.786 2.54 2.54 0 0 1 1.3 2.273 2.375 2.375 0 0 1-.584 1.636 1.912 1.912 0 0 1-1.5.659 4.421 4.421 0 0 1-1.19-.2 4.487 4.487 0 0 0-1.211-.2 3.16 3.16 0 0 0-2.146.776 3.33 3.33 0 0 0-.021 4.514 3.106 3.106 0 0 0 2.124.765 4.811 4.811 0 0 0 1.243-.2 4.775 4.775 0 0 1 1.221-.2 1.913 1.913 0 0 1 1.5.659 2.376 2.376 0 0 1 .584 1.636 2.551 2.551 0 0 1-1.36 2.315 6.628 6.628 0 0 1-3.42.744"/><path data-name="Path 140" d="M61.222 75.677a8.313 8.313 0 0 1-6.065-2.146 8.6 8.6 0 0 1 .042-11.535 9.052 9.052 0 0 1 11.95 0 8.618 8.618 0 0 1 .074 11.535 8.179 8.179 0 0 1-6 2.146m-1.88-5.661a2.565 2.565 0 0 0 3.675 0 4.073 4.073 0 0 0-.021-4.631 2.565 2.565 0 0 0-3.633 0 4.073 4.073 0 0 0-.021 4.631"/><path data-name="Path 141" d="M78.901 75.677a8.312 8.312 0 0 1-6.065-2.146 8.6 8.6 0 0 1 .042-11.535 9.052 9.052 0 0 1 11.95 0 8.618 8.618 0 0 1 .074 11.535 8.179 8.179 0 0 1-6 2.146m-1.88-5.661a2.565 2.565 0 0 0 3.675 0 4.073 4.073 0 0 0-.021-4.631 2.565 2.565 0 0 0-3.633 0 4.073 4.073 0 0 0-.021 4.631"/><path data-name="Path 142" d="M93.559 74.795a2.677 2.677 0 0 1-2 .712 2.714 2.714 0 0 1-2.008-.712 2.684 2.684 0 0 1-.712-1.986V62.586a2.685 2.685 0 0 1 .712-1.986 2.715 2.715 0 0 1 2.008-.712 2.678 2.678 0 0 1 2 .712 2.709 2.709 0 0 1 .7 1.986v2.613h1.232l1.976-3.845a2.284 2.284 0 0 1 2.379-1.466 2.832 2.832 0 0 1 1.954.744 2.491 2.491 0 0 1 .552 3l-2.273 4.1 2.231 3.951a2.472 2.472 0 0 1 .3 1.19 2.4 2.4 0 0 1-.86 1.88 2.978 2.978 0 0 1-2.029.754 2.586 2.586 0 0 1-1.466-.372 3.277 3.277 0 0 1-1-1.2l-1.933-3.718H94.26v2.592a2.709 2.709 0 0 1-.7 1.986"/><path data-name="Path 143" d="M107.028 75.507a2.751 2.751 0 0 1-2.018-.712 2.661 2.661 0 0 1-.722-1.986V62.586a2.662 2.662 0 0 1 .722-1.986 2.752 2.752 0 0 1 2.018-.712 2.47 2.47 0 0 1 2.7 2.7v10.218a2.47 2.47 0 0 1-2.7 2.7"/><path data-name="Path 144" d="M121.009 75.507h-6.118a2.594 2.594 0 0 1-2.868-2.868v-9.878a2.594 2.594 0 0 1 2.868-2.868h6.118a2.1 2.1 0 0 1 1.477 3.505 2.018 2.018 0 0 1-1.477.531h-3.548v1.657h2.826a2.088 2.088 0 0 1 1.561.574 2.122 2.122 0 0 1-1.561 3.675h-2.826v1.636h3.548a2.1 2.1 0 0 1 1.477 3.505 2.018 2.018 0 0 1-1.477.531"/><path data-name="Path 145" d="M137.3 70.578q0 5.12-6.5 5.12a9.186 9.186 0 0 1-5.014-1.211 2.609 2.609 0 0 1-1.444-2.252 2.353 2.353 0 0 1 .573-1.636 1.957 1.957 0 0 1 1.529-.637 5.364 5.364 0 0 1 1.933.584 5.431 5.431 0 0 0 2.082.584q.913 0 .914-.531a.4.4 0 0 0-.074-.234.57.57 0 0 0-.255-.181q-.181-.074-.329-.127t-.446-.127a4.516 4.516 0 0 1-.467-.138q-.573-.191-.712-.234t-.722-.255a5.716 5.716 0 0 1-.786-.329q-.2-.117-.7-.393a2.656 2.656 0 0 1-.712-.521q-.213-.244-.552-.627a2.446 2.446 0 0 1-.489-.8 9.055 9.055 0 0 1-.276-.945 4.906 4.906 0 0 1-.127-1.147 4.259 4.259 0 0 1 1.593-3.537 6.753 6.753 0 0 1 4.313-1.264 9.027 9.027 0 0 1 4.971 1.168 2.239 2.239 0 0 1 1.126 1.891 2.483 2.483 0 0 1-.563 1.689 1.909 1.909 0 0 1-1.519.648 4.876 4.876 0 0 1-1.848-.435 4.567 4.567 0 0 0-1.551-.436q-.68 0-.68.51a.479.479 0 0 0 .032.17.274.274 0 0 0 .117.138l.159.1a1.41 1.41 0 0 0 .223.1 2.035 2.035 0 0 0 .244.074q.1.022.276.074c.12.035.216.06.287.074q.021 0 .616.181t.722.223q.128.043.68.244a4.9 4.9 0 0 1 .744.319q.191.117.658.382a2.542 2.542 0 0 1 .659.489q.191.223.51.584a2.167 2.167 0 0 1 .446.743q.127.382.244.871a4.476 4.476 0 0 1 .117 1.041"/><path data-name="Path 146" d="M136.294 56.463h-.012a1.206 1.206 0 0 1-1.193-1.218c.069-6.84-2.531-16.447-7.635-21.573a1.206 1.206 0 1 1 1.709-1.7c5.832 5.857 8.41 16.183 8.338 23.3a1.206 1.206 0 0 1-1.206 1.193"/><path data-name="Path 147" d="M1.206 56.245A1.206 1.206 0 0 1 0 55.04a22.409 22.409 0 0 1 22.385-22.383q.259 0 .519.006a18.148 18.148 0 0 1 25.153-20.351 35.48 35.48 0 0 1 60.283 11.24 28.7 28.7 0 0 1 20.82 8.418 1.206 1.206 0 0 1-1.708 1.7 26.279 26.279 0 0 0-19.9-7.681 1.206 1.206 0 0 1-1.206-.828 33.066 33.066 0 0 0-57.03-10.6 1.206 1.206 0 0 1-1.484.31 15.562 15.562 0 0 0-7.175-1.731A15.754 15.754 0 0 0 25.64 33.606a1.206 1.206 0 0 1-1.269 1.56c-.656-.065-1.324-.1-1.986-.1A20 20 0 0 0 2.411 55.04a1.206 1.206 0 0 1-1.206 1.206"/></g></svg>