<svg xmlns="http://www.w3.org/2000/svg" width="117.765" height="35.086" viewBox="0 0 117.765 35.086"><path d="M80.031 2.087H68.662l.017 10.846-16.091 10.032-3.31-1.935L65.369 10.9l-7.18-4.583L42 16.447l-2.749-1.834L55.287 4.531 48.056 0 29.77 11.453c-2.586-6.6-9.241-9.364-17.38-9.364H0v31.285h15.213c7.2 0 12.764-3.728 14.831-9.792l18.267 11.5 20.362-12.789-.01 11.079h21.422V23.331H80.032V2.087zM12.888 24h-1.519V11.88h1.519c4.15 0 6.68 1.867 6.68 6.266 0 4.106-2.9 5.849-6.68 5.849zm91.077-21.913H92.6v31.287h21.421V23.332h-10.056zm8.5-.193h.894v2.324h.356V1.895h.894v-.316h-2.144zm4.79-.316l-.75 2.231h-.005l-.753-2.231h-.511v2.64h.346V2.659c0-.077-.007-.411-.007-.655h.007l.743 2.213h.353L117.419 2h.007c0 .246-.007.581-.007.659v1.559h.346V1.579h-.51z" fill="#f7e8f3"/></svg>