<svg data-name="Group 98" xmlns="http://www.w3.org/2000/svg" width="193.904" height="106.751" viewBox="0 0 193.904 106.751"><defs><clipPath id="a"><path data-name="Rectangle 53" fill="#8a5fa1" d="M0 0h193.904v106.751H0z"/></clipPath></defs><g data-name="Group 97" clip-path="url(#a)" fill="#8a5fa1"><path data-name="Path 111" d="M7.371 105.554a3.524 3.524 0 0 1-2.606.929 3.523 3.523 0 0 1-2.606-.929 3.481 3.481 0 0 1-.929-2.576V89.254a5.151 5.151 0 0 1 1.108-3.565 4.058 4.058 0 0 1 3.176-1.228 4.856 4.856 0 0 1 3.056.884 7.7 7.7 0 0 1 2.067 2.861l3.385 7.22h.06l3.3-7.19a7.8 7.8 0 0 1 2.007-2.876 4.421 4.421 0 0 1 2.876-.9 4.556 4.556 0 0 1 3.415 1.228 4.9 4.9 0 0 1 1.2 3.565v13.721a3.483 3.483 0 0 1-.933 2.58 3.524 3.524 0 0 1-2.606.929 3.522 3.522 0 0 1-2.606-.929 3.481 3.481 0 0 1-.929-2.576v-5.6h-.059l-2.277 5.452a11.355 11.355 0 0 1-1.558 2.816 2.3 2.3 0 0 1-1.827.839 2.407 2.407 0 0 1-1.857-.824 9.9 9.9 0 0 1-1.561-2.807L8.36 97.372H8.3v5.6a3.483 3.483 0 0 1-.929 2.576"/><path data-name="Path 112" d="M38.439 106.48a4.124 4.124 0 0 1-3.026-1.064 4 4 0 0 1-1.078-2.981V98.9l-4.584-8.478a5.84 5.84 0 0 1-.809-2.816 2.951 2.951 0 0 1 .944-2.277 3.817 3.817 0 0 1 2.681-.869 3.18 3.18 0 0 1 2.142.659 8.042 8.042 0 0 1 1.663 2.607l2.007 4.554h.06l1.947-4.554a8.042 8.042 0 0 1 1.663-2.607 3.179 3.179 0 0 1 2.142-.659 3.817 3.817 0 0 1 2.681.869 2.951 2.951 0 0 1 .944 2.277 5.84 5.84 0 0 1-.809 2.816L42.483 98.9v3.535a3.694 3.694 0 0 1-4.044 4.044"/><path data-name="Path 113" d="M66.749 106.751a12.258 12.258 0 0 1-8.643-2.966q-3.221-2.966-3.221-8.268a10.6 10.6 0 0 1 3.31-8.254 12.22 12.22 0 0 1 8.553-3.011 9.166 9.166 0 0 1 4.883 1.108 3.581 3.581 0 0 1 1.827 3.206 3.35 3.35 0 0 1-.824 2.307 2.7 2.7 0 0 1-2.112.929 6.237 6.237 0 0 1-1.678-.285 6.323 6.323 0 0 0-1.708-.285 4.457 4.457 0 0 0-3.026 1.094 4.7 4.7 0 0 0-.03 6.366 4.381 4.381 0 0 0 3 1.078 6.787 6.787 0 0 0 1.753-.284 6.73 6.73 0 0 1 1.723-.285 2.7 2.7 0 0 1 2.112.929 3.351 3.351 0 0 1 .824 2.307 3.6 3.6 0 0 1-1.917 3.265 9.348 9.348 0 0 1-4.823 1.049"/><path data-name="Path 114" d="M86.342 106.721q-5.453 0-8.553-3.026a12.131 12.131 0 0 1 .059-16.264 12.766 12.766 0 0 1 16.852 0 12.153 12.153 0 0 1 .1 16.267q-3.071 3.026-8.463 3.026m-2.651-7.984a3.617 3.617 0 0 0 5.183 0 5.744 5.744 0 0 0-.03-6.531 3.617 3.617 0 0 0-5.123 0 5.744 5.744 0 0 0-.03 6.531"/><path data-name="Path 115" d="M111.267 106.721q-5.453 0-8.553-3.026a12.131 12.131 0 0 1 .06-16.267 12.766 12.766 0 0 1 16.852 0 12.152 12.152 0 0 1 .1 16.267q-3.071 3.026-8.463 3.026m-2.651-7.984a3.617 3.617 0 0 0 5.183 0 5.743 5.743 0 0 0-.03-6.531 3.617 3.617 0 0 0-5.123 0 5.744 5.744 0 0 0-.03 6.531"/><path data-name="Path 116" d="M131.938 105.477a3.775 3.775 0 0 1-2.816 1 3.826 3.826 0 0 1-2.831-1 3.785 3.785 0 0 1-1-2.8v-14.41a3.785 3.785 0 0 1 1-2.8 3.829 3.829 0 0 1 2.831-1 3.777 3.777 0 0 1 2.816 1 3.821 3.821 0 0 1 .989 2.8v3.688h1.738l2.786-5.422a3.22 3.22 0 0 1 3.355-2.067 3.993 3.993 0 0 1 2.756 1.049 3.512 3.512 0 0 1 .779 4.224l-3.206 5.782 3.146 5.572a3.487 3.487 0 0 1 .419 1.678 3.381 3.381 0 0 1-1.213 2.651 4.2 4.2 0 0 1-2.861 1.064 3.646 3.646 0 0 1-2.067-.524 4.622 4.622 0 0 1-1.408-1.693l-2.726-5.243h-1.5v3.655a3.82 3.82 0 0 1-.989 2.8"/><path data-name="Path 117" d="M150.932 106.48a3.878 3.878 0 0 1-2.846-1 3.753 3.753 0 0 1-1.019-2.8V88.27a3.754 3.754 0 0 1 1.019-2.8 3.881 3.881 0 0 1 2.846-1 3.483 3.483 0 0 1 3.8 3.8v14.41a3.483 3.483 0 0 1-3.8 3.8"/><path data-name="Path 118" d="M170.645 106.48h-8.628a3.658 3.658 0 0 1-4.044-4.044V88.505a3.658 3.658 0 0 1 4.044-4.044h8.628a2.959 2.959 0 0 1 2.082 4.943 2.845 2.845 0 0 1-2.082.749h-5v2.337h3.984a2.945 2.945 0 0 1 2.2.809 2.993 2.993 0 0 1-2.2 5.183h-3.984v2.307h5a2.959 2.959 0 0 1 2.082 4.943 2.845 2.845 0 0 1-2.082.749"/><path data-name="Path 119" d="M193.623 99.532q0 7.22-9.167 7.22a12.954 12.954 0 0 1-7.07-1.708 3.68 3.68 0 0 1-2.037-3.176 3.318 3.318 0 0 1 .809-2.307 2.76 2.76 0 0 1 2.157-.9 7.565 7.565 0 0 1 2.726.824 7.657 7.657 0 0 0 2.936.824q1.288 0 1.288-.749a.565.565 0 0 0-.1-.33.8.8 0 0 0-.36-.255c-.17-.07-.325-.13-.464-.18s-.35-.11-.629-.18a6.327 6.327 0 0 1-.659-.195q-.809-.27-1-.33t-1.019-.359a8.076 8.076 0 0 1-1.108-.464q-.285-.164-.989-.554a3.748 3.748 0 0 1-1-.734q-.3-.344-.779-.884a3.453 3.453 0 0 1-.689-1.124 12.78 12.78 0 0 1-.389-1.333 6.909 6.909 0 0 1-.18-1.618 6.007 6.007 0 0 1 2.247-4.988 9.524 9.524 0 0 1 6.082-1.782 12.729 12.729 0 0 1 7.01 1.648 3.157 3.157 0 0 1 1.588 2.666 3.5 3.5 0 0 1-.794 2.382 2.692 2.692 0 0 1-2.142.914 6.876 6.876 0 0 1-2.606-.614 6.441 6.441 0 0 0-2.187-.614q-.959 0-.959.719a.677.677 0 0 0 .045.24.386.386 0 0 0 .165.195q.119.075.225.135a2 2 0 0 0 .315.135 2.879 2.879 0 0 0 .344.1q.135.03.39.1c.17.05.3.085.4.1q.029 0 .869.255t1.019.315q.18.06.959.344a6.924 6.924 0 0 1 1.049.449q.27.165.929.539a3.586 3.586 0 0 1 .929.689q.27.314.719.824a3.064 3.064 0 0 1 .629 1.048q.18.539.345 1.228a6.319 6.319 0 0 1 .165 1.468"/><path data-name="Path 120" d="M192.202 79.626h-.017a1.7 1.7 0 0 1-1.683-1.717c.1-9.646-3.569-23.194-10.768-30.423a1.7 1.7 0 1 1 2.41-2.4c8.224 8.259 11.86 22.822 11.758 32.857a1.7 1.7 0 0 1-1.7 1.683"/><path data-name="Path 121" d="M1.7 79.318a1.7 1.7 0 0 1-1.7-1.7 31.6 31.6 0 0 1 31.568-31.564q.365 0 .732.008a25.592 25.592 0 0 1 35.471-28.7 50.034 50.034 0 0 1 85.012 15.85 40.468 40.468 0 0 1 29.361 11.872 1.7 1.7 0 0 1-2.409 2.4 37.059 37.059 0 0 0-28.068-10.832 1.7 1.7 0 0 1-1.7-1.168 46.63 46.63 0 0 0-80.425-14.943 1.7 1.7 0 0 1-2.093.437 21.946 21.946 0 0 0-10.119-2.442 22.217 22.217 0 0 0-21.172 28.856 1.7 1.7 0 0 1-1.79 2.2 28.715 28.715 0 0 0-2.8-.138A28.2 28.2 0 0 0 3.4 77.617a1.7 1.7 0 0 1-1.7 1.7"/></g></svg>