<svg xmlns="http://www.w3.org/2000/svg" width="136.512" height="84.361" viewBox="0 0 136.512 84.361"><g data-name="Group 12"><path data-name="Path 122" d="M128.439 31.948a27.65 27.65 0 0 0-21.037-8.118 34.632 34.632 0 0 0-59.731-11.1A17.131 17.131 0 0 0 23.53 33.105c-.7-.069-1.41-.1-2.127-.1A21.4 21.4 0 0 0 5.99 69.253s.175.2.556.558a21.432 21.432 0 0 0 5.723 3.95c8.056 4.455 25.013 10.6 57.271 10.6 43.3 0 55.425-9.487 58.316-12.754.172-.155.334-.32.5-.481a27.7 27.7 0 0 0 .083-39.178z" fill="#682567"/><g data-name="Group 111"><g data-name="Group 110" fill="#fff"><g data-name="Group 109"><path data-name="Path 123" d="M67.513 21.296c-.022 3.722.007 7.6-.016 11.293 0 1.987-1.281 1.938-2.715 1.939-1.458 0-2.189-.526-2.24-2.01-.052-2.389.172-4.528-.708-3.948-1.357 1.762-.527.7-1.809 2.391a1.239 1.239 0 0 1-1.811.076c-1.284-1.634-.5-.7-1.888-2.463-.881-.578-.678 1.56-.7 3.95 0 1.484-.778 2.013-2.237 2.014-1.434 0-2.716.052-2.718-1.935-.028-3.7-.007-7.571-.035-11.293 0-1.031.4-2.34 2.01-2.29 1.509.024 2.641-.254 3.623 1.255.58.9 1.486 2.514 2.317 3.846.075.075.529.7.981 0 .879-1.334 1.733-2.944 2.31-3.85 1.03-1.51 2.187-1.36 3.7-1.26a2 2 0 0 1 1.936 2.285z"/><path data-name="Path 124" d="M82.981 22.214c-.527.73-1.156 1.761-2.034 3.12-.3.4-2.11 2.844-2.11 3.951-.05.88-.049 1.811-.049 2.641-.049 2.012-.577 2.591-2.437 2.642h-.326c-1.862-.049-2.491-.727-2.492-2.689-.051-.78-.052-1.61-.052-2.389 0-1.509-1.814-3.847-2.016-4.148-.932-1.407-1.561-2.388-2.04-3.117-.353-.679-1.183-1.71-.681-2.59.276-.478 1.559-.479 2.766-.481a2.6 2.6 0 0 1 2.894 1.507l1.26 2.388s.151.528.579.452c.4 0 .779-.554.93-.931.352-.88.728-1.66.829-1.912a2.6 2.6 0 0 1 2.891-1.512c1.207 0 2.49 0 2.767.476.501.88-.327 1.912-.679 2.592z"/><path data-name="Path 125" d="M35.058 37.925c2.289 0 4.981.524 4.982 2.26a5.971 5.971 0 0 1-.9 2.768 1.294 1.294 0 0 1-1.534.3 4.434 4.434 0 0 0-2.037-.551c-1.736 0-2.715 1.385-2.714 3.372 0 2.289 1.084 2.892 2.568 2.891a3.86 3.86 0 0 0 2.037-.605c.779-.479 1.509-.253 1.761.326a13.6 13.6 0 0 1 1.008 2.716c.126.729-.226 1.057-.93 1.434a9.631 9.631 0 0 1-4.6.934c-4.527 0-7.523-2.811-7.526-7.514-.009-4.251 3.056-8.327 7.885-8.331z"/><path data-name="Path 126" d="M49.031 54.06a7.916 7.916 0 0 1-8.387-8.241 8.289 8.289 0 1 1 8.383 8.243zm.09-11.394a3.046 3.046 0 0 0-2.965 3.2c0 1.962.631 3.445 2.795 3.443 1.962 0 2.967-1.486 2.965-3.322.074-1.915-.958-3.323-2.795-3.321z"/><path data-name="Path 127" d="M66.511 54.045a7.916 7.916 0 0 1-8.383-8.243 8.289 8.289 0 1 1 8.383 8.243zm.091-11.394a3.046 3.046 0 0 0-2.965 3.2c0 1.962.631 3.445 2.795 3.443 1.962 0 2.967-1.486 2.965-3.322.077-1.914-.959-3.322-2.795-3.32z"/><path data-name="Path 128" d="M76.109 42.996v-3.169c0-.8.2-1.559 1.055-1.635h.453c3.37-.128 3.647-.079 3.5 3.242.025.4 0 1.308.529 1.383.6.075.93-1.183 1.131-1.56.376-.73.652-1.434.753-1.686a2.542 2.542 0 0 1 2.816-1.436c1.156 0 2.364 0 2.667.451.479.829-.325 1.887-.7 2.516-.452.679-.854 1.459-1.908 3.02-.578.83-.175 1.509.4 2.389.856 1.332 1.713 2.765 2.871 4.7.529.931.656 2.364-.853 2.365-.327 0-.78.051-1.157.051-2.867 0-2.892-.2-4.505-3.643-.5-1.056-.907-1.231-1.309-1.055 0 0-.5.151-.452 1.635v.277c.128 2.591-.325 2.792-2.337 2.794h-.855c-1.358 0-2.088-.25-2.09-2.79v-3.521s-.059-4.328-.009-4.328z"/><path data-name="Path 129" d="M96.538 51.052c-.049 1.962-.928 2.516-2.563 2.568s-2.616-.7-2.618-2.639c-.029-4.477-.008-9.23-.009-10.614s.627-2.264 2.111-2.265h.981c1.811 0 2.114 1.18 2.115 2.941.001.855.005 5.809-.017 10.009z"/><path data-name="Path 130" d="M109.316 51.847a1.613 1.613 0 0 1-1.785 1.687c-1.836.076-5.885.005-6.992.006-1.408 0-2.064-1.156-2.064-2.538l-.009-10.388c0-1.534.249-2.515 2.136-2.517l7.395-.006c1.132 0 1.308.553 1.309 1.684 0 2.138-.476 2.616-1.231 2.541a43.99 43.99 0 0 0-3.773-.1c-.4.051-.8.227-.829.781a.708.708 0 0 0 .5.679 27.4 27.4 0 0 0 2.918.073c1.685-.026 1.459 1.03 1.511 2.086.077 1.157.077 2.138-1.457 2.039-.3 0-1.458-.024-2.415-.023-.427.026-1.056.177-1.056.832.026.553.5.7.881.728.73.025 2.364 0 3.8 0 1.008-.004 1.281.575 1.161 2.436z"/><path data-name="Path 131" d="M28.901 64.818c0-1.358-.052-3.068 0-4.426 0-3.371.324-3.194 3.267-3.423a27.119 27.119 0 0 1 6.036.221c3.119.45 5.184 2.888 5.187 7.466 0 4.352-2.383 7.547-6 7.777-2.339.127-4.678-.021-6.992.056-1.056.051-1.534-.628-1.485-1.709.023-2.112 0-3.571-.005-5.71-.008-.004-.063-.252-.008-.252zm5.107 1.529c0 1.484.605 1.886 1.712 1.885 2.188 0 2.639-2.241 2.637-4.228 0-1.861-.682-3.294-3.021-3.192-.855.026-1.282.429-1.282 1.988z"/><path data-name="Path 132" d="M52.821 72.871a7.915 7.915 0 0 1-8.383-8.243 8.289 8.289 0 1 1 8.383 8.243zm.091-11.394a3.046 3.046 0 0 0-2.965 3.2c0 1.962.631 3.445 2.794 3.443 1.962 0 2.967-1.486 2.965-3.322.078-1.917-.958-3.323-2.794-3.317z"/><path data-name="Path 133" d="M77.639 65.432c-.273 4.276-2.283 7.145-7.539 7.149-4.753 0-7.22-2.509-7.551-6.735-.1-2.112-.1-5.08-.055-5.759.049-2.113.8-3.069 2.915-3.122 2.214 0 2.843 1.029 2.844 2.94v4.6c0 2.415.505 3.118 1.839 3.117s1.86-.932 1.858-3.12v-4.6c0-1.911.626-2.943 2.84-2.945 2.113.049 2.868 1 2.921 3.116.05.68.052 3.544-.072 5.359z"/><path data-name="Path 134" d="M92.658 70.247c-.024.981-.351 1.434-1.558 1.812a14.146 14.146 0 0 1-2.917.531 9.126 9.126 0 0 1-5.509-1.127c-2.742-1.683-3.877-5.128-3.377-8.322a8.261 8.261 0 0 1 11.916-5.77c1.082.754 1.435 2.162 0 4.2a1.513 1.513 0 0 1-1.81.379 3.377 3.377 0 0 0-3.42.179 3.568 3.568 0 0 0-1 3.773c.353.905.781 1.509 1.762 1.508 1.106 0 1.257-.429 1.256-1.234.024-1.006.451-1.56 2.212-1.611 1.886 0 2.465.526 2.466 1.608v2.012c.003 1.182.004 1.71-.021 2.062z"/><path data-name="Path 135" d="M96.344 56.889c1.434 0 2.717 0 2.719 2.463 0 2.439.279 3.043 2.015 3.042s1.911-.6 1.909-3.045c0-2.238.627-2.541 2.286-2.542 2.44 0 2.768.8 2.769 2.538.051 1.031.055 6.388.008 9.859.127 2.087-.3 3.345-2.336 3.422-1.534-.049-2.49-.451-2.618-2.765-.127-2.062-.128-2.867-2.065-2.865s-1.961 1.032-1.908 3.045c.052 2.389-.954 2.516-2.463 2.517-2.163 0-2.592-1.205-2.593-3.217l-.009-10.262c0-1.811.752-2.189 2.286-2.19z"/></g><path data-name="Path 136" d="M85.345 19.661a2.655 2.655 0 0 1 2.79-2.79 2.76 2.76 0 0 1 2.883 2.848 2.831 2.831 0 0 1-2.8 2.766 2.711 2.711 0 0 1-2.873-2.824zm4.46 1.554c.106-.177-.082-.412-.153-.542-.106-.153-.071-.094-.224-.342-.094-.141-.2-.341-.082-.459a1.14 1.14 0 0 0 .329-1.107 1 1 0 0 0-.953-.73 9.433 9.433 0 0 0-1.635 0c-.353.036-.436.248-.447.518l.012 2.33c0 .258.094.376.318.412a.7.7 0 0 0 .153.023h.023a1.742 1.742 0 0 0 .459-.023c.248-.012.283-.189.283-.459v-.212a.355.355 0 0 1 .071-.224c.212-.165.306.141.353.224.082.141.141.306.212.424a.643.643 0 0 0 .612.306c.504-.022.61-.045.669-.139zm-1.989-2.037c0-.212.036-.294.271-.294.294-.012.435.094.435.318s-.165.341-.435.341c-.235.005-.268-.07-.268-.365z"/></g></g></g></svg>