<svg xmlns="http://www.w3.org/2000/svg" width="139.187" height="26.963" viewBox="0 0 139.187 26.963"><path d="M10.9 4.243c-1.632 0-2.122.718-2.122 2.318v2.644h4.374l-.424 4.309H8.781v13.024H3.525V13.514H0V9.238h3.525V6.659C3.525 2.285 5.288 0 10.152 0a24.207 24.207 0 0 1 3.068.2v4.043m.294 13.09c0-4.831 2.285-8.487 7.116-8.487a5.164 5.164 0 0 1 4.994 3.036V9.238h5.027v17.333h-5.06v-2.612a5.1 5.1 0 0 1-4.994 2.97c-4.8 0-7.116-3.623-7.116-8.487m5.288.065c0 2.579.947 4.309 3.395 4.309 2.154 0 3.232-1.567 3.232-4.048v-1.761c0-2.481-1.11-4.048-3.232-4.048-2.448 0-3.395 1.7-3.395 4.309v1.24zm22.785-9.661a9.375 9.375 0 0 1 5.027 1.175l-1.171 3.725a8.037 8.037 0 0 0-3.493-.783c-2.84 0-4.08 1.632-4.08 4.439v1.012c0 2.807 1.24 4.439 4.08 4.439a8.068 8.068 0 0 0 3.493-.816l1.175 3.721a9.6 9.6 0 0 1-5.027 1.175c-6.169 0-8.944-3.3-8.944-8.618v-.819c0-5.321 2.775-8.65 8.944-8.65m5.708 9.695v-1.534c0-4.929 2.807-8.161 8.52-8.161 5.386 0 7.769 3.264 7.769 8.1v2.77H52.521c.1 2.383 1.175 3.427 4.08 3.427a15.668 15.668 0 0 0 5.582-1.045l.947 3.591a16.981 16.981 0 0 1-6.724 1.273c-6.659-.033-9.14-3.33-9.14-8.422m5.255-2.285h6.333v-.424c0-1.893-.751-3.395-3.068-3.395-2.35 0-3.264 1.5-3.264 3.819m30.487 2.188c0 4.831-2.318 8.487-7.149 8.487a5.35 5.35 0 0 1-5.157-2.97v2.611h-4.962V.522l5.255-.457v11.588a5.231 5.231 0 0 1 4.9-2.775c4.8 0 7.149 3.623 7.149 8.487m-5.288-.131c0-2.448-.947-4.276-3.46-4.276-2.154 0-3.3 1.534-3.3 4.015v1.828c0 2.481 1.175 4.015 3.3 4.015 2.513 0 3.46-1.828 3.46-4.276v-1.305zm6.982 1.078v-.881c0-4.994 2.84-8.585 8.618-8.585s8.618 3.591 8.618 8.585v.881c0 4.994-2.84 8.585-8.618 8.585s-8.618-3.558-8.618-8.585m12.012-1.24c0-2.285-.947-4.113-3.395-4.113s-3.395 1.828-3.395 4.113v1.632c0 2.285.947 4.113 3.395 4.113s3.395-1.828 3.395-4.113zm7.019 1.24v-.881c0-4.994 2.84-8.585 8.618-8.585s8.618 3.591 8.618 8.585v.881c0 4.994-2.84 8.585-8.618 8.585s-8.618-3.558-8.618-8.585m12.012-1.24c0-2.285-.947-4.113-3.395-4.113s-3.395 1.828-3.395 4.113v1.632c0 2.285.947 4.113 3.395 4.113s3.395-1.828 3.395-4.113zm12.437.425l5.19-8.291h5.549l-5.419 8.585 5.647 8.781h-5.582l-5.386-8.487v8.487h-5.222V.523l5.223-.49" fill="#f7e8f3"/></svg>