<svg xmlns="http://www.w3.org/2000/svg" width="136.286" height="83.331" viewBox="0 0 136.286 83.331"><defs><clipPath id="a"><path data-name="Rectangle 11" fill="#672567" d="M0 0h136.286v83.331H0z"/></clipPath></defs><g data-name="Group 15" clip-path="url(#a)"><path data-name="Path 56" d="M128.227 51.773a27.768 27.768 0 0 1-21 8.019 34.738 34.738 0 0 1-59.635 10.964A17.121 17.121 0 0 1 22.709 55.7a16.815 16.815 0 0 1 .782-5.075q-1.048.1-2.124.1A21.252 21.252 0 0 1 0 29.595a20.964 20.964 0 0 1 5.979-14.668s.175-.2.555-.551a21.409 21.409 0 0 1 5.714-3.9C20.29 6.074 37.22 0 69.425 0c43.224 0 55.333 9.372 58.22 12.6.172.154.334.316.5.474a27.164 27.164 0 0 1 .081 38.7" fill="#672567"/></g></svg>