<svg data-name="Group 141" xmlns="http://www.w3.org/2000/svg" width="104.852" height="57.724" viewBox="0 0 104.852 57.724"><defs><clipPath id="a"><path data-name="Rectangle 53" fill="#8a5fa1" d="M0 0h104.852v57.724H0z"/></clipPath></defs><g data-name="Group 97" clip-path="url(#a)" fill="#8a5fa1"><path data-name="Path 111" d="M3.982 57.077a1.905 1.905 0 0 1-1.409.5 1.9 1.9 0 0 1-1.409-.5 1.882 1.882 0 0 1-.5-1.393v-7.419a2.785 2.785 0 0 1 .6-1.928 2.194 2.194 0 0 1 1.717-.664 2.626 2.626 0 0 1 1.652.478 4.165 4.165 0 0 1 1.118 1.547l1.831 3.9h.032l1.782-3.888a4.217 4.217 0 0 1 1.085-1.555 2.391 2.391 0 0 1 1.555-.486 2.464 2.464 0 0 1 1.847.664 2.652 2.652 0 0 1 .648 1.928v7.419a1.883 1.883 0 0 1-.5 1.393 1.905 1.905 0 0 1-1.409.5 1.9 1.9 0 0 1-1.409-.5 1.882 1.882 0 0 1-.5-1.393v-3.029h-.032L9.45 55.599a6.139 6.139 0 0 1-.842 1.523 1.245 1.245 0 0 1-.988.454 1.3 1.3 0 0 1-1-.445 5.355 5.355 0 0 1-.842-1.515l-1.247-2.965h-.032v3.029a1.883 1.883 0 0 1-.5 1.393"/><path data-name="Path 112" d="M20.785 57.579a2.23 2.23 0 0 1-1.636-.575 2.161 2.161 0 0 1-.583-1.612V53.48l-2.479-4.585a3.158 3.158 0 0 1-.437-1.523 1.6 1.6 0 0 1 .51-1.231 2.064 2.064 0 0 1 1.45-.47 1.72 1.72 0 0 1 1.158.356 4.35 4.35 0 0 1 .9 1.409l1.085 2.462h.032l1.053-2.462a4.35 4.35 0 0 1 .9-1.409 1.719 1.719 0 0 1 1.158-.356 2.064 2.064 0 0 1 1.45.47 1.6 1.6 0 0 1 .51 1.231 3.158 3.158 0 0 1-.437 1.523l-2.446 4.585v1.912a2 2 0 0 1-2.187 2.187"/><path data-name="Path 113" d="M36.094 57.724a6.628 6.628 0 0 1-4.674-1.6 6.534 6.534 0 0 1 .049-8.934 6.608 6.608 0 0 1 4.625-1.628 4.957 4.957 0 0 1 2.641.6 1.936 1.936 0 0 1 .988 1.733 1.811 1.811 0 0 1-.445 1.247 1.458 1.458 0 0 1-1.142.5 3.373 3.373 0 0 1-.907-.154 3.418 3.418 0 0 0-.923-.154 2.41 2.41 0 0 0-1.636.591 2.54 2.54 0 0 0-.016 3.443 2.369 2.369 0 0 0 1.62.583 3.669 3.669 0 0 0 .948-.154 3.638 3.638 0 0 1 .931-.154 1.459 1.459 0 0 1 1.142.5 1.812 1.812 0 0 1 .445 1.247 1.945 1.945 0 0 1-1.037 1.766 5.055 5.055 0 0 1-2.608.567"/><path data-name="Path 114" d="M46.689 57.708a6.339 6.339 0 0 1-4.625-1.636 6.56 6.56 0 0 1 .032-8.8 6.9 6.9 0 0 1 9.112 0 6.572 6.572 0 0 1 .057 8.8 6.237 6.237 0 0 1-4.576 1.636m-1.434-4.317a1.956 1.956 0 0 0 2.8 0 3.106 3.106 0 0 0-.016-3.532 1.956 1.956 0 0 0-2.77 0 3.106 3.106 0 0 0-.016 3.532"/><path data-name="Path 115" d="M60.164 57.708a6.339 6.339 0 0 1-4.625-1.636 6.56 6.56 0 0 1 .032-8.8 6.9 6.9 0 0 1 9.112 0 6.571 6.571 0 0 1 .057 8.8 6.237 6.237 0 0 1-4.576 1.636m-1.434-4.317a1.956 1.956 0 0 0 2.8 0 3.106 3.106 0 0 0-.016-3.532 1.956 1.956 0 0 0-2.77 0 3.106 3.106 0 0 0-.016 3.532"/><path data-name="Path 116" d="M71.344 57.036a2.041 2.041 0 0 1-1.523.543 2.069 2.069 0 0 1-1.531-.543 2.046 2.046 0 0 1-.543-1.515v-7.792a2.047 2.047 0 0 1 .543-1.515 2.07 2.07 0 0 1 1.531-.543 2.042 2.042 0 0 1 1.523.543 2.066 2.066 0 0 1 .535 1.515v1.993h.94l1.506-2.932a1.741 1.741 0 0 1 1.814-1.118 2.159 2.159 0 0 1 1.49.567 1.9 1.9 0 0 1 .421 2.284l-1.733 3.127 1.7 3.013a1.886 1.886 0 0 1 .227.907 1.829 1.829 0 0 1-.656 1.434 2.272 2.272 0 0 1-1.547.575 1.972 1.972 0 0 1-1.118-.284 2.5 2.5 0 0 1-.761-.915l-1.474-2.835h-.81v1.977a2.065 2.065 0 0 1-.535 1.515"/><path data-name="Path 117" d="M81.615 57.579a2.1 2.1 0 0 1-1.539-.543 2.03 2.03 0 0 1-.551-1.515v-7.792a2.03 2.03 0 0 1 .551-1.515 2.1 2.1 0 0 1 1.539-.543 1.883 1.883 0 0 1 2.057 2.057v7.792a1.883 1.883 0 0 1-2.057 2.057"/><path data-name="Path 118" d="M92.275 57.579h-4.663a1.978 1.978 0 0 1-2.187-2.187v-7.533a1.978 1.978 0 0 1 2.187-2.187h4.666a1.6 1.6 0 0 1 1.126 2.673 1.538 1.538 0 0 1-1.126.405h-2.705v1.264h2.155a1.593 1.593 0 0 1 1.191.437 1.618 1.618 0 0 1-1.191 2.8h-2.155v1.247h2.705a1.6 1.6 0 0 1 1.126 2.673 1.539 1.539 0 0 1-1.126.405"/><path data-name="Path 119" d="M104.699 53.82q0 3.9-4.957 3.9a7 7 0 0 1-3.823-.923 1.99 1.99 0 0 1-1.1-1.717 1.794 1.794 0 0 1 .437-1.247 1.492 1.492 0 0 1 1.166-.486 4.089 4.089 0 0 1 1.474.445 4.141 4.141 0 0 0 1.588.445q.7 0 .7-.405a.307.307 0 0 0-.057-.178.436.436 0 0 0-.195-.138c-.092-.038-.176-.07-.251-.1s-.189-.059-.34-.1a3.425 3.425 0 0 1-.356-.105q-.437-.146-.543-.178t-.551-.194a4.385 4.385 0 0 1-.6-.251q-.154-.089-.535-.3a2.028 2.028 0 0 1-.543-.4q-.162-.186-.421-.478a1.87 1.87 0 0 1-.373-.608 6.92 6.92 0 0 1-.21-.721 3.74 3.74 0 0 1-.1-.875 3.248 3.248 0 0 1 1.215-2.7 5.15 5.15 0 0 1 3.289-.964 6.884 6.884 0 0 1 3.791.891 1.707 1.707 0 0 1 .859 1.442 1.893 1.893 0 0 1-.429 1.288 1.456 1.456 0 0 1-1.158.494 3.718 3.718 0 0 1-1.409-.332 3.484 3.484 0 0 0-1.183-.332q-.519 0-.518.389a.37.37 0 0 0 .024.13.209.209 0 0 0 .089.105l.121.073a1.083 1.083 0 0 0 .17.073 1.578 1.578 0 0 0 .186.057c.049.011.119.03.211.057s.164.046.219.057q.016 0 .47.138t.551.17q.1.033.518.186a3.743 3.743 0 0 1 .567.243q.146.089.5.292a1.94 1.94 0 0 1 .5.373q.146.17.389.445a1.656 1.656 0 0 1 .34.567q.1.292.186.664a3.417 3.417 0 0 1 .089.794"/><path data-name="Path 120" d="M103.932 43.057h-.009a.92.92 0 0 1-.91-.929c.053-5.216-1.93-12.542-5.823-16.451a.92.92 0 1 1 1.3-1.3c4.447 4.466 6.413 12.341 6.358 17.767a.92.92 0 0 1-.919.91"/><path data-name="Path 121" d="M.919 42.89A.919.919 0 0 1 0 41.971 17.088 17.088 0 0 1 17.07 24.9h.4A13.839 13.839 0 0 1 36.646 9.389a27.055 27.055 0 0 1 45.97 8.571 21.883 21.883 0 0 1 15.877 6.419.919.919 0 0 1-1.3 1.3 20.039 20.039 0 0 0-15.181-5.859.919.919 0 0 1-.92-.632 25.215 25.215 0 0 0-43.492-8.08.919.919 0 0 1-1.132.236A11.867 11.867 0 0 0 31 10.023a12.014 12.014 0 0 0-11.448 15.6.919.919 0 0 1-.968 1.189c-.5-.049-1.01-.074-1.515-.074a15.247 15.247 0 0 0-15.23 15.233.919.919 0 0 1-.919.919"/></g></svg>