<svg xmlns="http://www.w3.org/2000/svg" width="137.488" height="37.159" viewBox="0 0 137.488 37.159"><path d="M130.133 17.688l7.355 19.471c-2.168-.31-4.334-.7-6.54-1.047l-4.143-10.759-4.257 9.871c-2.09-.349-4.142-.466-6.232-.737l7.47-17.031L117.011 0h6.271l3.793 9.753L131.14 0h6.347zM112.062 0h-5.69v33.753c1.858.116 3.793.193 5.69.425zm-10.609 33.366c-5.186-.348-10.374-.656-15.676-.774V0h5.805v27.095c3.329.077 6.658.347 9.871.5zM79.582 13.2v5.805h-7.934v13.2H65.92V0h16.257v5.805H71.649V13.2h7.935zm-23.42-7.395v26.709c-1.936 0-3.909 0-5.807.077V5.805h-6V0h17.847v5.805zM38.088 19.314c-2.554 0-5.574 0-7.742.118v8.634c3.406-.233 6.812-.5 10.257-.619v5.574l-16.062 1.274V0h16.062v5.805H30.346v7.819c2.246 0 5.69-.116 7.741-.116v5.807zM5.921 16.066v20.279c-2.088.233-3.948.5-5.921.814V0h5.536l7.547 21.1V0h5.807v34.759c-2.051.349-4.142.466-6.348.774z" fill="#f7e8f3"/></svg>