<svg xmlns="http://www.w3.org/2000/svg" width="56.113" height="15.65" viewBox="0 0 56.113 15.65"><path d="M11.597 6.833a1.685 1.685 0 0 1 .155-.742 1.15 1.15 0 0 1 .453-.531 1.616 1.616 0 0 1 1.6 0 1.2 1.2 0 0 1 .461.531 1.678 1.678 0 0 1 .155.742zm3.714-3.269a4.32 4.32 0 0 0-2.307-.6 3.976 3.976 0 0 0-3.076 1.29 5.09 5.09 0 0 0-1.177 3.572q0 4.857 4.521 4.857a5.21 5.21 0 0 0 2.1-.36 5.347 5.347 0 0 0 1.6-1.147l-1.744-1.719a2.937 2.937 0 0 1-.824.6 2.786 2.786 0 0 1-1.134.188 1.708 1.708 0 0 1-1.221-.426 1.375 1.375 0 0 1-.453-1.04h5.685v-1.3a5.153 5.153 0 0 0-.5-2.3 3.848 3.848 0 0 0-1.471-1.616zm7.894 5.499a1.353 1.353 0 0 1-.337.746 1.049 1.049 0 0 1-.78.259 1.049 1.049 0 0 1-.781-.259 1.353 1.353 0 0 1-.332-.746 7.737 7.737 0 0 1-.082-1.238 4.676 4.676 0 0 1 .224-1.708.942.942 0 0 1 .971-.535 1.05 1.05 0 0 1 .78.259 1.355 1.355 0 0 1 .337.747 7.739 7.739 0 0 1 .082 1.238 7.737 7.737 0 0 1-.082 1.237m2.1-5.232a3.16 3.16 0 0 0-2.311-.863 2.973 2.973 0 0 0-2.191.88v-.776H17.99V15.65h2.9v-3.761a2.851 2.851 0 0 0 2.122.794 3.138 3.138 0 0 0 2.295-.863 2.623 2.623 0 0 0 .725-1.428 12.251 12.251 0 0 0 .155-2.126v-.88a12.252 12.252 0 0 0-.156-2.129 2.623 2.623 0 0 0-.725-1.428m8.336-.414a3 3 0 0 0-1.673-.447 2.9 2.9 0 0 0-1.108.225 2.951 2.951 0 0 0-.979.656V0h-2.9v12.579h2.9V6.815a1.142 1.142 0 0 1 .358-.949 1.194 1.194 0 0 1 .755-.284 1.216 1.216 0 0 1 .755.276 1.139 1.139 0 0 1 .358.958v5.763h2.9V6.415a4.416 4.416 0 0 0-.339-1.764 2.718 2.718 0 0 0-1.027-1.236m4.828 3.418a1.685 1.685 0 0 1 .155-.742 1.15 1.15 0 0 1 .453-.531 1.616 1.616 0 0 1 1.6 0 1.2 1.2 0 0 1 .461.531 1.678 1.678 0 0 1 .155.742zm3.714-3.269a4.32 4.32 0 0 0-2.307-.6 3.976 3.976 0 0 0-3.076 1.286 5.09 5.09 0 0 0-1.177 3.572q0 4.857 4.521 4.857a5.21 5.21 0 0 0 2.1-.36 5.342 5.342 0 0 0 1.6-1.147l-1.734-1.72a2.937 2.937 0 0 1-.824.6 2.786 2.786 0 0 1-1.134.188 1.708 1.708 0 0 1-1.221-.426 1.375 1.375 0 0 1-.453-1.04h5.685v-1.3a5.15 5.15 0 0 0-.5-2.3 3.848 3.848 0 0 0-1.471-1.616zM7.17 3.779a2.882 2.882 0 0 0-2.131-.812 3.311 3.311 0 0 0-1.186.233 2.875 2.875 0 0 0-1.022.647v-.776H0v3.856l2.9 2.6V6.893a1.22 1.22 0 0 1 .375-1.017 1.217 1.217 0 0 1 1.579 0 1.219 1.219 0 0 1 .375 1.022v4.719l1.072.962h1.826V6.497a5.275 5.275 0 0 0-.2-1.519 2.8 2.8 0 0 0-.759-1.2m46.147 4.223l-1.266-3.785-1.276-1.145h-1.117l-1.639 4.93-1.191-4.93h-3.053l2.865 9.507h2.311l1.717-5.211 1.708 5.211h2.321l1.417-4.718-2.274-2.04z" fill="#672567" fill-rule="evenodd"/></svg>