<svg xmlns="http://www.w3.org/2000/svg" width="106.846" height="110.66" viewBox="0 0 106.846 110.66"><defs><clipPath id="a"><path data-name="Rectangle 38" fill="#8a5fa1" d="M0 0h84.823v74.403H0z"/></clipPath></defs><g data-name="Group 82"><g data-name="Group 81" clip-path="url(#a)" transform="rotate(60 32.218 55.802)"><path data-name="Path 108" d="M52.977 12.787c0-2.718-.011-5.353 0-7.989a4.62 4.62 0 0 1 1.575-3.775c1.597-1.312 3.492-1.364 5.507-.147q8.584 5.186 17.157 10.387c1.745 1.057 3.5 2.1 5.236 3.17 3.158 1.942 3.167 5.686-.015 7.619Q71.21 28.873 59.949 35.635c-3.455 2.076-6.936.086-6.969-3.962-.018-2.229 0-4.459 0-6.688v-.956a35.613 35.613 0 0 0-9.053 1.561c-17 5.324-27.676 16.642-31.812 33.968a55.151 55.151 0 0 0-.984 8.951c-.186 2.669-1.5 4.792-3.743 5.569a5.555 5.555 0 0 1-7.389-5.565 54.024 54.024 0 0 1 5.562-23.887c8.23-16.454 21.438-26.591 39.296-30.758 1.309-.305 2.658-.444 3.994-.621s2.671-.3 4.125-.46" fill="#8a5fa1"/></g></g></svg>