<svg xmlns="http://www.w3.org/2000/svg" width="24.93" height="12.506" viewBox="0 0 24.93 12.506"><defs><clipPath id="a"><path data-name="Rectangle 78" fill="#fff" d="M0 0h24.93v12.506H0z"/></clipPath></defs><g data-name="Group 174"><g data-name="Group 173" clip-path="url(#a)"><path data-name="Path 253" d="M19.545 6.039c.722.145 1.413.27 2.1.429a3.461 3.461 0 0 1 .8.315.539.539 0 0 1 .232.806c-.483 1.069-.972 2.136-1.416 3.221a1.167 1.167 0 0 1-.824.773 27.534 27.534 0 0 1-2.782.565 52.514 52.514 0 0 1-7.859.336 37.535 37.535 0 0 1-6.615-.637 5.633 5.633 0 0 1-.526-.135 1.668 1.668 0 0 1-1.2-1.034C1.039 9.6.529 8.569.059 7.518a.523.523 0 0 1 .328-.753 10.283 10.283 0 0 1 1.895-.544 56.11 56.11 0 0 1 9.283-.582c1.493.012 2.986.085 4.479.115a.751.751 0 0 0 .451-.16c1.977-1.61 3.94-3.237 5.923-4.838A6.633 6.633 0 0 1 23.6.067 1.056 1.056 0 0 1 24.1 0a.787.787 0 0 1 .728 1.188 2.624 2.624 0 0 1-.6.774c-1.462 1.293-2.941 2.568-4.415 3.849l-.263.226M1.025 8.171c.291.661.643 1.346.894 2.067a1.318 1.318 0 0 0 1.117.939c.042.008.083.022.125.027 1.488.192 2.972.456 4.467.559a53.08 53.08 0 0 0 9.742-.187A27.061 27.061 0 0 0 20.276 11a.763.763 0 0 0 .409-.39c.236-.465.43-.951.641-1.428l.443-1.007a69.015 69.015 0 0 1-20.743 0m21.054-.822l-.01-.112a5.441 5.441 0 0 0-.527-.187 29.752 29.752 0 0 0-5.8-.7 71.868 71.868 0 0 0-12.843.38c-.744.1-1.475.292-2.212.442v.137c.165.06.326.136.5.179a29.04 29.04 0 0 0 5.448.7 79.41 79.41 0 0 0 8.317.063 41.929 41.929 0 0 0 5.916-.583c.41-.076.81-.209 1.215-.316M17.21 5.818c.5.048.926.1 1.349.12a.492.492 0 0 0 .3-.128q2.428-2.081 4.845-4.175a3.356 3.356 0 0 0 .516-.563.4.4 0 0 0 .057-.362.387.387 0 0 0-.359-.091 3.906 3.906 0 0 0-.958.483c-.948.742-1.87 1.518-2.8 2.283-.962.791-1.922 1.585-2.95 2.433" fill="#fff"/></g></g></svg>