<svg xmlns="http://www.w3.org/2000/svg" width="742.324" height="108.612" viewBox="0 0 742.324 108.612"><defs><clipPath id="a"><path fill="none" d="M379 0h742.324v108.612H379z"/></clipPath></defs><g data-name="Scroll Group 1" transform="translate(-379)" clip-path="url(#a)" style="isolation:isolate"><path data-name="Path 72" d="M363.267 67.401c-12.832 0-25.247-.34-37.758-1.033-33.007-1.826-68.435-2.963-105.3-3.378q-16.05-.181-32.451-.181c-19.175 0-38.618.185-58.121.556-52.113.989-87 2.983-87.341 3l-.058-1c.346-.02 35.244-2.014 87.375-3 19.509-.37 38.97-.556 58.152-.556q16.382 0 32.452.181c36.88.415 72.324 1.552 105.348 3.379 14.709.814 29.286 1.14 44.566 1 13.729-.127 27.8-.634 43.027-1.549 28.45-1.71 56.591-4.591 86.385-7.642 55.3-5.662 115.624-11.838 191.581-11.838 12.345 0 25.1.163 38.6.526 24.919.669 51.789 2.043 80.646 4.315 62.347 4.907 116.442 8.533 165.377 11.088 52.942 2.763 98.984 4.232 140.755 4.491 21.556.133 42.149-.069 61.2-.6 19.475-.544 38.017-1.451 55.112-2.7 17.411-1.268 33.912-2.931 49.045-4.94 15.364-2.04 29.831-4.507 43-7.331a456.425 456.425 0 0 1 72.9-9.669 400.069 400.069 0 0 1 56.2 1.075 309.514 309.514 0 0 1 36.173 5.375c8.262 1.773 12.78 3.218 12.825 3.232l-.307.952c-.044-.014-4.532-1.448-12.759-3.213a308.614 308.614 0 0 0-36.062-5.354 399.073 399.073 0 0 0-56.045-1.067 455.4 455.4 0 0 0-72.71 9.647c-13.194 2.83-27.687 5.3-43.077 7.345-15.153 2.012-31.674 3.677-49.1 4.947-17.11 1.246-35.668 2.154-55.157 2.7-15.269.426-31.527.641-48.475.641q-6.32 0-12.76-.04c-41.787-.259-87.843-1.728-140.8-4.492-48.944-2.555-103.048-6.182-165.4-11.089C766.352 47.72 727 46.342 691.14 46.342c-75.921 0-136.2 6.173-191.483 11.833-29.8 3.052-57.957 5.934-86.428 7.645-15.24.916-29.331 1.423-43.077 1.551q-3.471.03-6.885.03z" fill="none" stroke="#f8e4e8" stroke-width="80"/></g></svg>